{
.formatVersion = 3;
DisplayStrings = (
"/uni0000"
);
classes = (
{
code = "R comma one two three o q x z agrave aacute acircumflex atilde adieresis egrave eacute ecircumflex edieresis igrave iacute icircumflex idieresis ntilde ograve oacute ocircumflex otilde odieresis ugrave uacute ucircumflex udieresis diamond";
name = aalt;
},
{
code = "R.alt comma.swsh onesuperior twosuperior threesuperior o.1 q.1 x.1 z.1 a.1grave a.1acute a.1circumflex a.1tilde a.1dieresis e.1grave e.1acute e.1circumflex e.1dieresis i.1grave i.1acute i.1circumflex i.1dieresis n.1tilde o.1grave o.1acute o.1circumflex o.1tilde o.1dieresis u.1grave u.1acute u.1circumflex u.1dieresis diamond.smcp";
name = aalt2;
},
{
code = "zero one two three four five six seven eight nine";
name = ordn;
},
{
code = "a b c d e f g h i j k l";
name = ornm;
},
{
code = "u1F451 der izq arrow.izq arrow.der dotswashder dotswashizq dotswashder.alt dotswashder.alt.111 dotswashder.alt.1 dotswashder.alt.2 dotswashder.ss01";
name = ornm2;
},
{
code = "a b c d e f g h i j k l m n o p q r s t u v w x y z agrave aacute acircumflex atilde adieresis egrave eacute ecircumflex edieresis igrave iacute icircumflex idieresis ntilde ograve oacute ocircumflex otilde odieresis ugrave uacute ucircumflex udieresis diamond";
name = smcp;
},
{
code = "a.1 b.1 c.1 d.1 e.1 f.1 g.1 h.1 i.1 j.1 k.1 l.1 m.1 n.1 o.1 p.1 q.1 r.1 s.1 t.1 u.1 v.1 w.1 x.1 y.1 z.1 a.1grave a.1acute a.1circumflex a.1tilde a.1dieresis e.1grave e.1acute e.1circumflex e.1dieresis i.1grave i.1acute i.1circumflex i.1dieresis n.1tilde o.1grave o.1acute o.1circumflex o.1tilde o.1dieresis u.1grave u.1acute u.1circumflex u.1dieresis diamond.smcp";
name = smcp2;
},
{
code = "a b c d e f h k l m n p r s t u v w y";
name = ss02;
},
{
code = "a.rulo b.rulo c.rulo d.rulo e.rulo f.rulo h.rulo k.rulo l.rulo m.rulo n.rulo p.rulo r.rulo s.rulo t.rulo u.rulo v.rulo w.rulo y.rulo";
name = ss022;
}
);
familyName = "Reina Neue Capitals";
customParameters = (
{
name = glyphOrder;

glyphs = (
{
glyphname = A;
layers = (
{
hints = (
{
horizontal = 1;
place = (0,8);
type = Stem;
},
{
horizontal = 1;
place = (301,10);
type = Stem;
},
{
horizontal = 1;
place = (668,8);
type = Stem;
},
{
place = (-60,141);
type = Stem;
}
);
layerId = "2CB89E61-3CCE-4A23-82C8-7DCD997832E5";
shapes = (
{
closed = 1;
nodes = (
(119,676,l),
(119,668,l),
(199,668,o),
(219,636,o),
(238,580,cs),
(329,311,l),
(155,311,l),
(152,301,l),
(333,301,l),
(391,129,ls),
(426,25,o),
(394,8,o),
(317,8,c),
(317,0,l),
(603,0,l),
(571,8,o),
(541,28,o),
(511,114,cs),
(317,676,l)
);
},
{
closed = 1;
nodes = (
(112,211,o),
(36,8,o),
(-60,8,c),
(-60,0,l),
(84,0,l),
(72,41,o),
(94,141,o),
(134,278,c)
);
}
);
width = 671;
}
);
leftKerningGroup = A2;
rightKerningGroup = A;
unicode = 65;
},
{
glyphname = B;
layers = (
{
hints = (
{
horizontal = 1;
place = (0,8);
type = Stem;
},
{
horizontal = 1;
place = (349,9);
type = Stem;
},
{
horizontal = 1;
place = (668,8);
type = Stem;
},
{
place = (109,108);
type = Stem;
},
{
place = (455,113);
type = Stem;
},
{
place = (468,119);
type = Stem;
}
);
layerId = "2CB89E61-3CCE-4A23-82C8-7DCD997832E5";
shapes = (
{
closed = 1;
nodes = (
(217,676,l),
(2,676,l),
(2,668,l),
(82,668,o),
(109,639,o),
(109,581,cs),
(109,95,ls),
(109,37,o),
(82,8,o),
(2,8,c),
(2,0,l),
(217,0,l)
);
},
{
closed = 1;
nodes = (
(326,349,l),
(338,349,ls),
(439,349,o),
(468,272,o),
(468,189,cs),
(468,112,o),
(443,10,o),
(369,10,c),
(500,10,o),
(587,55,o),
(587,188,cs),
(587,276,o),
(520,335,o),
(427,352,c),
(517,368,o),
(568,442,o),
(568,523,cs),
(568,639,o),
(479,667,o),
(359,667,c),
(426,667,o),
(455,595,o),
(455,519,cs),
(455,439,o),
(423,358,o),
(360,358,cs),
(326,358,l)
);
}
);
width = 689;
}
);
rightKerningGroup = B;
unicode = 66;
},
{
glyphname = C;
layers = (
{
hints = (
{
horizontal = 1;
place = (-17,32);
type = Stem;
},
{
horizontal = 1;
place = (679,-20);
target = down;
type = TopGhost;
},
{
horizontal = 1;
place = (687,-20);
target = down;
type = TopGhost;
},
{
place = (15,128);
type = Stem;
},
{
place = (630,9);
type = Stem;
}
);
layerId = "2CB89E61-3CCE-4A23-82C8-7DCD997832E5";
shapes = (
{
closed = 1;
nodes = (
(143,501,o),
(196,657,o),
(370,687,c),
(177,674,o),
(15,555,o),
(15,339,cs),
(15,113,o),
(192,-17,o),
(381,-17,cs),
(506,-17,o),
(596,40,o),
(645,124,c),
(640,131,l),
(590,61,o),
(514,15,o),
(422,15,cs),
(277,15,o),
(143,111,o),
(143,354,cs)
);
},
{
closed = 1;
nodes = (
(639,373,l),
(639,496,l),
(607,614,o),
(504,677,o),
(412,679,c),
(524,671,o),
(601,509,o),
(630,373,c)
);
}
);
width = 675;
}
);
leftKerningGroup = C;
unicode = 67;
},
{
glyphname = D;
layers = (
{
hints = (
{
horizontal = 1;
place = (0,8);
type = Stem;
},
{
horizontal = 1;
place = (668,8);
type = Stem;
},
{
place = (109,108);
type = Stem;
},
{
place = (522,123);
type = Stem;
}
);
layerId = "2CB89E61-3CCE-4A23-82C8-7DCD997832E5";
shapes = (
{
closed = 1;
nodes = (
(217,0,l),
(217,676,l),
(2,676,l),
(2,668,l),
(82,668,o),
(109,639,o),
(109,581,cs),
(109,95,ls),
(109,37,o),
(82,8,o),
(2,8,c),
(2,0,l)
);
},
{
closed = 1;
nodes = (
(522,186,o),
(495,8,o),
(376,8,c),
(555,8,o),
(645,152,o),
(645,349,cs),
(645,581,o),
(505,673,o),
(377,668,c),
(495,668,o),
(522,519,o),
(522,349,cs)
);
}
);
width = 770;
}
);
rightKerningGroup = B;
unicode = 68;
},
{
glyphname = E;
layers = (
{
hints = (
{
horizontal = 1;
place = (0,8);
type = Stem;
},
{
horizontal = 1;
place = (210,124);
type = Stem;
},
{
horizontal = 1;
place = (668,8);
type = Stem;
},
{
place = (109,108);
type = Stem;
},
{
place = (508,10);
type = Stem;
},
{
place = (602,10);
type = Stem;
},
{
place = (622,10);
type = Stem;
}
);
layerId = "2CB89E61-3CCE-4A23-82C8-7DCD997832E5";
shapes = (
{
closed = 1;
nodes = (
(217,676,l),
(2,676,l),
(2,668,l),
(82,668,o),
(109,639,o),
(109,581,cs),
(109,95,ls),
(109,37,o),
(82,8,o),
(2,8,c),
(2,0,l),
(217,0,l)
);
},
{
closed = 1;
nodes = (
(341,667,ls),
(499,667,o),
(602,507,o),
(602,408,c),
(612,408,l),
(612,489,ls),
(612,641,o),
(500,670,o),
(326,667,c)
);
},
{
closed = 1;
nodes = (
(326,334,l),
(326,328,l),
(341,328,ls),
(412,328,o),
(508,288,o),
(508,218,cs),
(508,210,l),
(518,210,l),
(518,334,l)
);
},
{
closed = 1;
nodes = (
(326,9,l),
(500,6,o),
(632,39,o),
(632,191,cs),
(632,272,l),
(622,272,l),
(622,173,o),
(499,9,o),
(341,9,cs)
);
}
);
width = 664;
}
);
unicode = 69;
},
{
glyphname = F;
layers = (
{
hints = (
{
horizontal = 1;
place = (0,8);
type = Stem;
},
{
horizontal = 1;
place = (169,123);
type = Stem;
},
{
horizontal = 1;
place = (668,8);
type = Stem;
},
{
place = (109,108);
type = Stem;
},
{
place = (508,10);
type = Stem;
},
{
place = (602,10);
type = Stem;
}
);
layerId = "2CB89E61-3CCE-4A23-82C8-7DCD997832E5";
shapes = (
{
closed = 1;
nodes = (
(217,676,l),
(2,676,l),
(2,668,l),
(82,668,o),
(109,639,o),
(109,581,cs),
(109,95,ls),
(109,37,o),
(82,8,o),
(2,8,c),
(2,0,l),
(217,0,l)
);
},
{
closed = 1;
nodes = (
(341,667,ls),
(499,667,o),
(600,507,o),
(602,408,c),
(612,408,l),
(612,489,ls),
(612,641,o),
(500,670,o),
(326,667,c)
);
},
{
closed = 1;
nodes = (
(336,287,ls),
(424,287,o),
(508,242,o),
(508,176,cs),
(508,169,l),
(518,169,l),
(518,292,l),
(326,292,l),
(326,287,l)
);
}
);
width = 659;
}
);
unicode = 70;
},
{
glyphname = G;
layers = (
{
hints = (
{
horizontal = 1;
place = (-12,15);
type = Stem;
},
{
horizontal = 1;
place = (-12,21);
target = up;
type = BottomGhost;
},
{
horizontal = 1;
place = (330,8);
type = Stem;
},
{
horizontal = 1;
place = (679,-20);
target = down;
type = TopGhost;
},
{
horizontal = 1;
place = (679,7);
type = Stem;
},
{
horizontal = 1;
place = (686,-20);
target = down;
type = TopGhost;
},
{
place = (15,128);
type = Stem;
},
{
place = (493,105);
type = Stem;
},
{
place = (659,9);
type = Stem;
}
);
layerId = "2CB89E61-3CCE-4A23-82C8-7DCD997832E5";
shapes = (
{
closed = 1;
nodes = (
(174,675,o),
(15,533,o),
(15,339,cs),
(15,116,o),
(165,-12,o),
(371,-12,c),
(242,-12,o),
(143,103,o),
(143,354,cs),
(143,501,o),
(196,656,o),
(370,686,c)
);
},
{
closed = 1;
nodes = (
(505,674,o),
(635,519,o),
(659,403,c),
(668,403,l),
(668,508,l),
(632,607,o),
(516,677,o),
(412,679,c)
);
},
{
closed = 1;
nodes = (
(493,90,ls),
(493,31,o),
(489,3,o),
(430,3,c),
(502,1,o),
(598,41,o),
(598,150,cs),
(598,338,l),
(401,338,l),
(401,330,l),
(469,330,o),
(493,301,o),
(493,243,cs)
);
}
);
width = 775;
}
);
leftKerningGroup = C;
unicode = 71;
},
{
glyphname = H;
layers = (
{
hints = (
{
horizontal = 1;
place = (0,8);
type = Stem;
},
{
horizontal = 1;
place = (321,11);
type = Stem;
},
{
horizontal = 1;
place = (668,8);
type = Stem;
},
{
place = (109,108);
type = Stem;
},
{
place = (547,108);
type = Stem;
}
);
layerId = "2CB89E61-3CCE-4A23-82C8-7DCD997832E5";
shapes = (
{
closed = 1;
nodes = (
(109,95,ls),
(109,37,o),
(82,8,o),
(2,8,c),
(2,0,l),
(217,0,l),
(217,676,l),
(2,676,l),
(2,668,l),
(82,668,o),
(109,639,o),
(109,581,cs)
);
},
{
closed = 1;
nodes = (
(547,95,ls),
(547,37,o),
(520,8,o),
(440,8,c),
(440,0,l),
(655,0,l),
(655,676,l),
(440,676,l),
(440,668,l),
(520,668,o),
(547,639,o),
(547,581,cs),
(547,332,l),
(326,332,l),
(326,321,l),
(547,321,l)
);
}
);
width = 872;
}
);
unicode = 72;
},
{
glyphname = I;
layers = (
{
hints = (
{
horizontal = 1;
place = (0,8);
type = Stem;
},
{
horizontal = 1;
place = (668,8);
type = Stem;
},
{
place = (109,108);
type = Stem;
}
);
layerId = "2CB89E61-3CCE-4A23-82C8-7DCD997832E5";
shapes = (
{
closed = 1;
nodes = (
(217,676,l),
(2,676,l),
(2,668,l),
(82,668,o),
(109,639,o),
(109,581,cs),
(109,95,ls),
(109,37,o),
(82,8,o),
(2,8,c),
(2,0,l),
(217,0,l)
);
}
);
width = 435;
}
);
unicode = 73;
},
{
glyphname = J;
layers = (
{
hints = (
{
horizontal = 1;
place = (-12,11);
type = Stem;
},
{
horizontal = 1;
place = (-1,21);
target = up;
type = BottomGhost;
},
{
horizontal = 1;
place = (668,8);
type = Stem;
},
{
place = (5,78);
type = Stem;
},
{
place = (274,108);
type = Stem;
}
);
layerId = "2CB89E61-3CCE-4A23-82C8-7DCD997832E5";
shapes = (
{
closed = 1;
nodes = (
(382,676,l),
(146,676,l),
(146,668,l),
(226,668,o),
(274,636,o),
(274,563,cs),
(274,102,ls),
(274,48,o),
(256,-1,o),
(204,-1,c),
(350,-5,o),
(382,126,o),
(382,263,cs)
);
},
{
closed = 1;
nodes = (
(83,100,o),
(148,116,o),
(148,171,cs),
(148,194,o),
(134,209,o),
(106,209,cs),
(41,209,o),
(5,168,o),
(5,108,cs),
(5,47,o),
(47,-12,o),
(207,-12,c),
(139,-2,o),
(83,16,o),
(83,65,cs)
);
}
);
width = 598;
}
);
unicode = 74;
},
{
glyphname = K;
layers = (
{
hints = (
{
horizontal = 1;
place = (0,8);
type = Stem;
},
{
horizontal = 1;
place = (668,8);
type = Stem;
},
{
place = (109,111);
type = Stem;
},
{
place = (565,68);
type = Stem;
}
);
layerId = "2CB89E61-3CCE-4A23-82C8-7DCD997832E5";
shapes = (
{
closed = 1;
nodes = (
(2,676,l),
(2,668,l),
(82,668,o),
(109,639,o),
(109,581,cs),
(109,95,ls),
(109,37,o),
(82,8,o),
(2,8,c),
(2,0,l),
(220,0,l),
(220,676,l)
);
},
{
closed = 1;
nodes = (
(508,676,l),
(508,668,l),
(622,668,o),
(539,502,o),
(491,451,cs),
(326,274,l),
(326,260,l),
(378,316,l),
(506,74,ls),
(518,51,o),
(529,8,o),
(488,8,c),
(488,0,l),
(682,0,l),
(455,398,l),
(538,487,ls),
(578,530,o),
(627,613,o),
(633,676,c)
);
}
);
width = 801;
}
);
unicode = 75;
},
{
glyphname = L;
layers = (
{
hints = (
{
horizontal = 1;
place = (0,8);
type = Stem;
},
{
horizontal = 1;
place = (668,8);
type = Stem;
},
{
place = (109,106);
type = Stem;
},
{
place = (608,10);
type = Stem;
}
);
layerId = "2CB89E61-3CCE-4A23-82C8-7DCD997832E5";
shapes = (
{
closed = 1;
nodes = (
(2,668,l),
(82,668,o),
(109,639,o),
(109,581,cs),
(109,95,ls),
(109,37,o),
(82,8,o),
(2,8,c),
(2,0,l),
(215,0,l),
(215,676,l),
(2,676,l)
);
},
{
closed = 1;
nodes = (
(504,4,o),
(618,75,o),
(618,227,cs),
(618,308,l),
(608,308,l),
(608,212,o),
(492,9,o),
(326,9,c)
);
}
);
width = 643;
}
);
rightKerningGroup = L;
unicode = 76;
},
{
glyphname = M;
layers = (
{
hints = (
{
horizontal = 1;
place = (0,8);
type = Stem;
},
{
horizontal = 1;
place = (-15,21);
target = up;
type = BottomGhost;
},
{
horizontal = 1;
place = (668,8);
type = Stem;
},
{
place = (148,10);
type = Stem;
},
{
place = (702,108);
type = Stem;
}
);
layerId = "2CB89E61-3CCE-4A23-82C8-7DCD997832E5";
shapes = (
{
closed = 1;
nodes = (
(442,-15,l),
(455,-15,l),
(702,644,l),
(702,95,ls),
(702,37,o),
(675,8,o),
(595,8,c),
(595,0,l),
(810,0,l),
(810,676,l),
(702,676,l),
(507,149,ls),
(502,137,o),
(497,146,o),
(494,155,c),
(260,676,l),
(0,676,l),
(0,668,l),
(78,668,o),
(119,663,o),
(148,638,c),
(148,296,ls),
(148,162,o),
(151,8,o),
(0,8,c),
(0,0,l),
(198,0,l),
(164,0,o),
(158,212,o),
(158,364,cs),
(158,628,l),
(177,607,o),
(192,576,o),
(211,530,cs)
);
}
);
width = 1028;
}
);
unicode = 77;
},
{
glyphname = N;
layers = (
{
hints = (
{
horizontal = 1;
place = (0,8);
type = Stem;
},
{
horizontal = 1;
place = (668,8);
type = Stem;
},
{
place = (-20,660);
type = Stem;
},
{
place = (467,161);
type = Stem;
}
);
layerId = "2CB89E61-3CCE-4A23-82C8-7DCD997832E5";
shapes = (
{
closed = 1;
nodes = (
(510,0,l),
(638,0,l),
(638,26,l),
(180,676,l),
(-20,676,l),
(-20,668,l),
(66,668,o),
(111,594,o),
(152,530,c)
);
},
{
closed = 1;
nodes = (
(467,676,l),
(467,668,l),
(605,668,o),
(628,468,o),
(628,316,c),
(630,392,l),
(633,574,o),
(640,669,o),
(640,676,c)
);
},
{
closed = 1;
nodes = (
(138,227,o),
(141,8,o),
(-10,8,c),
(-10,0,l),
(159,0,l),
(141,33,o),
(143,220,o),
(138,361,c)
);
}
);
width = 754;
}
);
unicode = 78;
},
{
glyphname = O;
layers = (
{
hints = (
{
horizontal = 1;
place = (-4,21);
target = up;
type = BottomGhost;
},
{
horizontal = 1;
place = (-3,21);
target = up;
type = BottomGhost;
},
{
horizontal = 1;
place = (679,-20);
target = down;
type = TopGhost;
},
{
horizontal = 1;
place = (682,-20);
target = down;
type = TopGhost;
},
{
place = (15,124);
type = Stem;
},
{
place = (538,124);
type = Stem;
}
);
layerId = "2CB89E61-3CCE-4A23-82C8-7DCD997832E5";
shapes = (
{
closed = 1;
nodes = (
(139,493,o),
(180,631,o),
(320,682,c),
(168,656,o),
(15,550,o),
(15,339,cs),
(15,130,o),
(164,24,o),
(314,-4,c),
(179,49,o),
(139,186,o),
(139,339,cs)
);
},
{
closed = 1;
nodes = (
(538,159,o),
(509,2,o),
(407,-3,c),
(523,-2,o),
(662,92,o),
(662,339,cs),
(662,584,o),
(520,678,o),
(404,679,c),
(508,677,o),
(538,520,o),
(538,339,cs)
);
}
);
width = 800;
}
);
leftKerningGroup = C;
rightKerningGroup = B;
unicode = 79;
},
{
glyphname = P;
layers = (
{
hints = (
{
horizontal = 1;
place = (0,8);
type = Stem;
},
{
horizontal = 1;
place = (262,15);
type = Stem;
},
{
horizontal = 1;
place = (668,8);
type = Stem;
},
{
place = (109,108);
type = Stem;
},
{
place = (471,111);
type = Stem;
}
);
layerId = "2CB89E61-3CCE-4A23-82C8-7DCD997832E5";
shapes = (
{
closed = 1;
nodes = (
(109,95,ls),
(109,37,o),
(82,8,o),
(2,8,c),
(2,0,l),
(217,0,l),
(217,676,l),
(2,676,l),
(2,668,l),
(82,668,o),
(109,639,o),
(109,581,cs)
);
},
{
closed = 1;
nodes = (
(422,668,o),
(471,592,o),
(471,482,cs),
(471,382,o),
(431,268,o),
(360,277,c),
(360,267,l),
(381,264,o),
(402,262,o),
(425,262,cs),
(504,262,o),
(582,332,o),
(582,467,cs),
(582,578,o),
(526,676,o),
(345,668,c)
);
}
);
width = 681;
}
);
rightKerningGroup = B;
unicode = 80;
},
{
glyphname = Q;
layers = (
{
hints = (
{
horizontal = 1;
place = (-254,53);
type = Stem;
},
{
horizontal = 1;
place = (-4,21);
target = up;
type = BottomGhost;
},
{
horizontal = 1;
place = (-3,21);
target = up;
type = BottomGhost;
},
{
horizontal = 1;
place = (105,13);
type = Stem;
},
{
horizontal = 1;
place = (679,-20);
target = down;
type = TopGhost;
},
{
horizontal = 1;
place = (682,-20);
target = down;
type = TopGhost;
},
{
place = (15,124);
type = Stem;
},
{
place = (309,9);
type = Stem;
},
{
place = (538,124);
type = Stem;
}
);
layerId = "2CB89E61-3CCE-4A23-82C8-7DCD997832E5";
shapes = (
{
closed = 1;
nodes = (
(139,493,o),
(180,631,o),
(320,682,c),
(168,656,o),
(15,550,o),
(15,339,cs),
(15,130,o),
(164,24,o),
(314,-4,c),
(179,49,o),
(139,186,o),
(139,339,cs)
);
},
{
closed = 1;
nodes = (
(315,45,o),
(318,41,o),
(326,31,c),
(322,37,o),
(318,48,o),
(318,57,cs),
(318,72,o),
(326,105,o),
(383,105,cs),
(430,105,o),
(456,75,o),
(476,33,c),
(458,11,o),
(435,-2,o),
(407,-3,c),
(433,-3,o),
(459,2,o),
(485,12,c),
(499,-21,o),
(510,-58,o),
(526,-92,c),
(564,-180,o),
(629,-254,o),
(726,-254,cs),
(821,-254,o),
(897,-185,o),
(897,-100,c),
(895,-115,o),
(891,-130,o),
(886,-143,cs),
(871,-179,o),
(839,-205,o),
(774,-201,cs),
(658,-194,o),
(593,-61,o),
(526,32,c),
(601,79,o),
(662,175,o),
(662,339,cs),
(662,584,o),
(520,680,o),
(404,679,c),
(508,677,o),
(538,520,o),
(538,339,cs),
(538,231,o),
(528,132,o),
(497,68,c),
(466,98,o),
(433,118,o),
(394,118,cs),
(331,118,o),
(309,83,o),
(309,56,c)
);
}
);
width = 800;
}
);
leftKerningGroup = C;
rightKerningGroup = B;
unicode = 81;
},
{
glyphname = R;
layers = (
{
hints = (
{
horizontal = 1;
place = (0,8);
type = Stem;
},
{
horizontal = 1;
place = (307,10);
type = Stem;
},
{
horizontal = 1;
place = (668,8);
type = Stem;
},
{
place = (109,108);
type = Stem;
},
{
place = (353,46);
type = Stem;
},
{
place = (474,113);
type = Stem;
}
);
layerId = "2CB89E61-3CCE-4A23-82C8-7DCD997832E5";
shapes = (
{
closed = 1;
nodes = (
(217,676,l),
(2,676,l),
(2,668,l),
(82,668,o),
(109,639,o),
(109,581,cs),
(109,95,ls),
(109,37,o),
(82,8,o),
(2,8,c),
(2,0,l),
(217,0,l)
);
},
{
closed = 1;
nodes = (
(434,668,o),
(474,585,o),
(474,501,cs),
(474,410,o),
(428,318,o),
(353,317,c),
(353,307,l),
(434,307,o),
(436,99,o),
(504,0,c),
(713,0,l),
(615,10,o),
(588,111,o),
(544,187,cs),
(504,257,o),
(453,311,o),
(413,311,cs),
(391,311,o),
(397,312,o),
(412,314,cs),
(503,326,o),
(587,410,o),
(587,502,cs),
(587,652,o),
(419,672,o),
(344,668,c)
);
}
);
width = 733;
}
);
unicode = 82;
},
{
glyphname = S;
layers = (
{
hints = (
{
horizontal = 1;
place = (1,21);
target = up;
type = BottomGhost;
},
{
horizontal = 1;
place = (679,-20);
target = down;
type = TopGhost;
},
{
place = (35,9);
type = Stem;
},
{
place = (47,64);
type = Stem;
},
{
place = (412,89);
type = Stem;
},
{
place = (508,9);
type = Stem;
}
);
layerId = "2CB89E61-3CCE-4A23-82C8-7DCD997832E5";
shapes = (
{
closed = 1;
nodes = (
(405,672,o),
(481,576,o),
(508,461,c),
(517,461,l),
(517,532,ls),
(517,629,o),
(383,679,o),
(301,679,c)
);
},
{
closed = 1;
nodes = (
(444,16,o),
(501,74,o),
(501,157,cs),
(501,256,o),
(442,281,o),
(286,367,cs),
(214,407,o),
(111,457,o),
(111,547,cs),
(111,604,o),
(148,650,o),
(196,672,c),
(102,642,o),
(47,571,o),
(47,480,cs),
(47,358,o),
(130,315,o),
(272,238,cs),
(332,205,o),
(412,161,o),
(412,89,cs),
(412,45,o),
(389,14,o),
(343,3,c)
);
},
{
closed = 1;
nodes = (
(151,15,o),
(56,171,o),
(44,287,c),
(35,287,l),
(41,168,ls),
(46,78,o),
(169,4,o),
(278,1,c)
);
}
);
width = 568;
}
);
leftKerningGroup = S2;
rightKerningGroup = S;
unicode = 83;
},
{
glyphname = T;
layers = (
{
hints = (
{
horizontal = 1;
place = (0,8);
type = Stem;
},
{
horizontal = 1;
place = (676,-20);
target = down;
type = TopGhost;
},
{
place = (241,108);
type = Stem;
},
{
place = (659,10);
type = Stem;
}
);
layerId = "2CB89E61-3CCE-4A23-82C8-7DCD997832E5";
shapes = (
{
closed = 1;
nodes = (
(349,0,l),
(349,676,l),
(241,676,l),
(241,95,l),
(240,37,o),
(214,8,o),
(134,8,c),
(134,0,l)
);
},
{
closed = 1;
nodes = (
(30,676,l),
(30,443,l),
(31,459,o),
(33,476,o),
(35,493,cs),
(48,585,o),
(95,672,o),
(182,676,c)
);
},
{
closed = 1;
nodes = (
(669,373,l),
(669,487,ls),
(669,581,o),
(594,667,o),
(458,667,c),
(546,641,o),
(659,469,o),
(659,373,c)
);
}
);
width = 699;
}
);
unicode = 84;
},
{
glyphname = U;
layers = (
{
hints = (
{
horizontal = 1;
place = (-14,14);
type = Stem;
},
{
horizontal = 1;
place = (668,8);
type = Stem;
},
{
place = (84,110);
type = Stem;
},
{
place = (493,161);
type = Stem;
}
);
layerId = "2CB89E61-3CCE-4A23-82C8-7DCD997832E5";
shapes = (
{
closed = 1;
nodes = (
(654,676,l),
(493,676,l),
(493,668,l),
(631,668,o),
(651,468,o),
(654,316,c)
);
},
{
closed = 1;
nodes = (
(194,676,l),
(0,676,l),
(0,668,l),
(25,668,ls),
(54,668,o),
(84,647,o),
(84,597,cs),
(84,242,ls),
(84,84,o),
(175,-14,o),
(390,-14,cs),
(465,-14,o),
(526,2,o),
(571,34,c),
(538,12,o),
(492,0,o),
(443,0,cs),
(326,0,o),
(194,58,o),
(194,222,cs)
);
}
);
width = 736;
}
);
unicode = 85;
},
{
glyphname = V;
layers = (
{
hints = (
{
horizontal = 1;
place = (-7,21);
target = up;
type = BottomGhost;
},
{
horizontal = 1;
place = (668,8);
type = Stem;
},
{
place = (568,37);
type = Stem;
}
);
layerId = "2CB89E61-3CCE-4A23-82C8-7DCD997832E5";
shapes = (
{
closed = 1;
nodes = (
(482,676,l),
(482,668,l),
(578,668,o),
(590,555,o),
(537,410,c),
(598,546,o),
(616,631,o),
(601,676,c)
);
},
{
closed = 1;
nodes = (
(400,63,l),
(180,676,l),
(-15,676,l),
(-15,668,l),
(39,668,o),
(70,634,o),
(88,588,cs),
(312,-7,l),
(370,-7,l)
);
}
);
width = 696;
}
);
leftKerningGroup = V2;
rightKerningGroup = V;
unicode = 86;
},
{
glyphname = W;
layers = (
{
hints = (
{
horizontal = 1;
place = (-7,21);
target = up;
type = BottomGhost;
},
{
horizontal = 1;
place = (668,8);
type = Stem;
},
{
place = (981,37);
type = Stem;
}
);
layerId = "2CB89E61-3CCE-4A23-82C8-7DCD997832E5";
shapes = (
{
closed = 1;
nodes = (
(400,63,l),
(180,676,l),
(-15,676,l),
(-15,668,l),
(39,668,o),
(70,634,o),
(88,588,cs),
(312,-7,l),
(370,-7,l)
);
},
{
closed = 1;
nodes = (
(895,676,l),
(895,668,l),
(991,668,o),
(1003,555,o),
(950,410,c),
(1003,546,o),
(1029,631,o),
(1014,676,c)
);
},
{
closed = 1;
nodes = (
(813,63,l),
(593,676,l),
(398,676,l),
(398,668,l),
(452,668,o),
(484,634,o),
(501,588,cs),
(725,-7,l),
(783,-7,l)
);
}
);
width = 1109;
}
);
leftKerningGroup = V2;
rightKerningGroup = V;
unicode = 87;
},
{
glyphname = X;
layers = (
{
hints = (
{
horizontal = 1;
place = (0,8);
type = Stem;
},
{
horizontal = 1;
place = (668,8);
type = Stem;
},
{
place = (-24,116);
type = Stem;
},
{
place = (490,50);
type = Stem;
}
);
layerId = "2CB89E61-3CCE-4A23-82C8-7DCD997832E5";
shapes = (
{
closed = 1;
nodes = (
(411,676,l),
(411,668,l),
(523,668,o),
(496,528,o),
(450,453,cs),
(423,409,l),
(452,449,o),
(556,613,o),
(540,676,c)
);
},
{
closed = 1;
nodes = (
(-35,668,l),
(5,668,o),
(36,641,o),
(55,609,cs),
(358,92,ls),
(381,53,o),
(385,8,o),
(328,8,c),
(328,0,l),
(538,0,l),
(142,676,l),
(-35,676,l)
);
},
{
closed = 1;
nodes = (
(-24,0,l),
(97,0,l),
(69,65,o),
(176,184,o),
(205,244,c),
(176,196,o),
(43,8,o),
(-24,8,c)
);
}
);
width = 692;
}
);
unicode = 88;
},
{
glyphname = Y;
layers = (
{
hints = (
{
horizontal = 1;
place = (0,8);
type = Stem;
},
{
horizontal = 1;
place = (668,8);
type = Stem;
},
{
place = (243,108);
type = Stem;
},
{
place = (547,58);
type = Stem;
}
);
layerId = "2CB89E61-3CCE-4A23-82C8-7DCD997832E5";
shapes = (
{
closed = 1;
nodes = (
(175,676,l),
(-21,676,l),
(-21,668,l),
(37,668,o),
(64,644,o),
(82,609,cs),
(243,307,l),
(243,95,ls),
(243,37,o),
(216,8,o),
(136,8,c),
(136,0,l),
(351,0,l),
(351,327,l)
);
},
{
closed = 1;
nodes = (
(457,676,l),
(457,668,l),
(629,668,o),
(512,439,o),
(454,356,c),
(503,416,o),
(601,595,o),
(605,676,c)
);
}
);
width = 684;
}
);
unicode = 89;
},
{
glyphname = Z;
layers = (
{
hints = (
{
horizontal = 1;
place = (0,21);
target = up;
type = BottomGhost;
},
{
horizontal = 1;
place = (676,-20);
target = down;
type = TopGhost;
},
{
place = (589,10);
type = Stem;
}
);
layerId = "2CB89E61-3CCE-4A23-82C8-7DCD997832E5";
shapes = (
{
closed = 1;
nodes = (
(137,0,l),
(506,676,l),
(390,676,l),
(21,0,l)
);
},
{
closed = 1;
nodes = (
(59,676,l),
(59,473,l),
(62,581,o),
(99,671,o),
(202,676,c)
);
},
{
closed = 1;
nodes = (
(293,9,l),
(467,6,o),
(599,39,o),
(599,191,cs),
(599,272,l),
(589,272,l),
(589,173,o),
(466,9,o),
(308,9,cs)
);
}
);
width = 657;
}
);
unicode = 90;
},
{
glyphname = period;
layers = (
{
hints = (
{
horizontal = 1;
place = (-9,60);
type = Stem;
},
{
place = (40,220);
type = Stem;
}
);
layerId = "2CB89E61-3CCE-4A23-82C8-7DCD997832E5";
shapes = (
{
closed = 1;
nodes = (
(260,110,o),
(243,124,o),
(224,124,cs),
(172,124,o),
(162,51,o),
(91,51,cs),
(68,51,o),
(43,61,o),
(40,89,c),
(40,34,o),
(88,-9,o),
(150,-9,cs),
(212,-9,o),
(260,34,o),
(260,89,cs)
);
}
);
width = 300;
}
);
unicode = 46;
},
{
glyphname = R.alt;
layers = (
{
hints = (
{
horizontal = 1;
place = (-11,40);
type = Stem;
},
{
horizontal = 1;
place = (0,8);
type = Stem;
},
{
horizontal = 1;
place = (307,10);
type = Stem;
},
{
horizontal = 1;
place = (668,8);
type = Stem;
},
{
place = (109,108);
type = Stem;
},
{
place = (360,74);
type = Stem;
},
{
place = (474,117);
type = Stem;
}
);
layerId = "2CB89E61-3CCE-4A23-82C8-7DCD997832E5";
shapes = (
{
closed = 1;
nodes = (
(217,676,l),
(2,676,l),
(2,668,l),
(82,668,o),
(109,639,o),
(109,581,cs),
(109,95,ls),
(109,37,o),
(82,8,o),
(2,8,c),
(2,0,l),
(217,0,l)
);
},
{
closed = 1;
nodes = (
(591,665,o),
(471,671,o),
(344,668,c),
(434,668,o),
(474,585,o),
(474,501,cs),
(474,410,o),
(435,318,o),
(360,317,c),
(360,307,l),
(409,307,o),
(419,280,o),
(444,150,c),
(466,42,o),
(529,-11,o),
(633,-11,cs),
(705,-11,o),
(774,30,o),
(800,57,c),
(795,63,l),
(776,44,o),
(763,29,o),
(728,29,cs),
(664,29,o),
(616,65,o),
(581,155,cs),
(536,270,o),
(530,316,o),
(463,316,cs),
(436,316,o),
(421,324,o),
(447,326,c),
(528,339,o),
(591,398,o),
(591,502,cs)
);
}
);
width = 733;
}
);
},
{
glyphname = exclam;
layers = (
{
hints = (
{
horizontal = 1;
place = (-9,60);
type = Stem;
},
{
place = (54,106);
type = Stem;
}
);
layerId = "2CB89E61-3CCE-4A23-82C8-7DCD997832E5";
shapes = (
{
closed = 1;
nodes = (
(54,499,o),
(156,389,o),
(156,217,c),
(160,217,l),
(160,740,l),
(101,740,o),
(54,693,o),
(54,634,cs)
);
},
{
closed = 1;
nodes = (
(270,110,o),
(253,124,o),
(234,124,cs),
(182,124,o),
(172,51,o),
(101,51,cs),
(78,51,o),
(53,61,o),
(50,89,c),
(50,34,o),
(98,-9,o),
(160,-9,cs),
(222,-9,o),
(270,34,o),
(270,89,cs)
);
}
);
width = 320;
}
);
unicode = 33;
},
{
glyphname = question;
layers = (
{
hints = (
{
horizontal = 1;
place = (-9,60);
type = Stem;
},
{
horizontal = 1;
place = (447,58);
type = Stem;
},
{
place = (30,12);
type = Stem;
},
{
place = (358,112);
type = Stem;
}
);
layerId = "2CB89E61-3CCE-4A23-82C8-7DCD997832E5";
shapes = (
{
closed = 1;
nodes = (
(321,722,o),
(358,655,o),
(358,573,cs),
(358,441,o),
(241,350,o),
(246,217,c),
(255,217,l),
(248,420,o),
(470,365,o),
(470,567,cs),
(470,703,o),
(313,732,o),
(223,722,c)
);
},
{
closed = 1;
nodes = (
(205,447,o),
(237,489,o),
(237,533,cs),
(237,558,o),
(218,578,o),
(190,578,cs),
(136,578,o),
(141,505,o),
(84,505,cs),
(59,505,o),
(42,540,o),
(42,572,cs),
(42,637,o),
(87,679,o),
(120,700,c),
(73,674,o),
(30,634,o),
(30,559,cs),
(30,507,o),
(62,447,o),
(143,447,cs)
);
},
{
closed = 1;
nodes = (
(368,110,o),
(351,124,o),
(332,124,cs),
(280,124,o),
(270,51,o),
(199,51,cs),
(176,51,o),
(151,61,o),
(148,89,c),
(148,34,o),
(196,-9,o),
(258,-9,cs),
(320,-9,o),
(368,34,o),
(368,89,cs)
);
}
);
width = 602;
}
);
unicode = 63;
},
{
glyphname = quotesingle;
layers = (
{
hints = (
{
horizontal = 1;
place = (706,67);
type = Stem;
},
{
place = (248,21);
type = Stem;
}
);
layerId = "2CB89E61-3CCE-4A23-82C8-7DCD997832E5";
shapes = (
{
closed = 1;
nodes = (
(226,490,o),
(269,565,o),
(269,640,cs),
(269,721,o),
(215,773,o),
(145,773,cs),
(75,773,o),
(41,727,o),
(41,682,cs),
(41,659,o),
(58,636,o),
(88,636,cs),
(153,636,o),
(129,706,o),
(194,706,cs),
(262,706,o),
(286,533,o),
(145,452,c)
);
}
);
width = 282;
}
);
unicode = 39;
},
{
glyphname = quotedbl;
layers = (
{
hints = (
{
horizontal = 1;
place = (706,67);
type = Stem;
},
{
place = (248,21);
type = Stem;
},
{
place = (508,21);
type = Stem;
}
);
layerId = "2CB89E61-3CCE-4A23-82C8-7DCD997832E5";
shapes = (
{
closed = 1;
nodes = (
(226,490,o),
(269,565,o),
(269,640,cs),
(269,721,o),
(215,773,o),
(145,773,cs),
(75,773,o),
(41,727,o),
(41,682,cs),
(41,659,o),
(58,636,o),
(88,636,cs),
(153,636,o),
(129,706,o),
(194,706,cs),
(262,706,o),
(286,533,o),
(145,452,c)
);
},
{
closed = 1;
nodes = (
(486,490,o),
(529,565,o),
(529,640,cs),
(529,721,o),
(475,773,o),
(405,773,cs),
(335,773,o),
(301,727,o),
(301,682,cs),
(301,659,o),
(318,636,o),
(348,636,cs),
(413,636,o),
(389,706,o),
(454,706,cs),
(522,706,o),
(546,533,o),
(405,452,c)
);
}
);
width = 555;
}
);
unicode = 34;
},
{
glyphname = numbersign;
layers = (
{
hints = (
{
horizontal = 1;
place = (167,11);
type = Stem;
},
{
horizontal = 1;
place = (335,12);
type = Stem;
},
{
place = (87,481);
type = Stem;
}
);
layerId = "2CB89E61-3CCE-4A23-82C8-7DCD997832E5";
shapes = (
{
closed = 1;
nodes = (
(456,489,l),
(445,489,l),
(420,347,l),
(269,347,l),
(294,489,l),
(282,489,l),
(257,347,l),
(87,347,l),
(87,335,l),
(256,335,l),
(228,178,l),
(87,178,l),
(87,167,l),
(225,167,l),
(198,8,l),
(209,8,l),
(237,167,l),
(388,167,l),
(360,8,l),
(372,8,l),
(399,167,l),
(568,167,l),
(568,178,l),
(401,178,l),
(429,335,l),
(568,335,l),
(568,347,l),
(431,347,l)
);
},
{
closed = 1;
nodes = (
(266,335,l),
(418,335,l),
(391,178,l),
(239,178,l)
);
}
);
width = 654;
}
);
unicode = 35;
},
{
glyphname = at;
layers = (
{
hints = (
{
horizontal = 1;
place = (-69,8);
type = Stem;
},
{
horizontal = 1;
place = (-8,21);
target = up;
type = BottomGhost;
},
{
horizontal = 1;
place = (122,21);
type = Stem;
},
{
horizontal = 1;
place = (693,8);
type = Stem;
},
{
place = (50,8);
type = Stem;
},
{
place = (225,83);
type = Stem;
},
{
place = (458,68);
type = Stem;
},
{
place = (797,8);
type = Stem;
}
);
layerId = "2CB89E61-3CCE-4A23-82C8-7DCD997832E5";
shapes = (
{
closed = 1;
nodes = (
(470,480,l),
(462,444,l),
(458,444,l),
(458,242,l),
(460,242,l),
(461,175,o),
(525,122,o),
(612,122,cs),
(736,122,o),
(805,229,o),
(805,350,cs),
(805,538,o),
(638,701,o),
(435,701,cs),
(223,701,o),
(50,528,o),
(50,316,cs),
(50,104,o),
(223,-69,o),
(435,-69,cs),
(511,-69,o),
(583,-47,o),
(643,-8,c),
(636,-3,l),
(578,-40,o),
(509,-61,o),
(435,-61,cs),
(227,-61,o),
(58,108,o),
(58,316,cs),
(58,524,o),
(227,693,o),
(435,693,cs),
(634,693,o),
(797,534,o),
(797,348,cs),
(797,222,o),
(722,143,o),
(658,143,cs),
(581,143,o),
(526,171,o),
(526,285,cs),
(526,480,l)
);
},
{
closed = 1;
nodes = (
(308,135,o),
(308,247,o),
(308,315,cs),
(308,387,o),
(317,490,o),
(397,490,c),
(294,490,o),
(225,409,o),
(225,298,cs),
(225,200,o),
(279,132,o),
(358,132,c)
);
}
);
width = 855;
}
);
unicode = 64;
},
{
glyphname = dollar;
layers = (
{
hints = (
{
horizontal = 1;
place = (24,7);
type = Stem;
},
{
horizontal = 1;
place = (143,148);
type = Stem;
},
{
horizontal = 1;
place = (635,7);
type = Stem;
},
{
place = (43,39);
type = Stem;
},
{
place = (79,59);
type = Stem;
},
{
place = (283,10);
type = Stem;
},
{
place = (391,71);
type = Stem;
},
{
place = (447,9);
type = Stem;
}
);
layerId = "2CB89E61-3CCE-4A23-82C8-7DCD997832E5";
shapes = (
{
closed = 1;
nodes = (
(195,429,o),
(138,484,o),
(138,547,cs),
(138,608,o),
(218,640,o),
(283,641,c),
(283,489,l),
(293,483,l),
(293,635,l),
(357,632,o),
(422,596,o),
(442,514,cs),
(446,498,o),
(448,479,o),
(447,458,c),
(456,458,l),
(456,528,ls),
(456,597,o),
(356,636,o),
(293,636,c),
(293,746,l),
(283,746,l),
(283,642,l),
(160,642,o),
(79,564,o),
(79,482,cs),
(79,406,o),
(129,361,o),
(238,299,cs),
(254,290,o),
(269,281,o),
(283,273,c),
(283,32,l),
(276,31,o),
(268,31,o),
(260,31,cs),
(154,31,o),
(84,104,o),
(82,159,c),
(98,148,o),
(119,143,o),
(139,143,cs),
(181,143,o),
(220,166,o),
(220,216,cs),
(220,259,o),
(191,291,o),
(140,291,cs),
(84,291,o),
(46,251,o),
(43,200,cs),
(39,115,o),
(116,24,o),
(260,24,cs),
(268,24,o),
(275,24,o),
(283,25,c),
(283,-101,l),
(293,-101,l),
(293,26,l),
(393,37,o),
(462,95,o),
(462,182,cs),
(462,263,o),
(426,301,o),
(294,374,cs)
);
},
{
closed = 1;
nodes = (
(391,82,o),
(358,43,o),
(293,33,c),
(293,267,l),
(351,233,o),
(391,201,o),
(391,141,cs)
);
}
);
width = 573;
}
);
unicode = 36;
},
{
glyphname = Euro;
layers = (
{
hints = (
{
horizontal = 1;
place = (37,26);
type = Stem;
},
{
horizontal = 1;
place = (281,13);
type = Stem;
},
{
horizontal = 1;
place = (366,13);
type = Stem;
},
{
horizontal = 1;
place = (632,8);
type = Stem;
},
{
place = (61,107);
type = Stem;
},
{
place = (576,10);
type = Stem;
}
);
layerId = "2CB89E61-3CCE-4A23-82C8-7DCD997832E5";
shapes = (
{
closed = 1;
nodes = (
(227,641,o),
(86,534,o),
(64,379,c),
(6,379,l),
(6,366,l),
(62,366,l),
(61,356,o),
(61,346,o),
(61,336,cs),
(61,322,o),
(62,308,o),
(64,294,c),
(6,294,l),
(6,281,l),
(66,281,l),
(90,148,o),
(200,37,o),
(372,37,cs),
(493,37,o),
(573,92,o),
(598,174,c),
(590,174,l),
(558,94,o),
(504,63,o),
(421,63,cs),
(266,63,o),
(168,130,o),
(168,358,cs),
(168,565,o),
(271,638,o),
(399,641,c)
);
},
{
closed = 1;
nodes = (
(576,452,ls),
(576,447,o),
(578,445,o),
(581,445,c),
(583,445,o),
(586,447,o),
(586,452,cs),
(586,545,ls),
(586,590,o),
(489,629,o),
(428,633,c),
(430,632,l),
(501,625,o),
(576,570,o),
(576,459,cs)
);
},
{
closed = 1;
nodes = (
(275,366,l),
(472,366,l),
(472,379,l),
(275,379,l)
);
},
{
closed = 1;
nodes = (
(278,281,l),
(472,281,l),
(472,294,l),
(277,294,l)
);
}
);
width = 668;
}
);
unicode = 8364;
},
{
glyphname = percent;
layers = (
{
hints = (
{
horizontal = 1;
place = (92,234);
type = Stem;
},
{
horizontal = 1;
place = (439,7);
type = Stem;
},
{
horizontal = 1;
place = (566,8);
type = Stem;
},
{
place = (36,43);
type = Stem;
},
{
place = (214,44);
type = Stem;
},
{
place = (293,43);
type = Stem;
},
{
place = (471,44);
type = Stem;
}
);
layerId = "2CB89E61-3CCE-4A23-82C8-7DCD997832E5";
shapes = (
{
closed = 1;
nodes = (
(462,547,l),
(408,485,o),
(360,456,o),
(301,447,c),
(299,437,l),
(331,440,o),
(362,447,o),
(391,459,c),
(88,88,l),
(97,88,l),
(406,467,l),
(448,487,o),
(484,519,o),
(510,562,cs),
(531,596,o),
(505,600,o),
(494,586,cs)
);
},
{
closed = 1;
nodes = (
(36,391,o),
(96,340,o),
(169,340,cs),
(218,340,o),
(258,391,o),
(258,457,cs),
(258,521,o),
(218,574,o),
(169,574,cs),
(96,574,o),
(36,521,o),
(36,457,cs)
);
},
{
closed = 1;
nodes = (
(200,568,o),
(214,515,o),
(214,461,cs),
(214,456,o),
(214,451,o),
(214,446,c),
(149,454,o),
(131,482,o),
(130,508,c),
(130,539,o),
(152,568,o),
(169,568,cs)
);
},
{
closed = 1;
nodes = (
(210,390,o),
(195,346,o),
(169,346,cs),
(108,346,o),
(79,402,o),
(79,458,cs),
(79,507,o),
(102,556,o),
(150,566,c),
(136,555,o),
(124,532,o),
(124,509,cs),
(124,479,o),
(144,448,o),
(213,439,c)
);
},
{
closed = 1;
nodes = (
(293,143,o),
(353,92,o),
(426,92,cs),
(475,92,o),
(515,143,o),
(515,209,cs),
(515,273,o),
(475,326,o),
(426,326,cs),
(353,326,o),
(293,273,o),
(293,209,cs)
);
},
{
closed = 1;
nodes = (
(457,320,o),
(471,267,o),
(471,213,cs),
(471,156,o),
(456,98,o),
(426,98,cs),
(365,98,o),
(336,154,o),
(336,210,cs),
(336,265,o),
(365,320,o),
(426,320,cs)
);
}
);
width = 599;
}
);
unicode = 37;
},
{
glyphname = ampersand;
layers = (
{
hints = (
{
horizontal = 1;
place = (-9,45);
type = Stem;
},
{
horizontal = 1;
place = (-9,82);
type = Stem;
},
{
horizontal = 1;
place = (461,22);
type = Stem;
},
{
horizontal = 1;
place = (672,11);
type = Stem;
},
{
place = (40,78);
type = Stem;
},
{
place = (210,78);
type = Stem;
},
{
place = (531,33);
type = Stem;
},
{
place = (818,77);
type = Stem;
},
{
place = (852,8);
type = Stem;
}
);
layerId = "2CB89E61-3CCE-4A23-82C8-7DCD997832E5";
shapes = (
{
closed = 1;
nodes = (
(331,683,o),
(210,633,o),
(210,505,cs),
(210,402,o),
(291,306,o),
(349,232,cs),
(388,182,o),
(421,141,o),
(451,108,c),
(403,51,o),
(350,36,o),
(300,36,cs),
(194,36,o),
(118,137,o),
(118,243,cs),
(118,288,o),
(138,325,o),
(164,353,c),
(93,311,o),
(40,247,o),
(40,164,cs),
(40,48,o),
(142,-9,o),
(245,-9,cs),
(308,-9,o),
(392,21,o),
(459,99,c),
(531,22,o),
(586,-9,o),
(663,-9,cs),
(795,-9,o),
(862,140,o),
(860,220,c),
(852,220,l),
(840,151,o),
(804,73,o),
(707,73,cs),
(648,73,o),
(534,141,o),
(434,288,cs),
(393,348,o),
(288,481,o),
(288,556,cs),
(288,660,o),
(383,680,o),
(429,683,c)
);
},
{
closed = 1;
nodes = (
(472,447,l),
(539,470,o),
(564,513,o),
(564,569,cs),
(564,643,o),
(508,674,o),
(445,672,c),
(507,672,o),
(531,625,o),
(531,564,cs),
(531,493,o),
(497,462,o),
(472,448,c)
);
},
{
closed = 1;
nodes = (
(793,461,o),
(818,441,o),
(818,410,cs),
(818,354,o),
(740,354,o),
(740,295,cs),
(740,260,o),
(768,242,o),
(788,242,cs),
(841,242,o),
(895,279,o),
(895,355,cs),
(895,427,o),
(839,483,o),
(753,483,cs),
(660,483,o),
(587,421,o),
(548,315,c),
(586,397,o),
(645,461,o),
(745,461,cs)
);
}
);
width = 909;
}
);
unicode = 38;
},
{
glyphname = parenleft;
layers = (
{
hints = (
{
horizontal = 1;
place = (-44,760);
type = Stem;
},
{
place = (50,90);
type = Stem;
}
);
layerId = "2CB89E61-3CCE-4A23-82C8-7DCD997832E5";
shapes = (
{
closed = 1;
nodes = (
(50,120,o),
(197,-2,o),
(368,-44,c),
(370,-36,l),
(234,5,o),
(140,115,o),
(140,336,cs),
(140,557,o),
(234,667,o),
(370,708,c),
(368,716,l),
(197,674,o),
(50,552,o),
(50,336,cs)
);
}
);
width = 450;
}
);
unicode = 40;
},
{
glyphname = parenright;
layers = (
{
hints = (
{
horizontal = 1;
place = (-44,760);
type = Stem;
},
{
place = (310,90);
type = Stem;
}
);
layerId = "2CB89E61-3CCE-4A23-82C8-7DCD997832E5";
shapes = (
{
closed = 1;
nodes = (
(400,552,o),
(253,674,o),
(82,716,c),
(80,708,l),
(218,667,o),
(310,557,o),
(310,336,cs),
(310,115,o),
(218,5,o),
(80,-36,c),
(82,-44,l),
(253,-2,o),
(400,120,o),
(400,336,cs)
);
}
);
width = 450;
}
);
unicode = 41;
},
{
glyphname = braceleft;
layers = (
{
hints = (
{
horizontal = 1;
place = (326,12);
type = Stem;
},
{
place = (60,77);
type = Stem;
},
{
place = (131,82);
type = Stem;
}
);
layerId = "2CB89E61-3CCE-4A23-82C8-7DCD997832E5";
shapes = (
{
closed = 1;
nodes = (
(214,289,o),
(187,325,o),
(170,328,c),
(170,336,l),
(187,339,o),
(213,374,o),
(213,425,cs),
(213,501,o),
(138,542,o),
(138,614,cs),
(138,697,o),
(218,711,o),
(278,716,c),
(111,716,o),
(60,621,o),
(60,553,cs),
(60,473,o),
(131,425,o),
(131,385,cs),
(131,356,o),
(95,338,o),
(64,338,c),
(64,326,l),
(95,326,o),
(131,308,o),
(131,279,cs),
(131,239,o),
(60,191,o),
(60,111,cs),
(60,43,o),
(111,-52,o),
(278,-52,c),
(217,-47,o),
(137,-32,o),
(137,51,cs),
(137,120,o),
(214,168,o),
(214,241,cs)
);
}
);
width = 417;
}
);
unicode = 123;
},
{
glyphname = bar;
layers = (
{
hints = (
{
horizontal = 1;
place = (-214,946);
type = Stem;
},
{
place = (150,15);
type = Stem;
}
);
layerId = "2CB89E61-3CCE-4A23-82C8-7DCD997832E5";
shapes = (
{
closed = 1;
nodes = (
(150,-214,l),
(165,-214,l),
(165,732,l),
(150,732,l)
);
}
);
width = 315;
}
);
unicode = 124;
},
{
glyphname = braceright;
layers = (
{
hints = (
{
horizontal = 1;
place = (326,12);
type = Stem;
},
{
place = (115,92);
type = Stem;
},
{
place = (186,82);
type = Stem;
},
{
place = (247,43);
type = Stem;
}
);
layerId = "2CB89E61-3CCE-4A23-82C8-7DCD997832E5";
shapes = (
{
closed = 1;
nodes = (
(268,190,o),
(207,238,o),
(207,278,cs),
(207,308,o),
(252,326,o),
(290,326,c),
(290,338,l),
(252,338,o),
(207,356,o),
(207,384,cs),
(207,424,o),
(268,472,o),
(268,552,cs),
(268,621,o),
(210,705,o),
(110,705,c),
(160,701,o),
(186,673,o),
(186,636,cs),
(186,574,o),
(115,511,o),
(115,449,cs),
(115,388,o),
(184,339,o),
(247,336,c),
(247,328,l),
(184,325,o),
(115,276,o),
(115,215,cs),
(115,153,o),
(186,90,o),
(186,28,cs),
(186,-9,o),
(162,-37,o),
(110,-41,c),
(210,-41,o),
(268,43,o),
(268,110,cs)
);
}
);
width = 417;
}
);
unicode = 125;
},
{
glyphname = bracketleft;
layers = (
{
hints = (
{
horizontal = 1;
place = (-41,746);
type = Stem;
},
{
place = (80,93);
type = Stem;
}
);
layerId = "2CB89E61-3CCE-4A23-82C8-7DCD997832E5";
shapes = (
{
closed = 1;
nodes = (
(173,705,l),
(80,705,l),
(80,-41,l),
(173,-41,l)
);
}
);
width = 380;
}
);
unicode = 91;
},
{
glyphname = bracketright;
layers = (
{
hints = (
{
horizontal = 1;
place = (-41,10);
type = Stem;
},
{
horizontal = 1;
place = (695,10);
type = Stem;
},
{
place = (113,94);
type = Stem;
}
);
layerId = "2CB89E61-3CCE-4A23-82C8-7DCD997832E5";
shapes = (
{
closed = 1;
nodes = (
(40,-31,l),
(40,-41,l),
(207,-41,l),
(207,705,l),
(40,705,l),
(40,695,l),
(113,695,l),
(113,-31,l)
);
}
);
width = 380;
}
);
unicode = 93;
},
{
glyphname = quoteleft;
layers = (
{
hints = (
{
horizontal = 1;
place = (452,77);
type = Stem;
},
{
place = (34,20);
type = Stem;
}
);
layerId = "2CB89E61-3CCE-4A23-82C8-7DCD997832E5";
shapes = (
{
closed = 1;
nodes = (
(77,735,o),
(34,660,o),
(34,586,cs),
(34,504,o),
(87,452,o),
(160,452,cs),
(228,452,o),
(260,498,o),
(260,537,cs),
(260,563,o),
(245,586,o),
(215,586,cs),
(167,586,o),
(159,529,o),
(110,529,cs),
(73,529,o),
(54,560,o),
(54,603,cs),
(54,663,o),
(91,731,o),
(158,773,c)
);
}
);
width = 296;
}
);
unicode = 8216;
},
{
glyphname = quoteright;
layers = (
{
hints = (
{
horizontal = 1;
place = (696,77);
type = Stem;
},
{
place = (242,20);
type = Stem;
}
);
layerId = "2CB89E61-3CCE-4A23-82C8-7DCD997832E5";
shapes = (
{
closed = 1;
nodes = (
(219,490,o),
(262,565,o),
(262,639,cs),
(262,721,o),
(209,773,o),
(136,773,cs),
(68,773,o),
(36,727,o),
(36,688,cs),
(36,662,o),
(51,639,o),
(81,639,cs),
(129,639,o),
(137,696,o),
(186,696,cs),
(223,696,o),
(242,665,o),
(242,622,cs),
(242,562,o),
(205,494,o),
(138,452,c)
);
}
);
width = 296;
}
);
unicode = 8217;
},
{
glyphname = quotedblleft;
layers = (
{
hints = (
{
horizontal = 1;
place = (452,77);
type = Stem;
},
{
place = (73,20);
type = Stem;
},
{
place = (333,20);
type = Stem;
}
);
layerId = "2CB89E61-3CCE-4A23-82C8-7DCD997832E5";
shapes = (
{
closed = 1;
nodes = (
(116,735,o),
(73,660,o),
(73,586,cs),
(73,504,o),
(126,452,o),
(199,452,cs),
(267,452,o),
(299,498,o),
(299,537,cs),
(299,563,o),
(284,586,o),
(254,586,cs),
(206,586,o),
(198,529,o),
(149,529,cs),
(112,529,o),
(93,560,o),
(93,603,cs),
(93,663,o),
(130,731,o),
(197,773,c)
);
},
{
closed = 1;
nodes = (
(376,735,o),
(333,660,o),
(333,586,cs),
(333,504,o),
(386,452,o),
(459,452,cs),
(527,452,o),
(559,498,o),
(559,537,cs),
(559,563,o),
(544,586,o),
(514,586,cs),
(466,586,o),
(458,529,o),
(409,529,cs),
(372,529,o),
(353,560,o),
(353,603,cs),
(353,663,o),
(390,731,o),
(457,773,c)
);
}
);
width = 634;
}
);
unicode = 8220;
},
{
glyphname = quotedblright;
layers = (
{
hints = (
{
horizontal = 1;
place = (696,77);
type = Stem;
},
{
place = (281,20);
type = Stem;
},
{
place = (541,20);
type = Stem;
}
);
layerId = "2CB89E61-3CCE-4A23-82C8-7DCD997832E5";
shapes = (
{
closed = 1;
nodes = (
(518,490,o),
(561,565,o),
(561,639,cs),
(561,721,o),
(508,773,o),
(435,773,cs),
(367,773,o),
(335,727,o),
(335,688,cs),
(335,662,o),
(350,639,o),
(380,639,cs),
(428,639,o),
(436,696,o),
(485,696,cs),
(522,696,o),
(541,665,o),
(541,622,cs),
(541,562,o),
(504,494,o),
(437,452,c)
);
},
{
closed = 1;
nodes = (
(258,490,o),
(301,565,o),
(301,639,cs),
(301,721,o),
(248,773,o),
(175,773,cs),
(107,773,o),
(75,727,o),
(75,688,cs),
(75,662,o),
(90,639,o),
(120,639,cs),
(168,639,o),
(176,696,o),
(225,696,cs),
(262,696,o),
(281,665,o),
(281,622,cs),
(281,562,o),
(244,494,o),
(177,452,c)
);
}
);
width = 634;
}
);
unicode = 8221;
},
{
glyphname = quotesinglbase;
layers = (
{
hints = (
{
horizontal = 1;
place = (101,77);
type = Stem;
},
{
place = (242,20);
type = Stem;
}
);
layerId = "2CB89E61-3CCE-4A23-82C8-7DCD997832E5";
shapes = (
{
closed = 1;
nodes = (
(223,101,o),
(242,70,o),
(242,27,cs),
(242,-33,o),
(205,-101,o),
(138,-143,c),
(219,-105,o),
(262,-30,o),
(262,44,cs),
(262,126,o),
(209,178,o),
(136,178,cs),
(68,178,o),
(36,132,o),
(36,93,cs),
(36,67,o),
(51,44,o),
(81,44,cs),
(129,44,o),
(137,101,o),
(186,101,cs)
);
}
);
width = 296;
}
);
unicode = 8218;
},
{
glyphname = quotedblbase;
layers = (
{
hints = (
{
horizontal = 1;
place = (101,77);
type = Stem;
},
{
place = (281,20);
type = Stem;
},
{
place = (541,20);
type = Stem;
}
);
layerId = "2CB89E61-3CCE-4A23-82C8-7DCD997832E5";
shapes = (
{
closed = 1;
nodes = (
(258,-105,o),
(301,-30,o),
(301,44,cs),
(301,126,o),
(248,178,o),
(175,178,cs),
(107,178,o),
(75,132,o),
(75,93,cs),
(75,67,o),
(90,44,o),
(120,44,cs),
(168,44,o),
(176,101,o),
(225,101,cs),
(262,101,o),
(281,70,o),
(281,27,cs),
(281,-33,o),
(244,-101,o),
(177,-143,c)
);
},
{
closed = 1;
nodes = (
(518,-105,o),
(561,-30,o),
(561,44,cs),
(561,126,o),
(508,178,o),
(435,178,cs),
(367,178,o),
(335,132,o),
(335,93,cs),
(335,67,o),
(350,44,o),
(380,44,cs),
(428,44,o),
(436,101,o),
(485,101,cs),
(522,101,o),
(541,70,o),
(541,27,cs),
(541,-33,o),
(504,-101,o),
(437,-143,c)
);
}
);
width = 634;
}
);
unicode = 8222;
},
{
glyphname = bullet;
layers = (
{
hints = (
{
horizontal = 1;
place = (236,40);
type = Stem;
},
{
horizontal = 1;
place = (409,41);
type = Stem;
},
{
place = (72,14);
type = Stem;
},
{
place = (234,14);
type = Stem;
}
);
layerId = "2CB89E61-3CCE-4A23-82C8-7DCD997832E5";
shapes = (
{
closed = 1;
nodes = (
(72,283,o),
(110,236,o),
(160,236,cs),
(219,236,o),
(248,290,o),
(248,343,cs),
(248,397,o),
(218,450,o),
(160,450,cs),
(110,450,o),
(72,403,o),
(72,343,cs)
);
},
{
closed = 1;
nodes = (
(171,333,l),
(160,276,l),
(150,333,l),
(86,343,l),
(150,353,l),
(160,409,l),
(171,353,l),
(234,343,l)
);
}
);
width = 320;
}
);
unicode = 8226;
},
{
glyphname = underscore;
layers = (
{
hints = (
{
horizontal = 1;
place = (-30,13);
type = Stem;
},
{
place = (73,484);
type = Stem;
}
);
layerId = "2CB89E61-3CCE-4A23-82C8-7DCD997832E5";
shapes = (
{
closed = 1;
nodes = (
(557,-30,l),
(557,-17,l),
(73,-17,l),
(73,-30,l)
);
}
);
width = 630;
}
);
unicode = 95;
},
{
glyphname = endash;
layers = (
{
hints = (
{
horizontal = 1;
place = (323,13);
type = Stem;
},
{
place = (55,366);
type = Stem;
}
);
layerId = "2CB89E61-3CCE-4A23-82C8-7DCD997832E5";
shapes = (
{
closed = 1;
nodes = (
(421,323,l),
(421,336,l),
(55,336,l),
(55,323,l)
);
}
);
width = 476;
}
);
unicode = 8211;
},
{
glyphname = emdash;
layers = (
{
hints = (
{
horizontal = 1;
place = (323,13);
type = Stem;
},
{
place = (75,501);
type = Stem;
}
);
layerId = "2CB89E61-3CCE-4A23-82C8-7DCD997832E5";
shapes = (
{
closed = 1;
nodes = (
(576,323,l),
(576,336,l),
(75,336,l),
(75,323,l)
);
}
);
width = 651;
}
);
unicode = 8212;
},
{
glyphname = macron;
layers = (
{
hints = (
{
horizontal = 1;
place = (772,13);
type = Stem;
},
{
place = (55,368);
type = Stem;
}
);
layerId = "2CB89E61-3CCE-4A23-82C8-7DCD997832E5";
shapes = (
{
closed = 1;
nodes = (
(55,772,l),
(423,772,l),
(423,785,l),
(55,785,l)
);
}
);
width = 478;
}
);
unicode = 175;
},
{
glyphname = logicalnot;
layers = (
{
hints = (
{
horizontal = 1;
place = (332,13);
type = Stem;
},
{
place = (409,12);
type = Stem;
}
);
layerId = "2CB89E61-3CCE-4A23-82C8-7DCD997832E5";
shapes = (
{
closed = 1;
nodes = (
(55,345,l),
(55,332,l),
(409,332,l),
(409,238,l),
(421,238,l),
(421,345,l)
);
}
);
width = 476;
}
);
unicode = 172;
},
{
glyphname = trademark;
layers = (
{
hints = (
{
horizontal = 1;
place = (345,7);
type = Stem;
},
{
horizontal = 1;
place = (573,148);
type = Stem;
},
{
horizontal = 1;
place = (629,92);
type = Stem;
},
{
horizontal = 1;
place = (697,24);
type = Stem;
},
{
horizontal = 1;
place = (714,7);
type = Stem;
},
{
place = (184,60);
type = Stem;
},
{
place = (432,7);
type = Stem;
},
{
place = (507,8);
type = Stem;
},
{
place = (818,66);
type = Stem;
}
);
layerId = "2CB89E61-3CCE-4A23-82C8-7DCD997832E5";
shapes = (
{
closed = 1;
nodes = (
(884,721,l),
(815,721,l),
(703,420,l),
(580,721,l),
(439,721,l),
(439,714,l),
(473,714,o),
(492,712,o),
(507,699,c),
(507,549,ls),
(507,486,o),
(519,352,o),
(428,352,c),
(428,345,l),
(537,345,l),
(516,378,o),
(515,446,o),
(515,549,cs),
(515,691,l),
(524,680,o),
(533,664,o),
(544,640,c),
(673,336,l),
(679,336,l),
(801,658,ls),
(808,676,o),
(813,687,o),
(818,697,c),
(818,401,ls),
(818,368,o),
(802,352,o),
(758,352,c),
(758,345,l),
(884,345,l)
);
},
{
closed = 1;
nodes = (
(244,721,l),
(50,721,l),
(50,629,l),
(50,688,o),
(111,716,o),
(164,716,cs),
(184,716,l),
(184,401,ls),
(184,368,o),
(170,352,o),
(125,352,c),
(125,345,l),
(244,345,l)
);
},
{
closed = 1;
nodes = (
(308,716,l),
(311,716,ls),
(365,716,o),
(432,632,o),
(432,573,c),
(439,573,l),
(439,668,o),
(428,721,o),
(308,721,c)
);
}
);
width = 1049;
}
);
unicode = 8482;
},
{
glyphname = registered;
layers = (
{
hints = (
{
horizontal = 1;
place = (-29,8);
type = Stem;
},
{
horizontal = 1;
place = (131,22);
type = Stem;
},
{
horizontal = 1;
place = (718,8);
type = Stem;
},
{
place = (113,8);
type = Stem;
},
{
place = (325,74);
type = Stem;
},
{
place = (563,76);
type = Stem;
},
{
place = (860,8);
type = Stem;
}
);
layerId = "2CB89E61-3CCE-4A23-82C8-7DCD997832E5";
shapes = (
{
closed = 1;
nodes = (
(113,140,o),
(282,-29,o),
(490,-29,cs),
(698,-29,o),
(868,140,o),
(868,348,cs),
(868,556,o),
(698,726,o),
(490,726,cs),
(282,726,o),
(113,556,o),
(113,348,cs)
);
},
{
closed = 1;
nodes = (
(121,552,o),
(286,718,o),
(490,718,cs),
(694,718,o),
(860,552,o),
(860,348,cs),
(860,144,o),
(694,-21,o),
(490,-21,cs),
(286,-21,o),
(121,144,o),
(121,348,cs)
);
},
{
closed = 1;
nodes = (
(255,580,l),
(255,575,l),
(307,575,o),
(325,556,o),
(325,518,cs),
(325,200,ls),
(325,162,o),
(307,143,o),
(255,143,c),
(255,138,l),
(399,138,l),
(399,580,l)
);
},
{
closed = 1;
nodes = (
(534,574,o),
(563,525,o),
(563,473,cs),
(563,418,o),
(543,345,o),
(480,345,c),
(545,345,o),
(546,299,o),
(553,236,cs),
(561,164,o),
(616,131,o),
(677,131,cs),
(733,131,o),
(773,158,o),
(791,175,c),
(788,179,l),
(769,162,o),
(751,153,o),
(726,153,cs),
(664,153,o),
(649,196,o),
(636,249,cs),
(619,318,o),
(606,345,o),
(579,353,c),
(610,363,o),
(639,404,o),
(639,467,cs),
(639,558,o),
(560,574,o),
(479,574,c)
);
}
);
width = 981;
}
);
unicode = 174;
},
{
glyphname = copyright;
layers = (
{
hints = (
{
horizontal = 1;
place = (-29,8);
type = Stem;
},
{
horizontal = 1;
place = (131,19);
type = Stem;
},
{
horizontal = 1;
place = (579,7);
type = Stem;
},
{
horizontal = 1;
place = (718,8);
type = Stem;
},
{
place = (113,8);
type = Stem;
},
{
place = (264,81);
type = Stem;
},
{
place = (615,49);
type = Stem;
},
{
place = (860,8);
type = Stem;
}
);
layerId = "2CB89E61-3CCE-4A23-82C8-7DCD997832E5";
shapes = (
{
closed = 1;
nodes = (
(113,140,o),
(282,-29,o),
(490,-29,cs),
(698,-29,o),
(868,140,o),
(868,348,cs),
(868,556,o),
(698,726,o),
(490,726,cs),
(282,726,o),
(113,556,o),
(113,348,cs)
);
},
{
closed = 1;
nodes = (
(121,552,o),
(286,718,o),
(490,718,cs),
(694,718,o),
(860,552,o),
(860,348,cs),
(860,144,o),
(694,-21,o),
(490,-21,cs),
(286,-21,o),
(121,144,o),
(121,348,cs)
);
},
{
closed = 1;
nodes = (
(666,240,l),
(642,176,o),
(602,150,o),
(534,150,cs),
(436,150,o),
(345,198,o),
(345,361,cs),
(345,531,o),
(419,579,o),
(535,579,cs),
(556,579,o),
(615,564,o),
(615,529,cs),
(615,485,o),
(569,499,o),
(569,458,cs),
(569,442,o),
(585,429,o),
(604,429,cs),
(634,429,o),
(664,449,o),
(664,492,cs),
(664,551,o),
(609,586,o),
(525,586,cs),
(377,586,o),
(264,491,o),
(264,356,cs),
(264,239,o),
(350,131,o),
(500,131,cs),
(589,131,o),
(651,174,o),
(669,236,c)
);
}
);
width = 981;
}
);
unicode = 169;
},
{
glyphname = currency;
layers = (
{
hints = (
{
horizontal = 1;
place = (157,17);
type = Stem;
},
{
horizontal = 1;
place = (523,17);
type = Stem;
},
{
place = (87,18);
type = Stem;
},
{
place = (451,19);
type = Stem;
}
);
layerId = "2CB89E61-3CCE-4A23-82C8-7DCD997832E5";
shapes = (
{
closed = 1;
nodes = (
(87,298,o),
(106,253,o),
(136,219,c),
(65,148,l),
(78,134,l),
(150,206,l),
(184,175,o),
(229,157,o),
(278,157,cs),
(329,157,o),
(375,177,o),
(410,209,c),
(484,134,l),
(498,148,l),
(423,223,l),
(452,256,o),
(470,300,o),
(470,348,cs),
(470,397,o),
(451,443,o),
(421,477,c),
(498,554,l),
(484,567,l),
(407,490,l),
(373,521,o),
(328,540,o),
(278,540,cs),
(230,540,o),
(186,522,o),
(152,493,c),
(78,567,l),
(65,554,l),
(139,480,l),
(107,446,o),
(87,399,o),
(87,348,cs)
);
},
{
closed = 1;
nodes = (
(105,443,o),
(183,523,o),
(278,523,cs),
(373,523,o),
(451,443,o),
(451,348,cs),
(451,253,o),
(373,174,o),
(278,174,cs),
(183,174,o),
(105,253,o),
(105,348,cs)
);
}
);
width = 563;
}
);
unicode = 164;
},
{
glyphname = cent;
layers = (
{
hints = (
{
horizontal = 1;
place = (37,24);
type = Stem;
},
{
place = (81,107);
type = Stem;
},
{
place = (395,10);
type = Stem;
},
{
place = (596,10);
type = Stem;
}
);
layerId = "2CB89E61-3CCE-4A23-82C8-7DCD997832E5";
shapes = (
{
closed = 1;
nodes = (
(405,89,l),
(405,746,l),
(395,746,l),
(395,93,l)
);
},
{
closed = 1;
nodes = (
(198,610,o),
(81,493,o),
(81,336,cs),
(81,180,o),
(197,37,o),
(392,37,c),
(393,37,o),
(394,37,o),
(395,37,c),
(395,-101,l),
(405,-101,l),
(405,37,l),
(519,41,o),
(594,95,o),
(618,174,c),
(610,174,l),
(576,92,o),
(518,61,o),
(429,61,cs),
(287,61,o),
(188,126,o),
(188,348,cs),
(188,516,o),
(254,605,o),
(353,636,c)
);
},
{
closed = 1;
nodes = (
(606,575,l),
(551,616,o),
(478,641,o),
(436,633,c),
(527,633,o),
(596,558,o),
(596,459,cs),
(596,452,ls),
(596,447,o),
(598,445,o),
(601,445,c),
(603,445,o),
(606,447,o),
(606,452,cs)
);
}
);
width = 699;
}
);
unicode = 162;
},
{
glyphname = sterling;
layers = (
{
hints = (
{
horizontal = 1;
place = (-9,102);
type = Stem;
},
{
horizontal = 1;
place = (11,9);
type = Stem;
},
{
horizontal = 1;
place = (78,69);
type = Stem;
},
{
horizontal = 1;
place = (320,10);
type = Stem;
},
{
horizontal = 1;
place = (443,199);
type = Stem;
},
{
place = (106,27);
type = Stem;
},
{
place = (137,86);
type = Stem;
},
{
place = (318,10);
type = Stem;
},
{
place = (331,128);
type = Stem;
},
{
place = (506,60);
type = Stem;
}
);
layerId = "2CB89E61-3CCE-4A23-82C8-7DCD997832E5";
shapes = (
{
closed = 1;
nodes = (
(316,219,o),
(317,211,o),
(318,202,c),
(328,200,l),
(336,356,o),
(223,381,o),
(223,490,cs),
(223,570,o),
(314,639,o),
(396,639,cs),
(425,639,o),
(506,630,o),
(506,582,cs),
(506,543,o),
(445,543,o),
(445,491,cs),
(445,466,o),
(465,443,o),
(489,443,cs),
(538,443,o),
(566,480,o),
(566,529,cs),
(566,587,o),
(528,642,o),
(396,642,cs),
(287,642,o),
(137,585,o),
(137,446,cs),
(137,390,o),
(164,356,o),
(198,330,c),
(99,330,l),
(99,320,l),
(212,320,l),
(257,289,o),
(306,268,o),
(315,226,cs)
);
},
{
closed = 1;
nodes = (
(331,330,l),
(331,320,l),
(459,320,l),
(459,330,l)
);
},
{
closed = 1;
nodes = (
(297,18,o),
(338,-9,o),
(413,-9,cs),
(611,-9,o),
(624,182,o),
(624,281,c),
(619,158,o),
(551,93,o),
(462,93,cs),
(372,93,o),
(266,147,o),
(194,147,cs),
(134,147,o),
(106,110,o),
(106,73,cs),
(106,41,o),
(132,11,o),
(177,11,cs),
(213,11,o),
(241,22,o),
(263,42,c)
);
},
{
closed = 1;
nodes = (
(120,20,o),
(117,78,o),
(179,78,cs),
(209,78,o),
(231,64,o),
(255,48,c),
(234,31,o),
(208,20,o),
(177,20,cs)
);
}
);
width = 705;
}
);
unicode = 163;
},
{
glyphname = yen;
layers = (
{
hints = (
{
horizontal = 1;
place = (43,8);
type = Stem;
},
{
horizontal = 1;
place = (237,13);
type = Stem;
},
{
horizontal = 1;
place = (322,13);
type = Stem;
},
{
horizontal = 1;
place = (625,8);
type = Stem;
},
{
place = (333,97);
type = Stem;
}
);
layerId = "2CB89E61-3CCE-4A23-82C8-7DCD997832E5";
shapes = (
{
closed = 1;
nodes = (
(101,633,l),
(101,625,l),
(142,625,o),
(165,601,o),
(181,574,cs),
(320,335,l),
(198,335,l),
(198,322,l),
(327,322,l),
(333,312,l),
(333,250,l),
(198,250,l),
(198,237,l),
(333,237,l),
(333,127,ls),
(333,76,o),
(310,51,o),
(240,51,c),
(240,43,l),
(430,43,l),
(430,336,l),
(278,633,l)
);
},
{
closed = 1;
nodes = (
(541,633,l),
(541,625,l),
(576,625,ls),
(660,625,o),
(615,507,o),
(595,474,cs),
(560,417,l),
(600,469,o),
(671,601,o),
(707,633,c)
);
},
{
closed = 1;
nodes = (
(651,322,l),
(651,335,l),
(522,335,l),
(522,322,l)
);
},
{
closed = 1;
nodes = (
(651,237,l),
(651,250,l),
(522,250,l),
(522,237,l)
);
}
);
width = 875;
}
);
unicode = 165;
},
{
glyphname = florin;
layers = (
{
hints = (
{
horizontal = 1;
place = (24,9);
type = Stem;
},
{
horizontal = 1;
place = (320,10);
type = Stem;
},
{
horizontal = 1;
place = (632,10);
type = Stem;
},
{
place = (90,54);
type = Stem;
},
{
place = (636,52);
type = Stem;
}
);
layerId = "2CB89E61-3CCE-4A23-82C8-7DCD997832E5";
shapes = (
{
closed = 1;
nodes = (
(144,124,o),
(208,134,o),
(208,183,cs),
(208,204,o),
(193,222,o),
(167,222,cs),
(118,222,o),
(90,184,o),
(90,139,cs),
(90,78,o),
(140,24,o),
(227,24,cs),
(320,24,o),
(324,130,o),
(342,266,cs),
(373,501,ls),
(390,630,o),
(498,632,o),
(543,632,cs),
(576,632,o),
(636,613,o),
(636,566,cs),
(636,529,o),
(575,521,o),
(575,476,cs),
(575,458,o),
(589,443,o),
(611,443,cs),
(660,443,o),
(688,480,o),
(688,528,cs),
(688,587,o),
(646,642,o),
(525,642,cs),
(392,642,o),
(253,575,o),
(253,407,cs),
(253,384,o),
(256,358,o),
(260,330,c),
(221,330,l),
(221,320,l),
(261,320,l),
(272,248,o),
(289,168,o),
(289,113,cs),
(289,65,o),
(276,33,o),
(235,33,cs),
(189,33,o),
(144,49,o),
(144,84,cs)
);
},
{
closed = 1;
nodes = (
(432,320,l),
(581,320,l),
(581,330,l),
(433,330,l)
);
}
);
width = 778;
}
);
unicode = 402;
},
{
glyphname = comma;
layers = (
{
hints = (
{
horizontal = 1;
place = (111,67);
type = Stem;
},
{
place = (248,21);
type = Stem;
}
);
layerId = "2CB89E61-3CCE-4A23-82C8-7DCD997832E5";
shapes = (
{
closed = 1;
nodes = (
(226,-105,o),
(269,-30,o),
(269,45,cs),
(269,126,o),
(215,178,o),
(145,178,cs),
(75,178,o),
(41,132,o),
(41,87,cs),
(41,64,o),
(58,41,o),
(88,41,cs),
(153,41,o),
(129,111,o),
(194,111,cs),
(262,111,o),
(286,-62,o),
(145,-143,c)
);
}
);
width = 301;
}
);
unicode = 44;
},
{
glyphname = comma.swsh;
layers = (
{
hints = (
{
horizontal = 1;
place = (93,85);
type = Stem;
},
{
place = (245,24);
type = Stem;
}
);
layerId = "2CB89E61-3CCE-4A23-82C8-7DCD997832E5";
shapes = (
{
closed = 1;
nodes = (
(-383,-272,o),
(-550,-108,o),
(-550,145,cs),
(-550,388,o),
(-332,579,o),
(-75,579,cs),
(473,579,o),
(892,-260,o),
(1499,-260,cs),
(1836,-260,o),
(2110,4,o),
(2110,326,cs),
(2110,648,o),
(1836,912,o),
(1499,912,cs),
(1350,912,o),
(1213,858,o),
(1106,768,c),
(1110,764,l),
(1215,852,o),
(1351,906,o),
(1499,906,cs),
(1832,906,o),
(2104,644,o),
(2104,326,cs),
(2104,8,o),
(1832,-254,o),
(1499,-254,cs),
(899,-254,o),
(476,585,o),
(-75,585,cs),
(-335,585,o),
(-556,391,o),
(-556,145,cs),
(-556,-115,o),
(-381,-278,o),
(-123,-278,cs),
(66,-278,o),
(269,-156,o),
(269,33,cs),
(269,115,o),
(225,178,o),
(142,178,cs),
(81,178,o),
(41,138,o),
(41,88,cs),
(41,58,o),
(62,35,o),
(89,35,cs),
(137,35,o),
(151,93,o),
(198,93,cs),
(224,93,o),
(245,72,o),
(245,36,cs),
(245,-72,o),
(109,-272,o),
(-130,-272,cs)
);
}
);
width = 301;
}
);
},
{
glyphname = zero;
layers = (
{
hints = (
{
horizontal = 1;
place = (-9,9);
type = Stem;
},
{
horizontal = 1;
place = (0,21);
target = up;
type = BottomGhost;
},
{
horizontal = 1;
place = (676,-20);
target = down;
type = TopGhost;
},
{
horizontal = 1;
place = (676,9);
type = Stem;
},
{
place = (30,114);
type = Stem;
},
{
place = (493,114);
type = Stem;
}
);
layerId = "2CB89E61-3CCE-4A23-82C8-7DCD997832E5";
shapes = (
{
closed = 1;
nodes = (
(171,685,o),
(30,542,o),
(30,339,cs),
(30,135,o),
(171,-9,o),
(371,-9,c),
(194,0,o),
(144,156,o),
(144,339,cs),
(144,565,o),
(223,680,o),
(371,685,c)
);
},
{
closed = 1;
nodes = (
(453,676,o),
(493,561,o),
(493,339,cs),
(493,156,o),
(467,0,o),
(377,0,c),
(482,-4,o),
(607,91,o),
(607,339,cs),
(607,539,o),
(513,681,o),
(377,676,c)
);
}
);
width = 750;
}
);
unicode = 48;
},
{
glyphname = one;
layers = (
{
hints = (
{
horizontal = 1;
place = (0,8);
type = Stem;
},
{
horizontal = 1;
place = (626,8);
type = Stem;
},
{
place = (92,103);
type = Stem;
}
);
layerId = "2CB89E61-3CCE-4A23-82C8-7DCD997832E5";
shapes = (
{
closed = 1;
nodes = (
(195,662,l),
(-20,634,l),
(-20,626,l),
(62,626,o),
(92,595,o),
(92,539,cs),
(92,95,ls),
(92,37,o),
(64,8,o),
(-20,8,c),
(-20,0,l),
(195,0,l)
);
}
);
width = 391;
}
);
unicode = 49;
},
{
glyphname = two;
layers = (
{
hints = (
{
horizontal = 1;
place = (-9,106);
type = Stem;
},
{
horizontal = 1;
place = (78,57);
type = Stem;
},
{
horizontal = 1;
place = (395,63);
type = Stem;
},
{
place = (22,15);
type = Stem;
},
{
place = (325,106);
type = Stem;
}
);
layerId = "2CB89E61-3CCE-4A23-82C8-7DCD997832E5";
shapes = (
{
closed = 1;
nodes = (
(181,352,o),
(431,330,o),
(431,534,cs),
(431,630,o),
(340,670,o),
(258,670,cs),
(245,670,o),
(232,669,o),
(219,667,c),
(286,667,o),
(325,625,o),
(325,566,cs),
(325,408,o),
(153,344,o),
(62,195,c)
);
},
{
closed = 1;
nodes = (
(193,395,o),
(231,439,o),
(231,484,cs),
(231,505,o),
(220,532,o),
(185,532,cs),
(124,532,o),
(145,458,o),
(88,458,cs),
(51,458,o),
(37,489,o),
(37,524,cs),
(37,571,o),
(73,619,o),
(97,638,c),
(54,609,o),
(22,566,o),
(22,505,cs),
(22,435,o),
(72,395,o),
(136,395,cs)
);
},
{
closed = 1;
nodes = (
(159,78,o),
(217,-9,o),
(346,-9,cs),
(549,-9,o),
(562,182,o),
(562,281,c),
(562,152,o),
(491,97,o),
(405,97,cs),
(331,97,o),
(252,135,o),
(170,135,cs),
(94,135,o),
(15,109,o),
(15,8,c),
(15,51,o),
(44,78,o),
(84,78,cs)
);
}
);
width = 596;
}
);
unicode = 50;
},
{
glyphname = three;
layers = (
{
hints = (
{
horizontal = 1;
place = (214,60);
type = Stem;
},
{
horizontal = 1;
place = (426,54);
type = Stem;
},
{
place = (23,11);
type = Stem;
},
{
place = (50,11);
type = Stem;
},
{
place = (345,95);
type = Stem;
},
{
place = (345,117);
type = Stem;
}
);
layerId = "2CB89E61-3CCE-4A23-82C8-7DCD997832E5";
shapes = (
{
closed = 1;
nodes = (
(299,10,o),
(462,35,o),
(462,170,cs),
(462,310,o),
(353,350,o),
(258,355,c),
(313,368,o),
(440,400,o),
(440,531,cs),
(440,630,o),
(355,674,o),
(276,674,cs),
(261,674,o),
(247,672,o),
(233,669,c),
(318,669,o),
(345,597,o),
(345,539,cs),
(345,445,o),
(301,356,o),
(220,356,cs),
(210,356,l),
(210,350,l),
(301,350,o),
(345,287,o),
(345,183,cs),
(345,112,o),
(324,10,o),
(222,10,c)
);
},
{
closed = 1;
nodes = (
(213,426,o),
(243,465,o),
(243,506,cs),
(243,530,o),
(225,548,o),
(199,548,cs),
(149,548,o),
(154,480,o),
(100,480,cs),
(77,480,o),
(61,506,o),
(61,536,cs),
(61,587,o),
(103,631,o),
(134,651,c),
(90,630,o),
(50,587,o),
(50,523,cs),
(50,475,o),
(84,426,o),
(155,426,cs)
);
},
{
closed = 1;
nodes = (
(69,274,o),
(23,231,o),
(23,165,cs),
(23,101,o),
(61,59,o),
(104,34,c),
(73,54,o),
(34,101,o),
(34,152,cs),
(34,179,o),
(48,214,o),
(82,214,cs),
(136,214,o),
(136,143,o),
(187,143,cs),
(216,143,o),
(238,168,o),
(238,196,cs),
(238,237,o),
(201,274,o),
(136,274,cs)
);
}
);
width = 607;
}
);
unicode = 51;
},
{
glyphname = four;
layers = (
{
hints = (
{
horizontal = 1;
place = (0,8);
type = Stem;
},
{
horizontal = 1;
place = (140,23);
type = Stem;
},
{
place = (0,15);
type = Stem;
},
{
place = (246,103);
type = Stem;
}
);
layerId = "2CB89E61-3CCE-4A23-82C8-7DCD997832E5";
shapes = (
{
closed = 1;
nodes = (
(349,636,l),
(0,165,l),
(0,140,l),
(246,140,l),
(246,95,ls),
(246,37,o),
(218,8,o),
(134,8,c),
(134,0,l),
(349,0,l)
);
},
{
closed = 1;
nodes = (
(246,163,l),
(15,163,l),
(246,466,l)
);
},
{
closed = 1;
nodes = (
(453,140,l),
(550,140,l),
(558,163,l),
(453,163,l)
);
}
);
width = 605;
}
);
unicode = 52;
},
{
glyphname = five;
layers = (
{
hints = (
{
horizontal = 1;
place = (211,63);
type = Stem;
},
{
horizontal = 1;
place = (376,18);
type = Stem;
},
{
horizontal = 1;
place = (479,58);
type = Stem;
},
{
horizontal = 1;
place = (504,111);
type = Stem;
},
{
horizontal = 1;
place = (676,-20);
target = down;
type = TopGhost;
},
{
place = (20,11);
type = Stem;
},
{
place = (101,9);
type = Stem;
},
{
place = (352,125);
type = Stem;
},
{
place = (535,8);
type = Stem;
}
);
layerId = "2CB89E61-3CCE-4A23-82C8-7DCD997832E5";
shapes = (
{
closed = 1;
nodes = (
(535,651,l),
(535,512,ls),
(535,503,o),
(529,503,o),
(529,512,cs),
(529,565,o),
(487,615,o),
(411,615,cs),
(330,615,o),
(284,537,o),
(202,537,cs),
(131,537,o),
(112,603,o),
(109,665,c),
(109,676,l),
(101,676,l),
(101,360,l),
(131,369,o),
(155,376,o),
(189,376,cs),
(304,376,o),
(352,297,o),
(352,191,cs),
(352,120,o),
(330,10,o),
(216,10,c),
(293,10,o),
(477,35,o),
(477,188,cs),
(477,340,o),
(359,394,o),
(265,394,cs),
(201,394,o),
(141,383,o),
(110,371,c),
(110,552,ls),
(110,560,o),
(115,562,o),
(118,555,cs),
(139,504,o),
(169,479,o),
(238,479,cs),
(306,479,o),
(399,504,o),
(441,504,cs),
(494,504,o),
(535,465,o),
(535,416,cs),
(535,385,l),
(543,385,l),
(543,651,l)
);
},
{
closed = 1;
nodes = (
(65,274,o),
(20,230,o),
(20,164,cs),
(20,100,o),
(58,58,o),
(101,33,c),
(70,53,o),
(31,100,o),
(31,151,cs),
(31,186,o),
(49,211,o),
(75,211,cs),
(136,211,o),
(125,146,o),
(181,146,cs),
(216,146,o),
(228,172,o),
(228,197,cs),
(228,243,o),
(187,274,o),
(133,274,cs)
);
}
);
width = 613;
}
);
unicode = 53;
},
{
glyphname = six;
layers = (
{
hints = (
{
horizontal = 1;
place = (-9,11);
type = Stem;
},
{
horizontal = 1;
place = (378,7);
type = Stem;
},
{
horizontal = 1;
place = (685,-20);
target = down;
type = TopGhost;
},
{
place = (26,120);
type = Stem;
},
{
place = (405,116);
type = Stem;
}
);
layerId = "2CB89E61-3CCE-4A23-82C8-7DCD997832E5";
shapes = (
{
closed = 1;
nodes = (
(184,-9,o),
(146,136,o),
(146,259,cs),
(146,505,o),
(306,668,o),
(516,685,c),
(281,685,o),
(26,529,o),
(26,278,cs),
(26,99,o),
(138,-9,o),
(323,-9,c)
);
},
{
closed = 1;
nodes = (
(438,2,o),
(521,65,o),
(521,221,cs),
(521,327,o),
(456,385,o),
(382,385,cs),
(367,385,o),
(352,383,o),
(337,378,c),
(377,378,o),
(405,347,o),
(405,203,cs),
(405,81,o),
(385,2,o),
(337,2,c)
);
}
);
width = 654;
}
);
unicode = 54;
},
{
glyphname = seven;
layers = (
{
hints = (
{
horizontal = 1;
place = (471,59);
type = Stem;
},
{
horizontal = 1;
place = (496,113);
type = Stem;
},
{
place = (20,8);
type = Stem;
}
);
layerId = "2CB89E61-3CCE-4A23-82C8-7DCD997832E5";
shapes = (
{
closed = 1;
nodes = (
(20,651,l),
(20,387,l),
(28,387,l),
(28,466,o),
(64,494,o),
(141,496,cs),
(199,497,o),
(259,465,o),
(351,471,cs),
(429,476,o),
(503,515,o),
(543,568,c),
(518,546,o),
(484,530,o),
(447,530,cs),
(347,530,o),
(294,609,o),
(176,609,cs),
(90,609,o),
(46,547,o),
(37,521,cs),
(33,510,o),
(28,504,o),
(28,519,cs),
(28,651,l)
);
},
{
closed = 1;
nodes = (
(236,12,o),
(260,47,o),
(269,100,cs),
(277,149,o),
(270,214,o),
(319,294,cs),
(370,377,o),
(523,454,o),
(560,577,c),
(473,369,o),
(140,351,o),
(119,122,cs),
(115,78,o),
(132,12,o),
(182,12,cs)
);
}
);
width = 596;
}
);
unicode = 55;
},
{
glyphname = eight;
layers = (
{
hints = (
{
horizontal = 1;
place = (-12,10);
type = Stem;
},
{
horizontal = 1;
place = (-2,21);
target = up;
type = BottomGhost;
},
{
horizontal = 1;
place = (677,-20);
target = down;
type = TopGhost;
},
{
place = (42,45);
type = Stem;
},
{
place = (62,72);
type = Stem;
},
{
place = (445,78);
type = Stem;
},
{
place = (493,34);
type = Stem;
}
);
layerId = "2CB89E61-3CCE-4A23-82C8-7DCD997832E5";
shapes = (
{
closed = 1;
nodes = (
(527,609,o),
(460,677,o),
(336,677,c),
(431,677,o),
(493,618,o),
(493,545,cs),
(493,500,o),
(470,460,o),
(430,442,c),
(487,448,o),
(527,492,o),
(527,551,cs)
);
},
{
closed = 1;
nodes = (
(62,352,o),
(195,294,o),
(289,242,cs),
(371,197,o),
(445,150,o),
(445,85,cs),
(445,36,o),
(404,-2,o),
(321,-2,c),
(456,-2,o),
(523,71,o),
(523,164,cs),
(523,274,o),
(418,312,o),
(323,369,cs),
(264,404,o),
(134,483,o),
(134,563,cs),
(134,598,o),
(151,628,o),
(178,650,c),
(108,616,o),
(62,556,o),
(62,477,cs)
);
},
{
closed = 1;
nodes = (
(162,-12,o),
(87,72,o),
(87,164,cs),
(87,226,o),
(122,279,o),
(169,301,c),
(105,287,o),
(42,239,o),
(42,158,cs),
(42,40,o),
(179,-12,o),
(309,-12,c)
);
}
);
width = 654;
}
);
unicode = 56;
},
{
glyphname = nine;
layers = (
{
hints = (
{
horizontal = 1;
place = (-2,21);
target = up;
type = BottomGhost;
},
{
horizontal = 1;
place = (262,22);
type = Stem;
},
{
horizontal = 1;
place = (674,11);
type = Stem;
},
{
place = (16,115);
type = Stem;
},
{
place = (387,123);
type = Stem;
}
);
layerId = "2CB89E61-3CCE-4A23-82C8-7DCD997832E5";
shapes = (
{
closed = 1;
nodes = (
(364,674,o),
(387,569,o),
(387,456,cs),
(387,404,o),
(382,356,o),
(373,312,c),
(347,290,o),
(313,284,o),
(279,284,cs),
(194,284,o),
(131,335,o),
(131,472,cs),
(131,594,o),
(183,685,o),
(320,685,c),
(165,685,o),
(16,609,o),
(16,457,cs),
(16,331,o),
(120,262,o),
(234,262,cs),
(293,262,o),
(340,281,o),
(371,303,c),
(332,123,o),
(226,20,o),
(132,-2,c),
(313,-2,o),
(499,144,o),
(510,402,cs),
(519,599,o),
(420,674,o),
(310,674,c)
);
}
);
width = 652;
}
);
unicode = 57;
},
{
glyphname = hyphen;
layers = (
{
hints = (
{
horizontal = 1;
place = (333,13);
type = Stem;
},
{
place = (60,366);
type = Stem;
}
);
layerId = "2CB89E61-3CCE-4A23-82C8-7DCD997832E5";
shapes = (
{
closed = 1;
nodes = (
(426,333,l),
(426,346,l),
(60,346,l),
(60,333,l)
);
}
);
width = 486;
}
);
unicode = 45;
},
{
glyphname = plus;
layers = (
{
hints = (
{
horizontal = 1;
place = (351,13);
type = Stem;
},
{
place = (303,13);
type = Stem;
}
);
layerId = "2CB89E61-3CCE-4A23-82C8-7DCD997832E5";
shapes = (
{
closed = 1;
nodes = (
(601,351,l),
(601,364,l),
(316,364,l),
(316,643,l),
(303,643,l),
(303,364,l),
(18,364,l),
(18,351,l),
(303,351,l),
(303,60,l),
(316,60,l),
(316,351,l)
);
}
);
width = 622;
}
);
unicode = 43;
},
{
glyphname = asterisk;
layers = (
{
hints = (
{
horizontal = 1;
place = (328,333);
type = Stem;
},
{
place = (229,7);
type = Stem;
}
);
layerId = "2CB89E61-3CCE-4A23-82C8-7DCD997832E5";
shapes = (
{
closed = 1;
nodes = (
(247,499,ls),
(288,523,o),
(336,509,o),
(366,527,cs),
(388,540,o),
(395,561,o),
(383,580,cs),
(376,592,o),
(365,598,o),
(353,598,cs),
(345,598,o),
(337,596,o),
(329,591,cs),
(299,573,o),
(284,529,o),
(244,506,c),
(236,501,l),
(236,504,ls),
(236,551,o),
(269,585,o),
(269,620,cs),
(269,645,o),
(255,661,o),
(232,661,cs),
(210,661,o),
(196,645,o),
(196,620,cs),
(196,585,o),
(229,551,o),
(229,504,cs),
(229,501,l),
(223,505,l),
(182,528,o),
(165,573,o),
(134,590,cs),
(126,595,o),
(117,597,o),
(110,597,cs),
(98,597,o),
(87,591,o),
(80,579,cs),
(69,560,o),
(75,539,o),
(98,527,cs),
(129,511,o),
(178,522,o),
(218,499,cs),
(225,495,l),
(219,491,l),
(178,467,o),
(129,480,o),
(99,463,cs),
(76,450,o),
(69,428,o),
(81,408,cs),
(88,396,o),
(99,390,o),
(112,390,cs),
(120,390,o),
(128,392,o),
(137,397,cs),
(167,414,o),
(182,461,o),
(222,484,cs),
(229,488,l),
(229,486,l),
(229,439,o),
(198,402,o),
(198,367,cs),
(198,343,o),
(212,328,o),
(233,328,cs),
(253,328,o),
(267,343,o),
(267,367,cs),
(267,402,o),
(236,439,o),
(236,486,c),
(236,488,l),
(242,485,l),
(283,462,o),
(298,418,o),
(329,400,cs),
(337,395,o),
(345,393,o),
(353,393,cs),
(365,393,o),
(375,399,o),
(381,410,cs),
(392,429,o),
(386,449,o),
(364,461,cs),
(334,478,o),
(287,468,o),
(247,491,cs),
(240,495,l)
);
}
);
width = 465;
}
);
unicode = 42;
},
{
glyphname = asciicircum;
layers = (
{
hints = (
{
horizontal = 1;
place = (714,13);
type = Stem;
},
{
place = (50,619);
type = Stem;
}
);
layerId = "2CB89E61-3CCE-4A23-82C8-7DCD997832E5";
shapes = (
{
closed = 1;
nodes = (
(50,354,l),
(61,349,l),
(359,714,l),
(658,349,l),
(669,354,l),
(364,727,l),
(355,727,l)
);
}
);
width = 719;
}
);
unicode = 94;
},
{
glyphname = tilde;
layers = (
{
hints = (
{
horizontal = 1;
place = (758,55);
type = Stem;
},
{
horizontal = 1;
place = (796,59);
type = Stem;
},
{
place = (41,353);
type = Stem;
}
);
layerId = "2CB89E61-3CCE-4A23-82C8-7DCD997832E5";
shapes = (
{
closed = 1;
nodes = (
(43,779,o),
(72,796,o),
(107,796,cs),
(159,796,o),
(207,758,o),
(262,758,cs),
(347,758,o),
(392,849,o),
(394,919,c),
(388,849,o),
(345,813,o),
(305,813,cs),
(248,813,o),
(186,855,o),
(127,855,cs),
(49,855,o),
(31,794,o),
(44,751,c)
);
}
);
width = 433;
}
);
unicode = 732;
},
{
glyphname = slash;
layers = (
{
hints = (
{
horizontal = 1;
place = (0,21);
target = up;
type = BottomGhost;
},
{
place = (50,277);
type = Stem;
}
);
layerId = "2CB89E61-3CCE-4A23-82C8-7DCD997832E5";
shapes = (
{
closed = 1;
nodes = (
(50,0,l),
(63,0,l),
(327,721,l),
(314,721,l)
);
}
);
width = 377;
}
);
unicode = 47;
},
{
glyphname = backslash;
layers = (
{
hints = (
{
horizontal = 1;
place = (0,21);
target = up;
type = BottomGhost;
},
{
place = (50,277);
type = Stem;
}
);
layerId = "2CB89E61-3CCE-4A23-82C8-7DCD997832E5";
shapes = (
{
closed = 1;
nodes = (
(63,721,l),
(50,721,l),
(314,0,l),
(327,0,l)
);
}
);
width = 377;
}
);
unicode = 92;
},
{
glyphname = colon;
layers = (
{
hints = (
{
horizontal = 1;
place = (90,60);
type = Stem;
},
{
horizontal = 1;
place = (403,60);
type = Stem;
},
{
place = (40,220);
type = Stem;
}
);
layerId = "2CB89E61-3CCE-4A23-82C8-7DCD997832E5";
shapes = (
{
closed = 1;
nodes = (
(260,522,o),
(243,536,o),
(224,536,cs),
(172,536,o),
(162,463,o),
(91,463,cs),
(68,463,o),
(43,473,o),
(40,501,c),
(40,446,o),
(88,403,o),
(150,403,cs),
(212,403,o),
(260,446,o),
(260,501,cs)
);
},
{
closed = 1;
nodes = (
(260,209,o),
(243,223,o),
(224,223,cs),
(172,223,o),
(162,150,o),
(91,150,cs),
(68,150,o),
(43,160,o),
(40,188,c),
(40,133,o),
(88,90,o),
(150,90,cs),
(212,90,o),
(260,133,o),
(260,188,cs)
);
}
);
width = 300;
}
);
unicode = 58;
},
{
glyphname = semicolon;
layers = (
{
hints = (
{
horizontal = 1;
place = (111,67);
type = Stem;
},
{
horizontal = 1;
place = (304,60);
type = Stem;
},
{
place = (248,21);
type = Stem;
}
);
layerId = "2CB89E61-3CCE-4A23-82C8-7DCD997832E5";
shapes = (
{
closed = 1;
nodes = (
(260,423,o),
(243,437,o),
(224,437,cs),
(172,437,o),
(162,364,o),
(91,364,cs),
(68,364,o),
(43,374,o),
(40,402,c),
(40,347,o),
(88,304,o),
(150,304,cs),
(212,304,o),
(260,347,o),
(260,402,cs)
);
},
{
closed = 1;
nodes = (
(226,-105,o),
(269,-30,o),
(269,45,cs),
(269,126,o),
(215,178,o),
(145,178,cs),
(75,178,o),
(41,132,o),
(41,87,cs),
(41,64,o),
(58,41,o),
(88,41,cs),
(153,41,o),
(129,111,o),
(194,111,cs),
(262,111,o),
(286,-62,o),
(145,-143,c)
);
}
);
width = 301;
}
);
unicode = 59;
},
{
glyphname = less;
layers = (
{
hints = (
{
horizontal = 1;
place = (26,619);
type = Stem;
},
{
place = (94,17);
type = Stem;
}
);
layerId = "2CB89E61-3CCE-4A23-82C8-7DCD997832E5";
shapes = (
{
closed = 1;
nodes = (
(664,26,l),
(669,37,l),
(111,335,l),
(669,634,l),
(664,645,l),
(94,340,l),
(94,331,l)
);
}
);
width = 768;
}
);
unicode = 60;
},
{
glyphname = equal;
layers = (
{
hints = (
{
horizontal = 1;
place = (163,13);
type = Stem;
},
{
horizontal = 1;
place = (501,13);
type = Stem;
},
{
place = (70,542);
type = Stem;
}
);
layerId = "2CB89E61-3CCE-4A23-82C8-7DCD997832E5";
shapes = (
{
closed = 1;
nodes = (
(612,501,l),
(612,514,l),
(70,514,l),
(70,501,l)
);
},
{
closed = 1;
nodes = (
(612,163,l),
(612,176,l),
(70,176,l),
(70,163,l)
);
}
);
width = 682;
}
);
unicode = 61;
},
{
glyphname = greater;
layers = (
{
hints = (
{
horizontal = 1;
place = (26,619);
type = Stem;
},
{
place = (698,17);
type = Stem;
}
);
layerId = "2CB89E61-3CCE-4A23-82C8-7DCD997832E5";
shapes = (
{
closed = 1;
nodes = (
(145,645,l),
(140,634,l),
(698,335,l),
(140,37,l),
(145,26,l),
(715,331,l),
(715,340,l)
);
}
);
width = 780;
}
);
unicode = 62;
},
{
glyphname = questiondown;
layers = (
{
hints = (
{
horizontal = 1;
place = (-63,18);
type = Stem;
},
{
horizontal = 1;
place = (166,64);
type = Stem;
},
{
horizontal = 1;
place = (490,62);
type = Stem;
},
{
place = (35,107);
type = Stem;
},
{
place = (553,19);
type = Stem;
}
);
layerId = "2CB89E61-3CCE-4A23-82C8-7DCD997832E5";
shapes = (
{
closed = 1;
nodes = (
(454,609,o),
(437,625,o),
(418,625,cs),
(366,625,o),
(356,552,o),
(285,552,cs),
(262,552,o),
(234,560,o),
(234,588,c),
(234,533,o),
(282,490,o),
(344,490,cs),
(406,490,o),
(454,533,o),
(454,588,cs)
);
},
{
closed = 1;
nodes = (
(352,363,o),
(279,322,o),
(203,289,cs),
(111,249,o),
(35,205,o),
(35,110,cs),
(35,-26,o),
(203,-63,o),
(311,-63,cs),
(438,-63,o),
(572,-6,o),
(572,116,cs),
(572,191,o),
(522,230,o),
(460,230,cs),
(394,230,o),
(363,186,o),
(363,141,cs),
(363,108,o),
(385,89,o),
(411,89,cs),
(471,89,o),
(453,166,o),
(508,166,cs),
(539,166,o),
(553,142,o),
(553,116,cs),
(553,66,o),
(516,-45,o),
(379,-45,cs),
(283,-45,o),
(142,-21,o),
(142,104,cs),
(142,255,o),
(372,307,o),
(347,460,c)
);
}
);
width = 584;
}
);
unicode = 191;
},
{
glyphname = Ntilde;
layers = (
{
hints = (
{
horizontal = 1;
place = (0,8);
type = Stem;
},
{
horizontal = 1;
place = (668,8);
type = Stem;
},
{
horizontal = 1;
place = (757,55);
type = Stem;
},
{
horizontal = 1;
place = (795,59);
type = Stem;
},
{
place = (-20,660);
type = Stem;
},
{
place = (467,161);
type = Stem;
}
);
layerId = "2CB89E61-3CCE-4A23-82C8-7DCD997832E5";
shapes = (
{
closed = 1;
nodes = (
(241,778,o),
(270,795,o),
(305,795,cs),
(357,795,o),
(405,757,o),
(460,757,cs),
(545,757,o),
(590,848,o),
(592,918,c),
(586,848,o),
(543,812,o),
(503,812,cs),
(446,812,o),
(384,854,o),
(325,854,cs),
(247,854,o),
(229,793,o),
(242,750,c)
);
},
{
closed = 1;
nodes = (
(510,0,l),
(638,0,l),
(638,26,l),
(180,676,l),
(-20,676,l),
(-20,668,l),
(66,668,o),
(111,594,o),
(152,530,c)
);
},
{
closed = 1;
nodes = (
(467,676,l),
(467,668,l),
(605,668,o),
(628,468,o),
(628,316,c),
(628,548,o),
(640,668,o),
(640,676,c)
);
},
{
closed = 1;
nodes = (
(138,227,o),
(141,8,o),
(-10,8,c),
(-10,0,l),
(159,0,l),
(141,33,o),
(143,220,o),
(138,361,c)
);
}
);
width = 754;
}
);
unicode = 209;
},
{
glyphname = degree;
layers = (
{
hints = (
{
horizontal = 1;
place = (405,9);
type = Stem;
},
{
horizontal = 1;
place = (738,9);
type = Stem;
},
{
place = (50,57);
type = Stem;
},
{
place = (322,57);
type = Stem;
}
);
layerId = "2CB89E61-3CCE-4A23-82C8-7DCD997832E5";
shapes = (
{
closed = 1;
nodes = (
(50,480,o),
(135,405,o),
(242,405,cs),
(317,405,o),
(379,480,o),
(379,576,cs),
(379,670,o),
(317,747,o),
(242,747,cs),
(135,747,o),
(50,670,o),
(50,576,cs)
);
},
{
closed = 1;
nodes = (
(298,738,o),
(322,658,o),
(322,579,cs),
(322,496,o),
(294,414,o),
(242,414,cs),
(151,414,o),
(107,494,o),
(107,576,cs),
(107,658,o),
(151,738,o),
(242,738,cs)
);
}
);
width = 484;
}
);
unicode = 176;
},
{
glyphname = ordfeminine;
layers = (
{
hints = (
{
horizontal = 1;
place = (406,19);
type = Stem;
},
{
horizontal = 1;
place = (406,23);
type = Stem;
},
{
horizontal = 1;
place = (789,10);
type = Stem;
},
{
place = (30,76);
type = Stem;
},
{
place = (61,32);
type = Stem;
},
{
place = (269,78);
type = Stem;
}
);
layerId = "2CB89E61-3CCE-4A23-82C8-7DCD997832E5";
shapes = (
{
closed = 1;
nodes = (
(270,537,l),
(270,533,o),
(270,533,o),
(270,530,cs),
(270,445,o),
(297,406,o),
(362,406,cs),
(395,406,o),
(431,416,o),
(445,446,c),
(441,451,l),
(430,430,o),
(412,425,o),
(398,425,cs),
(363,425,o),
(347,442,o),
(347,498,cs),
(347,644,ls),
(347,731,o),
(328,799,o),
(242,799,cs),
(113,799,o),
(61,737,o),
(61,683,cs),
(61,643,o),
(83,618,o),
(120,618,cs),
(143,618,o),
(154,634,o),
(154,650,cs),
(154,693,o),
(93,680,o),
(93,713,cs),
(93,763,o),
(179,789,o),
(209,789,cs),
(255,789,o),
(269,748,o),
(269,711,cs),
(269,645,l),
(181,596,o),
(30,583,o),
(30,487,cs),
(30,428,o),
(88,406,o),
(131,406,cs),
(211,406,o),
(251,455,o),
(267,537,c)
);
},
{
closed = 1;
nodes = (
(269,624,ls),
(269,505,o),
(228,429,o),
(160,429,cs),
(122,429,o),
(106,458,o),
(106,489,cs),
(106,561,o),
(192,604,o),
(269,639,c)
);
}
);
width = 475;
}
);
unicode = 170;
},
{
glyphname = ordmasculine;
layers = (
{
hints = (
{
horizontal = 1;
place = (406,9);
type = Stem;
},
{
horizontal = 1;
place = (790,9);
type = Stem;
},
{
place = (25,73);
type = Stem;
},
{
place = (313,73);
type = Stem;
}
);
layerId = "2CB89E61-3CCE-4A23-82C8-7DCD997832E5";
shapes = (
{
closed = 1;
nodes = (
(25,473,o),
(122,406,o),
(243,406,cs),
(323,406,o),
(386,473,o),
(386,602,cs),
(386,733,o),
(323,799,o),
(243,799,cs),
(122,799,o),
(25,733,o),
(25,602,cs)
);
},
{
closed = 1;
nodes = (
(98,735,o),
(164,790,o),
(243,790,cs),
(281,790,o),
(313,735,o),
(313,602,cs),
(313,463,o),
(281,415,o),
(243,415,cs),
(164,415,o),
(98,463,o),
(98,602,cs)
);
}
);
width = 488;
}
);
unicode = 186;
},
{
glyphname = onesuperior;
layers = (
{
hints = (
{
horizontal = 1;
place = (417,9);
type = Stem;
},
{
horizontal = 1;
place = (765,10);
type = Stem;
},
{
place = (112,59);
type = Stem;
}
);
layerId = "2CB89E61-3CCE-4A23-82C8-7DCD997832E5";
shapes = (
{
closed = 1;
nodes = (
(171,791,l),
(50,775,l),
(50,765,l),
(97,765,o),
(112,749,o),
(112,717,cs),
(112,475,ls),
(112,442,o),
(97,426,o),
(50,426,c),
(50,417,l),
(171,417,l)
);
}
);
width = 340;
}
);
unicode = 185;
},
{
glyphname = twosuperior;
layers = (
{
hints = (
{
horizontal = 1;
place = (406,64);
type = Stem;
},
{
horizontal = 1;
place = (455,32);
type = Stem;
},
{
horizontal = 1;
place = (635,36);
type = Stem;
},
{
horizontal = 1;
place = (784,15);
type = Stem;
},
{
place = (25,8);
type = Stem;
},
{
place = (37,12);
type = Stem;
},
{
place = (209,64);
type = Stem;
}
);
layerId = "2CB89E61-3CCE-4A23-82C8-7DCD997832E5";
shapes = (
{
closed = 1;
nodes = (
(37,657,o),
(66,635,o),
(102,635,cs),
(138,635,o),
(156,660,o),
(156,685,cs),
(156,699,o),
(146,707,o),
(133,707,cs),
(114,707,o),
(99,671,o),
(75,671,cs),
(56,671,o),
(49,690,o),
(49,707,cs),
(49,758,o),
(104,784,o),
(149,784,cs),
(187,784,o),
(209,762,o),
(209,732,cs),
(209,610,o),
(25,586,o),
(25,406,c),
(33,406,l),
(33,416,ls),
(33,440,o),
(47,455,o),
(69,455,cs),
(112,455,o),
(144,406,o),
(218,406,cs),
(332,406,o),
(340,514,o),
(340,570,c),
(340,489,o),
(292,470,o),
(230,470,cs),
(194,470,o),
(149,487,o),
(106,487,cs),
(75,487,o),
(56,480,o),
(44,472,c),
(43,471,o),
(42,471,o),
(42,472,c),
(75,623,o),
(273,576,o),
(273,716,cs),
(273,779,o),
(220,799,o),
(181,799,cs),
(116,799,o),
(37,770,o),
(37,697,cs)
);
}
);
width = 373;
}
);
unicode = 178;
},
{
glyphname = threesuperior;
layers = (
{
hints = (
{
horizontal = 1;
place = (406,16);
type = Stem;
},
{
horizontal = 1;
place = (470,97);
type = Stem;
},
{
horizontal = 1;
place = (605,8);
type = Stem;
},
{
horizontal = 1;
place = (653,86);
type = Stem;
},
{
horizontal = 1;
place = (785,14);
type = Stem;
},
{
place = (29,29);
type = Stem;
},
{
place = (49,26);
type = Stem;
},
{
place = (211,74);
type = Stem;
},
{
place = (216,62);
type = Stem;
}
);
layerId = "2CB89E61-3CCE-4A23-82C8-7DCD997832E5";
shapes = (
{
closed = 1;
nodes = (
(134,605,l),
(187,605,o),
(211,571,o),
(211,514,cs),
(211,477,o),
(200,422,o),
(142,422,cs),
(90,422,o),
(58,454,o),
(58,482,c),
(69,476,o),
(81,470,o),
(95,470,cs),
(122,470,o),
(149,486,o),
(149,516,cs),
(149,542,o),
(129,567,o),
(94,567,cs),
(58,567,o),
(29,544,o),
(29,505,cs),
(29,435,o),
(108,406,o),
(173,406,cs),
(220,406,o),
(285,431,o),
(285,507,cs),
(285,584,o),
(224,608,o),
(168,612,c),
(201,619,o),
(278,637,o),
(278,712,cs),
(278,778,o),
(222,799,o),
(181,799,cs),
(122,799,o),
(49,772,o),
(49,708,cs),
(49,672,o),
(76,653,o),
(109,653,cs),
(143,653,o),
(159,674,o),
(159,696,cs),
(159,726,o),
(134,739,o),
(110,739,cs),
(98,739,o),
(85,735,o),
(75,730,c),
(75,755,o),
(107,785,o),
(153,785,cs),
(201,785,o),
(216,747,o),
(216,716,cs),
(216,663,o),
(192,613,o),
(146,613,cs),
(134,613,l)
);
}
);
width = 373;
}
);
unicode = 179;
},
{
glyphname = fraction;
layers = (
{
hints = (
{
horizontal = 1;
place = (0,21);
target = up;
type = BottomGhost;
},
{
place = (50,277);
type = Stem;
}
);
layerId = "2CB89E61-3CCE-4A23-82C8-7DCD997832E5";
shapes = (
{
closed = 1;
nodes = (
(50,0,l),
(63,0,l),
(327,721,l),
(314,721,l)
);
}
);
width = 377;
}
);
unicode = 8260;
},
{
glyphname = onequarter;
layers = (
{
hints = (
{
horizontal = 1;
place = (-5,9);
type = Stem;
},
{
horizontal = 1;
place = (0,21);
target = up;
type = BottomGhost;
},
{
horizontal = 1;
place = (78,24);
type = Stem;
},
{
horizontal = 1;
place = (295,9);
type = Stem;
},
{
horizontal = 1;
place = (643,10);
type = Stem;
},
{
place = (112,59);
type = Stem;
},
{
place = (457,60);
type = Stem;
}
);
layerId = "2CB89E61-3CCE-4A23-82C8-7DCD997832E5";
shapes = (
{
closed = 1;
nodes = (
(482,721,l),
(218,0,l),
(231,0,l),
(495,721,l)
);
},
{
closed = 1;
nodes = (
(171,669,l),
(50,653,l),
(50,643,l),
(97,643,o),
(112,627,o),
(112,595,cs),
(112,353,ls),
(112,320,o),
(97,304,o),
(50,304,c),
(50,295,l),
(171,295,l)
);
},
{
closed = 1;
nodes = (
(517,356,l),
(321,92,l),
(321,78,l),
(457,78,l),
(457,53,ls),
(457,20,o),
(442,4,o),
(395,4,c),
(395,-5,l),
(517,-5,l)
);
},
{
closed = 1;
nodes = (
(340,102,l),
(457,259,l),
(457,102,l)
);
},
{
closed = 1;
nodes = (
(573,78,l),
(627,78,l),
(635,102,l),
(573,102,l)
);
}
);
width = 685;
}
);
unicode = 188;
},
{
glyphname = onehalf;
layers = (
{
hints = (
{
horizontal = 1;
place = (-9,63);
type = Stem;
},
{
horizontal = 1;
place = (0,21);
target = up;
type = BottomGhost;
},
{
horizontal = 1;
place = (40,37);
type = Stem;
},
{
horizontal = 1;
place = (220,98);
type = Stem;
},
{
horizontal = 1;
place = (295,9);
type = Stem;
},
{
horizontal = 1;
place = (369,15);
type = Stem;
},
{
horizontal = 1;
place = (643,10);
type = Stem;
},
{
place = (112,59);
type = Stem;
},
{
place = (365,8);
type = Stem;
},
{
place = (377,28);
type = Stem;
},
{
place = (549,65);
type = Stem;
},
{
place = (672,8);
type = Stem;
}
);
layerId = "2CB89E61-3CCE-4A23-82C8-7DCD997832E5";
shapes = (
{
closed = 1;
nodes = (
(218,0,l),
(231,0,l),
(495,721,l),
(482,721,l)
);
},
{
closed = 1;
nodes = (
(171,669,l),
(50,653,l),
(50,643,l),
(97,643,o),
(112,627,o),
(112,595,cs),
(112,353,ls),
(112,320,o),
(97,304,o),
(50,304,c),
(50,295,l),
(171,295,l)
);
},
{
closed = 1;
nodes = (
(377,242,o),
(406,220,o),
(442,220,cs),
(478,220,o),
(496,245,o),
(496,270,cs),
(496,302,o),
(469,318,o),
(443,318,cs),
(430,318,o),
(416,313,o),
(405,306,c),
(405,335,o),
(439,369,o),
(489,369,cs),
(527,369,o),
(549,347,o),
(549,317,cs),
(549,195,o),
(365,171,o),
(365,-9,c),
(373,-9,l),
(373,1,ls),
(373,25,o),
(387,40,o),
(409,40,cs),
(452,40,o),
(484,-9,o),
(558,-9,cs),
(672,-9,o),
(680,99,o),
(680,155,c),
(672,155,l),
(672,73,o),
(635,54,o),
(575,54,cs),
(539,54,o),
(495,77,o),
(452,77,cs),
(418,77,o),
(398,68,o),
(384,57,c),
(383,55,o),
(381,54,o),
(382,57,cs),
(423,224,o),
(614,146,o),
(614,300,cs),
(614,363,o),
(560,384,o),
(521,384,cs),
(456,384,o),
(377,355,o),
(377,282,cs)
);
}
);
width = 737;
}
);
unicode = 189;
},
{
glyphname = threequarters;
layers = (
{
hints = (
{
horizontal = 1;
place = (-5,9);
type = Stem;
},
{
horizontal = 1;
place = (0,21);
target = up;
type = BottomGhost;
},
{
horizontal = 1;
place = (78,24);
type = Stem;
},
{
horizontal = 1;
place = (284,16);
type = Stem;
},
{
horizontal = 1;
place = (348,97);
type = Stem;
},
{
horizontal = 1;
place = (483,8);
type = Stem;
},
{
horizontal = 1;
place = (531,86);
type = Stem;
},
{
horizontal = 1;
place = (663,14);
type = Stem;
},
{
place = (50,29);
type = Stem;
},
{
place = (70,26);
type = Stem;
},
{
place = (232,71);
type = Stem;
},
{
place = (237,59);
type = Stem;
},
{
place = (499,60);
type = Stem;
}
);
layerId = "2CB89E61-3CCE-4A23-82C8-7DCD997832E5";
shapes = (
{
closed = 1;
nodes = (
(263,0,l),
(276,0,l),
(540,721,l),
(527,721,l)
);
},
{
closed = 1;
nodes = (
(155,483,l),
(208,483,o),
(232,449,o),
(232,392,cs),
(232,355,o),
(221,300,o),
(163,300,cs),
(111,300,o),
(79,332,o),
(79,360,c),
(90,354,o),
(102,348,o),
(116,348,cs),
(143,348,o),
(170,364,o),
(170,394,cs),
(170,420,o),
(150,445,o),
(115,445,cs),
(79,445,o),
(50,422,o),
(50,383,cs),
(50,313,o),
(129,284,o),
(194,284,cs),
(240,284,o),
(303,309,o),
(303,385,cs),
(303,462,o),
(243,486,o),
(189,490,c),
(221,497,o),
(296,515,o),
(296,590,cs),
(296,656,o),
(242,677,o),
(202,677,cs),
(143,677,o),
(70,650,o),
(70,586,cs),
(70,550,o),
(97,531,o),
(130,531,cs),
(164,531,o),
(180,552,o),
(180,574,cs),
(180,604,o),
(155,617,o),
(131,617,cs),
(119,617,o),
(106,613,o),
(96,608,c),
(96,633,o),
(128,663,o),
(174,663,cs),
(222,663,o),
(237,625,o),
(237,594,cs),
(237,541,o),
(213,491,o),
(167,491,cs),
(155,491,l)
);
},
{
closed = 1;
nodes = (
(559,356,l),
(363,92,l),
(363,78,l),
(499,78,l),
(499,53,ls),
(499,20,o),
(484,4,o),
(437,4,c),
(437,-5,l),
(559,-5,l)
);
},
{
closed = 1;
nodes = (
(382,102,l),
(499,259,l),
(499,102,l)
);
},
{
closed = 1;
nodes = (
(615,78,l),
(669,78,l),
(677,102,l),
(615,102,l)
);
}
);
width = 730;
}
);
unicode = 190;
},
{
glyphname = perthousand;
layers = (
{
hints = (
{
horizontal = 1;
place = (92,234);
type = Stem;
},
{
horizontal = 1;
place = (435,9);
type = Stem;
},
{
horizontal = 1;
place = (566,8);
type = Stem;
},
{
place = (36,46);
type = Stem;
},
{
place = (214,47);
type = Stem;
},
{
place = (293,46);
type = Stem;
},
{
place = (471,57);
type = Stem;
},
{
place = (653,47);
type = Stem;
}
);
layerId = "2CB89E61-3CCE-4A23-82C8-7DCD997832E5";
shapes = (
{
closed = 1;
nodes = (
(96,574,o),
(36,521,o),
(36,457,cs),
(36,391,o),
(96,340,o),
(169,340,cs),
(213,340,o),
(251,380,o),
(259,435,c),
(261,435,o),
(262,435,o),
(264,435,c),
(307,435,o),
(353,446,o),
(395,465,c),
(88,88,l),
(97,88,l),
(412,473,l),
(457,497,o),
(495,530,o),
(517,570,cs),
(522,580,o),
(527,597,o),
(511,597,cs),
(506,597,o),
(500,594,o),
(494,586,cs),
(473,560,ls),
(401,475,o),
(344,446,o),
(260,444,c),
(261,448,o),
(261,453,o),
(261,457,cs),
(261,521,o),
(219,574,o),
(169,574,cs)
);
},
{
closed = 1;
nodes = (
(200,568,o),
(214,515,o),
(214,461,cs),
(214,456,o),
(214,451,o),
(214,446,c),
(148,454,o),
(128,482,o),
(127,509,c),
(127,539,o),
(152,568,o),
(169,568,cs)
);
},
{
closed = 1;
nodes = (
(210,390,o),
(195,346,o),
(169,346,cs),
(110,346,o),
(82,402,o),
(82,458,cs),
(82,506,o),
(104,555,o),
(149,566,c),
(134,554,o),
(121,532,o),
(121,509,cs),
(121,479,o),
(144,448,o),
(213,438,c)
);
},
{
closed = 1;
nodes = (
(293,143,o),
(353,92,o),
(426,92,cs),
(466,92,o),
(492,107,o),
(507,132,c),
(531,107,o),
(568,92,o),
(608,92,cs),
(658,92,o),
(700,143,o),
(700,209,cs),
(700,273,o),
(658,326,o),
(608,326,cs),
(568,326,o),
(532,310,o),
(507,285,c),
(492,310,o),
(466,326,o),
(426,326,cs),
(353,326,o),
(293,273,o),
(293,209,cs)
);
},
{
closed = 1;
nodes = (
(457,320,o),
(471,267,o),
(471,213,cs),
(471,156,o),
(456,98,o),
(426,98,cs),
(367,98,o),
(339,154,o),
(339,210,cs),
(339,265,o),
(367,320,o),
(426,320,cs)
);
},
{
closed = 1;
nodes = (
(639,320,o),
(653,267,o),
(653,213,cs),
(653,156,o),
(638,98,o),
(608,98,cs),
(553,98,o),
(528,154,o),
(528,210,cs),
(528,265,o),
(553,320,o),
(608,320,cs)
);
}
);
width = 781;
}
);
unicode = 8240;
},
{
glyphname = uni03BC;
layers = (
{
hints = (
{
horizontal = 1;
place = (-9,25);
type = Stem;
},
{
horizontal = 1;
place = (-6,31);
type = Stem;
},
{
horizontal = 1;
place = (473,8);
type = Stem;
},
{
place = (77,108);
type = Stem;
},
{
place = (386,104);
type = Stem;
}
);
layerId = "2CB89E61-3CCE-4A23-82C8-7DCD997832E5";
shapes = (
{
closed = 1;
nodes = (
(386,184,ls),
(386,134,o),
(368,25,o),
(261,25,cs),
(198,25,o),
(185,60,o),
(185,118,c),
(183,489,l),
(133,484,o),
(71,481,o),
(0,481,c),
(0,473,l),
(56,473,o),
(77,468,o),
(77,416,cs),
(77,-240,l),
(181,-240,l),
(181,-4,l),
(192,-5,o),
(204,-6,o),
(218,-6,cs),
(284,-6,o),
(375,38,o),
(388,135,c),
(399,33,o),
(446,-9,o),
(529,-9,cs),
(590,-9,o),
(618,14,o),
(630,47,c),
(625,54,l),
(616,22,o),
(582,16,o),
(561,16,cs),
(502,16,o),
(490,50,o),
(490,106,cs),
(490,479,l),
(452,472,o),
(425,470,o),
(386,467,c)
);
}
);
width = 654;
}
);
unicode = (181,956);
},
{
glyphname = paragraph;
layers = (
{
hints = (
{
horizontal = 1;
place = (611,10);
type = Stem;
},
{
place = (235,11);
type = Stem;
},
{
place = (345,11);
type = Stem;
}
);
layerId = "2CB89E61-3CCE-4A23-82C8-7DCD997832E5";
shapes = (
{
closed = 1;
nodes = (
(413,621,l),
(235,621,ls),
(193,621,o),
(143,566,o),
(143,457,cs),
(143,348,o),
(193,292,o),
(235,292,c),
(235,73,l),
(246,73,l),
(246,597,ls),
(246,606,o),
(249,611,o),
(259,611,cs),
(345,611,l),
(345,73,l),
(356,73,l),
(356,611,l),
(413,611,l)
);
}
);
width = 478;
}
);
unicode = 182;
},
{
glyphname = section;
layers = (
{
hints = (
{
horizontal = 1;
place = (-3,7);
type = Stem;
},
{
horizontal = 1;
place = (285,8);
type = Stem;
},
{
horizontal = 1;
place = (393,8);
type = Stem;
},
{
horizontal = 1;
place = (659,7);
type = Stem;
},
{
place = (92,117);
type = Stem;
},
{
place = (99,62);
type = Stem;
},
{
place = (331,64);
type = Stem;
},
{
place = (338,61);
type = Stem;
},
{
place = (418,7);
type = Stem;
}
);
layerId = "2CB89E61-3CCE-4A23-82C8-7DCD997832E5";
shapes = (
{
closed = 1;
nodes = (
(313,285,l),
(366,280,o),
(399,306,o),
(399,368,cs),
(399,486,o),
(160,506,o),
(160,589,cs),
(160,627,o),
(188,659,o),
(283,659,cs),
(371,659,o),
(402,595,o),
(418,529,c),
(418,528,o),
(419,527,o),
(421,527,c),
(422,527,o),
(425,527,o),
(425,530,cs),
(425,673,l),
(418,673,l),
(418,668,o),
(418,650,o),
(392,650,cs),
(369,650,o),
(330,666,o),
(273,666,cs),
(173,666,o),
(99,617,o),
(99,546,cs),
(99,465,o),
(195,435,o),
(266,401,c),
(169,399,o),
(99,351,o),
(99,281,cs),
(99,154,o),
(331,158,o),
(331,67,cs),
(331,33,o),
(300,4,o),
(256,4,cs),
(226,4,o),
(186,18,o),
(177,37,c),
(194,54,o),
(209,75,o),
(209,100,cs),
(209,130,o),
(188,157,o),
(153,157,cs),
(116,157,o),
(92,129,o),
(92,94,cs),
(92,33,o),
(167,-3,o),
(260,-3,cs),
(324,-3,o),
(395,26,o),
(395,101,cs),
(395,240,o),
(161,226,o),
(161,326,cs),
(161,375,o),
(212,393,o),
(265,393,cs),
(296,393,o),
(338,361,o),
(338,327,cs),
(338,305,o),
(325,293,o),
(305,293,cs),
(301,293,o),
(298,293,o),
(294,294,c)
);
}
);
width = 534;
}
);
unicode = 167;
},
{
glyphname = dagger;
layers = (
{
hints = (
{
horizontal = 1;
place = (131,19);
type = Stem;
},
{
place = (50,46);
type = Stem;
},
{
place = (269,11);
type = Stem;
},
{
place = (466,46);
type = Stem;
}
);
layerId = "2CB89E61-3CCE-4A23-82C8-7DCD997832E5";
shapes = (
{
closed = 1;
nodes = (
(278,734,l),
(261,190,l),
(271,135,o),
(276,98,o),
(278,3,c),
(263,100,o),
(212,150,o),
(148,150,cs),
(88,150,o),
(50,110,o),
(50,57,cs),
(50,3,o),
(86,-23,o),
(125,-23,cs),
(147,-23,o),
(166,-11,o),
(166,7,cs),
(166,54,o),
(96,50,o),
(96,91,cs),
(96,114,o),
(122,131,o),
(157,131,cs),
(211,131,o),
(278,60,o),
(278,-50,cs),
(278,-104,o),
(270,-155,o),
(245,-185,c),
(317,-185,l),
(292,-155,o),
(284,-104,o),
(284,-50,cs),
(284,60,o),
(351,131,o),
(405,131,cs),
(440,131,o),
(466,114,o),
(466,91,cs),
(466,50,o),
(396,54,o),
(396,7,cs),
(396,-11,o),
(415,-23,o),
(437,-23,cs),
(476,-23,o),
(512,3,o),
(512,57,cs),
(512,110,o),
(474,150,o),
(414,150,cs),
(349,150,o),
(297,98,o),
(283,-3,c),
(281,190,l),
(281,734,l)
);
}
);
width = 562;
}
);
unicode = 8224;
},
{
glyphname = daggerdbl;
layers = (
{
hints = (
{
horizontal = 1;
place = (-118,59);
type = Stem;
},
{
horizontal = 1;
place = (43,10);
type = Stem;
},
{
horizontal = 1;
place = (196,23);
type = Stem;
},
{
place = (79,59);
type = Stem;
},
{
place = (240,10);
type = Stem;
},
{
place = (393,22);
type = Stem;
},
{
place = (520,22);
type = Stem;
},
{
place = (685,10);
type = Stem;
},
{
place = (797,59);
type = Stem;
}
);
layerId = "2CB89E61-3CCE-4A23-82C8-7DCD997832E5";
shapes = (
{
closed = 1;
nodes = (
(561,-111,o),
(579,-118,o),
(595,-118,cs),
(613,-118,o),
(629,-110,o),
(641,-97,cs),
(645,-93,o),
(649,-85,o),
(649,-76,cs),
(649,-57,o),
(636,-48,o),
(621,-48,cs),
(604,-48,o),
(590,-59,o),
(569,-59,cs),
(554,-59,o),
(542,-45,o),
(542,-29,cs),
(542,-15,o),
(553,2,o),
(571,20,cs),
(585,35,o),
(607,43,o),
(631,43,cs),
(662,43,o),
(699,30,o),
(733,0,cs),
(742,-9,o),
(752,-18,o),
(762,-28,cs),
(801,-67,o),
(831,-108,o),
(835,-147,c),
(885,-96,l),
(847,-93,o),
(805,-62,o),
(767,-24,cs),
(733,10,l),
(684,69,o),
(685,135,o),
(718,167,cs),
(736,185,o),
(753,196,o),
(767,196,cs),
(783,196,o),
(797,184,o),
(797,169,cs),
(797,148,o),
(786,134,o),
(786,117,cs),
(786,102,o),
(795,89,o),
(814,89,cs),
(823,89,o),
(831,93,o),
(835,97,cs),
(860,120,o),
(867,160,o),
(833,194,cs),
(817,210,o),
(797,219,o),
(777,219,cs),
(725,219,o),
(685,169,o),
(685,119,cs),
(685,90,o),
(696,58,o),
(719,24,c),
(660,85,o),
(639,114,o),
(609,158,c),
(489,272,l),
(823,623,l),
(819,627,l),
(468,293,l),
(116,627,l),
(112,623,l),
(446,272,l),
(326,158,l),
(296,114,o),
(274,85,o),
(216,25,c),
(262,92,o),
(260,151,o),
(221,190,cs),
(202,209,o),
(180,218,o),
(158,218,cs),
(138,218,o),
(118,210,o),
(102,194,cs),
(68,160,o),
(75,120,o),
(100,97,cs),
(104,93,o),
(112,89,o),
(121,89,cs),
(140,89,o),
(149,102,o),
(149,117,cs),
(149,134,o),
(138,148,o),
(138,169,cs),
(138,184,o),
(152,196,o),
(168,196,cs),
(182,196,o),
(199,185,o),
(217,167,cs),
(250,135,o),
(251,69,o),
(202,10,c),
(168,-24,ls),
(130,-62,o),
(88,-93,o),
(50,-96,c),
(100,-147,l),
(104,-108,o),
(134,-67,o),
(173,-28,cs),
(183,-18,o),
(193,-9,o),
(202,0,cs),
(236,30,o),
(273,43,o),
(304,43,cs),
(328,43,o),
(350,35,o),
(364,20,cs),
(382,2,o),
(393,-15,o),
(393,-29,cs),
(393,-45,o),
(381,-59,o),
(366,-59,cs),
(345,-59,o),
(331,-48,o),
(314,-48,cs),
(299,-48,o),
(286,-57,o),
(286,-76,cs),
(286,-85,o),
(290,-93,o),
(294,-97,cs),
(306,-110,o),
(322,-118,o),
(340,-118,cs),
(356,-118,o),
(374,-111,o),
(390,-95,cs),
(424,-61,o),
(424,-13,o),
(387,24,cs),
(368,43,o),
(344,53,o),
(316,53,cs),
(287,53,o),
(254,42,o),
(219,17,c),
(281,77,o),
(311,99,o),
(354,129,c),
(468,249,l),
(581,129,l),
(624,99,o),
(654,77,o),
(716,17,c),
(681,42,o),
(648,53,o),
(619,53,cs),
(591,53,o),
(567,43,o),
(548,24,cs),
(511,-13,o),
(511,-61,o),
(545,-95,cs)
);
}
);
width = 935;
}
);
unicode = 8225;
},
{
glyphname = asciitilde;
layers = (
{
hints = (
{
horizontal = 1;
place = (244,8);
type = Stem;
},
{
horizontal = 1;
place = (404,8);
type = Stem;
},
{
place = (60,8);
type = Stem;
},
{
place = (660,8);
type = Stem;
}
);
layerId = "2CB89E61-3CCE-4A23-82C8-7DCD997832E5";
shapes = (
{
closed = 1;
nodes = (
(74,256,l),
(70,268,o),
(68,281,o),
(68,293,cs),
(68,353,o),
(117,404,o),
(192,404,cs),
(327,404,o),
(398,244,o),
(537,244,cs),
(621,244,o),
(668,304,o),
(668,348,cs),
(668,361,o),
(664,374,o),
(657,383,c),
(651,379,l),
(656,372,o),
(660,360,o),
(660,348,cs),
(660,308,o),
(615,252,o),
(536,252,cs),
(398,252,o),
(330,412,o),
(192,412,cs),
(113,412,o),
(60,357,o),
(60,292,cs),
(60,279,o),
(62,266,o),
(66,254,c)
);
}
);
width = 728;
}
);
unicode = 126;
},
{
glyphname = guilsinglleft;
layers = (
{
hints = (
{
horizontal = 1;
place = (197,254);
type = Stem;
},
{
place = (50,184);
type = Stem;
}
);
layerId = "2CB89E61-3CCE-4A23-82C8-7DCD997832E5";
shapes = (
{
closed = 1;
nodes = (
(234,445,l),
(228,451,l),
(50,326,l),
(50,322,l),
(228,197,l),
(234,203,l),
(101,324,l)
);
}
);
width = 314;
}
);
unicode = 8249;
},
{
glyphname = guilsinglright;
layers = (
{
hints = (
{
horizontal = 1;
place = (197,254);
type = Stem;
},
{
place = (80,137);
type = Stem;
}
);
layerId = "2CB89E61-3CCE-4A23-82C8-7DCD997832E5";
shapes = (
{
closed = 1;
nodes = (
(172,324,l),
(80,203,l),
(86,197,l),
(217,322,l),
(217,326,l),
(86,451,l),
(80,445,l)
);
}
);
width = 314;
}
);
unicode = 8250;
},
{
glyphname = guillemotleft;
layers = (
{
hints = (
{
horizontal = 1;
place = (197,254);
type = Stem;
},
{
place = (50,335);
type = Stem;
}
);
layerId = "2CB89E61-3CCE-4A23-82C8-7DCD997832E5";
shapes = (
{
closed = 1;
nodes = (
(234,445,l),
(228,451,l),
(50,326,l),
(50,322,l),
(228,197,l),
(234,203,l),
(99,324,l)
);
},
{
closed = 1;
nodes = (
(385,445,l),
(379,451,l),
(201,326,l),
(201,322,l),
(379,197,l),
(385,203,l),
(250,324,l)
);
}
);
width = 465;
}
);
unicode = 171;
},
{
glyphname = guillemotright;
layers = (
{
hints = (
{
horizontal = 1;
place = (197,254);
type = Stem;
},
{
place = (80,285);
type = Stem;
}
);
layerId = "2CB89E61-3CCE-4A23-82C8-7DCD997832E5";
shapes = (
{
closed = 1;
nodes = (
(323,324,l),
(231,203,l),
(237,197,l),
(365,322,l),
(365,326,l),
(237,451,l),
(231,445,l)
);
},
{
closed = 1;
nodes = (
(172,324,l),
(80,203,l),
(86,197,l),
(214,322,l),
(214,326,l),
(86,451,l),
(80,445,l)
);
}
);
width = 465;
}
);
unicode = 187;
},
{
glyphname = breve;
layers = (
{
hints = (
{
horizontal = 1;
place = (772,31);
type = Stem;
},
{
place = (80,216);
type = Stem;
}
);
layerId = "2CB89E61-3CCE-4A23-82C8-7DCD997832E5";
shapes = (
{
closed = 1;
nodes = (
(289,876,l),
(276,829,o),
(231,803,o),
(189,803,cs),
(146,803,o),
(99,829,o),
(86,876,c),
(80,866,l),
(89,819,o),
(134,772,o),
(188,772,cs),
(242,772,o),
(287,817,o),
(296,866,c)
);
}
);
width = 376;
}
);
unicode = 728;
},
{
glyphname = dotaccent;
layers = (
{
hints = (
{
horizontal = 1;
place = (772,60);
type = Stem;
},
{
place = (50,220);
type = Stem;
}
);
layerId = "2CB89E61-3CCE-4A23-82C8-7DCD997832E5";
shapes = (
{
closed = 1;
nodes = (
(270,891,o),
(253,905,o),
(234,905,cs),
(182,905,o),
(172,832,o),
(101,832,cs),
(78,832,o),
(53,842,o),
(50,870,c),
(50,815,o),
(98,772,o),
(160,772,cs),
(222,772,o),
(270,815,o),
(270,870,cs)
);
}
);
width = 320;
}
);
unicode = 729;
},
{
glyphname = ring;
layers = (
{
hints = (
{
horizontal = 1;
place = (772,8);
type = Stem;
},
{
horizontal = 1;
place = (960,8);
type = Stem;
},
{
place = (50,35);
type = Stem;
},
{
place = (206,35);
type = Stem;
}
);
layerId = "2CB89E61-3CCE-4A23-82C8-7DCD997832E5";
shapes = (
{
closed = 1;
nodes = (
(50,815,o),
(99,772,o),
(160,772,cs),
(204,772,o),
(241,815,o),
(241,870,cs),
(241,924,o),
(204,968,o),
(160,968,cs),
(99,968,o),
(50,924,o),
(50,870,cs)
);
},
{
closed = 1;
nodes = (
(192,960,o),
(206,916,o),
(206,872,cs),
(206,826,o),
(190,780,o),
(160,780,cs),
(109,780,o),
(85,825,o),
(85,870,cs),
(85,915,o),
(109,960,o),
(160,960,cs)
);
}
);
width = 320;
}
);
unicode = 730;
},
{
glyphname = hungarumlaut;
layers = (
{
hints = (
{
horizontal = 1;
place = (772,180);
type = Stem;
},
{
place = (120,443);
type = Stem;
}
);
layerId = "2CB89E61-3CCE-4A23-82C8-7DCD997832E5";
shapes = (
{
closed = 1;
nodes = (
(120,772,l),
(133,772,l),
(152,777,o),
(260,845,o),
(316,893,cs),
(354,925,o),
(352,952,o),
(315,952,cs),
(277,952,o),
(244,921,o),
(216,887,cs)
);
},
{
closed = 1;
nodes = (
(339,772,l),
(352,772,l),
(371,777,o),
(479,845,o),
(535,893,cs),
(573,925,o),
(571,952,o),
(534,952,cs),
(496,952,o),
(464,921,o),
(435,887,cs)
);
}
);
width = 680;
}
);
unicode = 733;
},
{
glyphname = ogonek;
layers = (
{
hints = (
{
horizontal = 1;
place = (-192,18);
type = Stem;
},
{
place = (4,38);
type = Stem;
}
);
layerId = "2CB89E61-3CCE-4A23-82C8-7DCD997832E5";
shapes = (
{
closed = 1;
nodes = (
(77,-24,o),
(4,-64,o),
(4,-115,cs),
(4,-159,o),
(31,-192,o),
(84,-192,cs),
(127,-192,o),
(155,-169,o),
(176,-145,c),
(170,-139,l),
(154,-159,o),
(130,-174,o),
(104,-174,cs),
(75,-174,o),
(42,-158,o),
(42,-109,cs),
(42,-51,o),
(105,-15,o),
(137,9,c)
);
}
);
width = 251;
}
);
unicode = 731;
},
{
glyphname = caron;
layers = (
{
hints = (
{
horizontal = 1;
place = (816,39);
type = Stem;
},
{
place = (30,305);
type = Stem;
}
);
layerId = "2CB89E61-3CCE-4A23-82C8-7DCD997832E5";
shapes = (
{
closed = 1;
nodes = (
(45,937,l),
(36,944,o),
(27,942,o),
(31,935,c),
(172,816,l),
(197,816,l),
(335,936,l),
(337,941,o),
(330,944,o),
(322,938,c),
(183,855,l)
);
}
);
width = 366;
}
);
unicode = 711;
},
{
glyphname = grave;
layers = (
{
hints = (
{
horizontal = 1;
place = (772,139);
type = Stem;
},
{
place = (130,245);
type = Stem;
}
);
layerId = "2CB89E61-3CCE-4A23-82C8-7DCD997832E5";
shapes = (
{
closed = 1;
nodes = (
(264,855,ls),
(233,878,o),
(190,911,o),
(162,911,cs),
(142,911,o),
(130,902,o),
(130,883,cs),
(130,868,o),
(141,855,o),
(156,844,cs),
(211,805,o),
(311,788,o),
(362,772,c),
(375,772,l)
);
}
);
width = 442;
}
);
unicode = 96;
},
{
glyphname = circumflex;
layers = (
{
hints = (
{
horizontal = 1;
place = (769,127);
type = Stem;
},
{
place = (30,305);
type = Stem;
}
);
layerId = "2CB89E61-3CCE-4A23-82C8-7DCD997832E5";
shapes = (
{
closed = 1;
nodes = (
(183,855,l),
(322,772,l),
(330,766,o),
(337,769,o),
(335,774,c),
(194,896,l),
(175,896,l),
(31,775,l),
(27,768,o),
(36,766,o),
(45,773,c)
);
}
);
width = 366;
}
);
unicode = 710;
},
{
glyphname = dieresis;
layers = (
{
hints = (
{
horizontal = 1;
place = (772,52);
type = Stem;
},
{
place = (77,427);
type = Stem;
}
);
layerId = "2CB89E61-3CCE-4A23-82C8-7DCD997832E5";
shapes = (
{
closed = 1;
nodes = (
(272,876,o),
(254,887,o),
(238,887,cs),
(192,887,o),
(184,824,o),
(122,824,cs),
(102,824,o),
(77,833,o),
(77,857,c),
(77,812,o),
(119,772,o),
(173,772,cs),
(232,772,o),
(272,811,o),
(272,858,cs)
);
},
{
closed = 1;
nodes = (
(504,876,o),
(486,887,o),
(470,887,cs),
(424,887,o),
(416,824,o),
(354,824,cs),
(334,824,o),
(309,833,o),
(309,857,c),
(309,812,o),
(350,772,o),
(405,772,cs),
(464,772,o),
(504,812,o),
(504,858,cs)
);
}
);
width = 581;
}
);
unicode = 168;
},
{
glyphname = acute;
layers = (
{
hints = (
{
horizontal = 1;
place = (773,180);
type = Stem;
},
{
place = (120,224);
type = Stem;
}
);
layerId = "2CB89E61-3CCE-4A23-82C8-7DCD997832E5";
shapes = (
{
closed = 1;
nodes = (
(120,773,l),
(133,773,l),
(152,778,o),
(260,846,o),
(316,894,cs),
(354,926,o),
(352,953,o),
(315,953,cs),
(277,953,o),
(244,922,o),
(216,888,cs)
);
}
);
width = 442;
}
);
unicode = 180;
},
{
glyphname = cedilla;
layers = (
{
hints = (
{
horizontal = 1;
place = (-249,11);
type = Stem;
},
{
horizontal = 1;
place = (-75,8);
type = Stem;
},
{
place = (48,11);
type = Stem;
},
{
place = (149,32);
type = Stem;
}
);
layerId = "2CB89E61-3CCE-4A23-82C8-7DCD997832E5";
shapes = (
{
closed = 1;
nodes = (
(50,-232,l),
(61,-244,o),
(79,-249,o),
(101,-249,cs),
(145,-249,o),
(181,-210,o),
(181,-147,cs),
(181,-97,o),
(154,-67,o),
(112,-67,cs),
(87,-67,o),
(65,-72,o),
(63,-74,c),
(136,21,l),
(125,23,l),
(48,-78,l),
(48,-91,l),
(59,-91,l),
(66,-83,o),
(78,-75,o),
(95,-75,cs),
(131,-75,o),
(149,-111,o),
(149,-147,cs),
(149,-188,o),
(126,-238,o),
(85,-238,cs),
(72,-238,o),
(59,-233,o),
(55,-225,c)
);
}
);
width = 267;
}
);
unicode = 184;
},
{
glyphname = a;
layers = (
{
hints = (
{
horizontal = 1;
place = (0,8);
type = Stem;
},
{
horizontal = 1;
place = (301,10);
type = Stem;
},
{
horizontal = 1;
place = (668,8);
type = Stem;
},
{
place = (-60,141);
type = Stem;
}
);
layerId = "2CB89E61-3CCE-4A23-82C8-7DCD997832E5";
shapes = (
{
closed = 1;
nodes = (
(119,676,l),
(119,668,l),
(199,668,o),
(219,636,o),
(238,580,cs),
(329,311,l),
(155,311,l),
(152,301,l),
(333,301,l),
(391,129,ls),
(426,25,o),
(394,8,o),
(317,8,c),
(317,0,l),
(603,0,l),
(571,8,o),
(541,28,o),
(511,114,cs),
(317,676,l)
);
},
{
closed = 1;
nodes = (
(112,211,o),
(36,8,o),
(-60,8,c),
(-60,0,l),
(84,0,l),
(72,41,o),
(92,141,o),
(134,278,c)
);
}
);
width = 671;
}
);
leftKerningGroup = A2;
rightKerningGroup = A;
unicode = 97;
},
{
glyphname = b;
layers = (
{
hints = (
{
horizontal = 1;
place = (0,8);
type = Stem;
},
{
horizontal = 1;
place = (349,9);
type = Stem;
},
{
horizontal = 1;
place = (668,8);
type = Stem;
},
{
place = (109,108);
type = Stem;
},
{
place = (455,113);
type = Stem;
},
{
place = (468,119);
type = Stem;
}
);
layerId = "2CB89E61-3CCE-4A23-82C8-7DCD997832E5";
shapes = (
{
closed = 1;
nodes = (
(217,676,l),
(2,676,l),
(2,668,l),
(82,668,o),
(109,639,o),
(109,581,cs),
(109,95,ls),
(109,37,o),
(82,8,o),
(2,8,c),
(2,0,l),
(217,0,l)
);
},
{
closed = 1;
nodes = (
(326,349,l),
(338,349,ls),
(439,349,o),
(468,272,o),
(468,189,cs),
(468,112,o),
(443,10,o),
(369,10,c),
(500,5,o),
(587,55,o),
(587,188,cs),
(587,276,o),
(520,335,o),
(427,352,c),
(517,368,o),
(568,442,o),
(568,523,cs),
(568,639,o),
(479,670,o),
(359,667,c),
(426,667,o),
(455,595,o),
(455,519,cs),
(455,439,o),
(423,358,o),
(360,358,cs),
(326,358,l)
);
}
);
width = 689;
}
);
rightKerningGroup = B;
unicode = 98;
},
{
glyphname = c;
layers = (
{
hints = (
{
horizontal = 1;
place = (-17,32);
type = Stem;
},
{
horizontal = 1;
place = (679,-20);
target = down;
type = TopGhost;
},
{
horizontal = 1;
place = (687,-20);
target = down;
type = TopGhost;
},
{
place = (15,128);
type = Stem;
},
{
place = (630,9);
type = Stem;
}
);
layerId = "2CB89E61-3CCE-4A23-82C8-7DCD997832E5";
shapes = (
{
closed = 1;
nodes = (
(143,501,o),
(196,657,o),
(370,687,c),
(177,674,o),
(15,555,o),
(15,339,cs),
(15,113,o),
(192,-17,o),
(381,-17,cs),
(506,-17,o),
(596,40,o),
(645,124,c),
(640,131,l),
(590,61,o),
(514,15,o),
(422,15,cs),
(277,15,o),
(143,111,o),
(143,354,cs)
);
},
{
closed = 1;
nodes = (
(639,373,l),
(639,496,l),
(607,614,o),
(504,677,o),
(412,679,c),
(524,671,o),
(601,509,o),
(630,373,c)
);
}
);
width = 675;
}
);
leftKerningGroup = C;
unicode = 99;
},
{
glyphname = d;
layers = (
{
hints = (
{
horizontal = 1;
place = (0,8);
type = Stem;
},
{
horizontal = 1;
place = (668,8);
type = Stem;
},
{
place = (109,108);
type = Stem;
},
{
place = (522,123);
type = Stem;
}
);
layerId = "2CB89E61-3CCE-4A23-82C8-7DCD997832E5";
shapes = (
{
closed = 1;
nodes = (
(217,0,l),
(217,676,l),
(2,676,l),
(2,668,l),
(82,668,o),
(109,639,o),
(109,581,cs),
(109,95,ls),
(109,37,o),
(82,8,o),
(2,8,c),
(2,0,l)
);
},
{
closed = 1;
nodes = (
(522,186,o),
(495,8,o),
(376,8,c),
(555,1,o),
(645,152,o),
(645,349,cs),
(645,581,o),
(505,675,o),
(377,668,c),
(495,668,o),
(522,519,o),
(522,349,cs)
);
}
);
width = 770;
}
);
rightKerningGroup = B;
unicode = 100;
},
{
glyphname = e;
layers = (
{
hints = (
{
horizontal = 1;
place = (0,8);
type = Stem;
},
{
horizontal = 1;
place = (210,124);
type = Stem;
},
{
horizontal = 1;
place = (668,8);
type = Stem;
},
{
place = (109,108);
type = Stem;
},
{
place = (508,10);
type = Stem;
},
{
place = (602,10);
type = Stem;
},
{
place = (622,10);
type = Stem;
}
);
layerId = "2CB89E61-3CCE-4A23-82C8-7DCD997832E5";
shapes = (
{
closed = 1;
nodes = (
(217,676,l),
(2,676,l),
(2,668,l),
(82,668,o),
(109,639,o),
(109,581,cs),
(109,95,ls),
(109,37,o),
(82,8,o),
(2,8,c),
(2,0,l),
(217,0,l)
);
},
{
closed = 1;
nodes = (
(341,667,ls),
(499,667,o),
(602,507,o),
(602,408,c),
(612,408,l),
(612,489,ls),
(612,641,o),
(500,672,o),
(326,667,c)
);
},
{
closed = 1;
nodes = (
(326,334,l),
(326,328,l),
(341,328,ls),
(412,328,o),
(508,288,o),
(508,218,cs),
(508,210,l),
(518,210,l),
(518,334,l)
);
},
{
closed = 1;
nodes = (
(326,9,l),
(500,5,o),
(632,39,o),
(632,191,cs),
(632,272,l),
(622,272,l),
(622,173,o),
(499,9,o),
(341,9,cs)
);
}
);
width = 664;
}
);
unicode = 101;
},
{
glyphname = f;
layers = (
{
hints = (
{
horizontal = 1;
place = (0,8);
type = Stem;
},
{
horizontal = 1;
place = (169,123);
type = Stem;
},
{
horizontal = 1;
place = (668,8);
type = Stem;
},
{
place = (109,108);
type = Stem;
},
{
place = (508,10);
type = Stem;
},
{
place = (602,10);
type = Stem;
}
);
layerId = "2CB89E61-3CCE-4A23-82C8-7DCD997832E5";
shapes = (
{
closed = 1;
nodes = (
(217,676,l),
(2,676,l),
(2,668,l),
(82,668,o),
(109,639,o),
(109,581,cs),
(109,95,ls),
(109,37,o),
(82,8,o),
(2,8,c),
(2,0,l),
(217,0,l)
);
},
{
closed = 1;
nodes = (
(341,667,ls),
(499,667,o),
(600,507,o),
(602,408,c),
(612,408,l),
(612,489,ls),
(612,641,o),
(500,670,o),
(326,667,c)
);
},
{
closed = 1;
nodes = (
(336,287,ls),
(424,287,o),
(508,242,o),
(508,176,cs),
(508,169,l),
(518,169,l),
(518,292,l),
(326,292,l),
(326,287,l)
);
}
);
width = 659;
}
);
rightKerningGroup = f;
unicode = 102;
},
{
glyphname = g;
layers = (
{
hints = (
{
horizontal = 1;
place = (-12,15);
type = Stem;
},
{
horizontal = 1;
place = (-12,21);
target = up;
type = BottomGhost;
},
{
horizontal = 1;
place = (330,8);
type = Stem;
},
{
horizontal = 1;
place = (679,-20);
target = down;
type = TopGhost;
},
{
horizontal = 1;
place = (679,7);
type = Stem;
},
{
horizontal = 1;
place = (686,-20);
target = down;
type = TopGhost;
},
{
place = (15,128);
type = Stem;
},
{
place = (493,105);
type = Stem;
},
{
place = (659,9);
type = Stem;
}
);
layerId = "2CB89E61-3CCE-4A23-82C8-7DCD997832E5";
shapes = (
{
closed = 1;
nodes = (
(143,501,o),
(196,656,o),
(370,686,c),
(174,675,o),
(15,533,o),
(15,339,cs),
(15,116,o),
(165,-12,o),
(371,-12,c),
(242,-6,o),
(143,103,o),
(143,354,cs)
);
},
{
closed = 1;
nodes = (
(505,674,o),
(635,519,o),
(659,403,c),
(668,403,l),
(668,508,l),
(632,607,o),
(516,677,o),
(412,679,c)
);
},
{
closed = 1;
nodes = (
(493,90,ls),
(493,31,o),
(489,3,o),
(430,3,c),
(502,-3,o),
(598,41,o),
(598,150,cs),
(598,338,l),
(401,338,l),
(401,330,l),
(469,330,o),
(493,301,o),
(493,243,cs)
);
}
);
width = 775;
}
);
leftKerningGroup = C;
unicode = 103;
},
{
glyphname = h;
layers = (
{
hints = (
{
horizontal = 1;
place = (0,8);
type = Stem;
},
{
horizontal = 1;
place = (321,11);
type = Stem;
},
{
horizontal = 1;
place = (668,8);
type = Stem;
},
{
place = (109,108);
type = Stem;
},
{
place = (547,108);
type = Stem;
}
);
layerId = "2CB89E61-3CCE-4A23-82C8-7DCD997832E5";
shapes = (
{
closed = 1;
nodes = (
(109,95,ls),
(109,37,o),
(82,8,o),
(2,8,c),
(2,0,l),
(217,0,l),
(217,676,l),
(2,676,l),
(2,668,l),
(82,668,o),
(109,639,o),
(109,581,cs)
);
},
{
closed = 1;
nodes = (
(547,95,ls),
(547,37,o),
(520,8,o),
(440,8,c),
(440,0,l),
(655,0,l),
(655,676,l),
(440,676,l),
(440,668,l),
(520,668,o),
(547,639,o),
(547,581,cs),
(547,332,l),
(326,332,l),
(326,321,l),
(547,321,l)
);
}
);
width = 872;
}
);
unicode = 104;
},
{
glyphname = i;
layers = (
{
hints = (
{
horizontal = 1;
place = (0,8);
type = Stem;
},
{
horizontal = 1;
place = (668,8);
type = Stem;
},
{
place = (109,108);
type = Stem;
}
);
layerId = "2CB89E61-3CCE-4A23-82C8-7DCD997832E5";
shapes = (
{
closed = 1;
nodes = (
(217,676,l),
(2,676,l),
(2,668,l),
(82,668,o),
(109,639,o),
(109,581,cs),
(109,95,ls),
(109,37,o),
(82,8,o),
(2,8,c),
(2,0,l),
(217,0,l)
);
}
);
width = 435;
}
);
unicode = 105;
},
{
glyphname = j;
layers = (
{
hints = (
{
horizontal = 1;
place = (-12,11);
type = Stem;
},
{
horizontal = 1;
place = (-1,21);
target = up;
type = BottomGhost;
},
{
horizontal = 1;
place = (668,8);
type = Stem;
},
{
place = (5,78);
type = Stem;
},
{
place = (274,108);
type = Stem;
}
);
layerId = "2CB89E61-3CCE-4A23-82C8-7DCD997832E5";
shapes = (
{
closed = 1;
nodes = (
(382,676,l),
(146,676,l),
(146,668,l),
(226,668,o),
(274,636,o),
(274,563,cs),
(274,102,ls),
(274,48,o),
(256,-1,o),
(204,-1,c),
(350,-7,o),
(382,126,o),
(382,263,cs)
);
},
{
closed = 1;
nodes = (
(83,100,o),
(148,116,o),
(148,171,cs),
(148,194,o),
(134,209,o),
(106,209,cs),
(41,209,o),
(5,168,o),
(5,108,cs),
(5,47,o),
(47,-12,o),
(207,-12,c),
(139,-2,o),
(83,16,o),
(83,65,cs)
);
}
);
width = 598;
}
);
unicode = 106;
},
{
glyphname = k;
layers = (
{
hints = (
{
horizontal = 1;
place = (0,8);
type = Stem;
},
{
horizontal = 1;
place = (668,8);
type = Stem;
},
{
place = (109,111);
type = Stem;
},
{
place = (565,68);
type = Stem;
}
);
layerId = "2CB89E61-3CCE-4A23-82C8-7DCD997832E5";
shapes = (
{
closed = 1;
nodes = (
(2,676,l),
(2,668,l),
(82,668,o),
(109,639,o),
(109,581,cs),
(109,95,ls),
(109,37,o),
(82,8,o),
(2,8,c),
(2,0,l),
(220,0,l),
(220,676,l)
);
},
{
closed = 1;
nodes = (
(455,398,l),
(538,487,ls),
(578,530,o),
(627,613,o),
(633,676,c),
(508,676,l),
(508,668,l),
(622,668,o),
(539,502,o),
(491,451,cs),
(326,274,l),
(326,260,l),
(378,316,l),
(506,74,ls),
(518,51,o),
(529,8,o),
(488,8,c),
(488,0,l),
(682,0,l)
);
}
);
width = 801;
}
);
rightKerningGroup = k;
unicode = 107;
},
{
glyphname = l;
layers = (
{
hints = (
{
horizontal = 1;
place = (0,8);
type = Stem;
},
{
horizontal = 1;
place = (668,8);
type = Stem;
},
{
place = (109,106);
type = Stem;
},
{
place = (608,10);
type = Stem;
}
);
layerId = "2CB89E61-3CCE-4A23-82C8-7DCD997832E5";
shapes = (
{
closed = 1;
nodes = (
(2,668,l),
(82,668,o),
(109,639,o),
(109,581,cs),
(109,95,ls),
(109,37,o),
(82,8,o),
(2,8,c),
(2,0,l),
(215,0,l),
(215,676,l),
(2,676,l)
);
},
{
closed = 1;
nodes = (
(504,4,o),
(618,75,o),
(618,227,cs),
(618,308,l),
(608,308,l),
(608,212,o),
(492,9,o),
(326,9,c)
);
}
);
width = 643;
}
);
rightKerningGroup = L;
unicode = 108;
},
{
glyphname = m;
layers = (
{
hints = (
{
horizontal = 1;
place = (0,8);
type = Stem;
},
{
horizontal = 1;
place = (-15,21);
target = up;
type = BottomGhost;
},
{
horizontal = 1;
place = (668,8);
type = Stem;
},
{
place = (148,10);
type = Stem;
},
{
place = (702,108);
type = Stem;
}
);
layerId = "2CB89E61-3CCE-4A23-82C8-7DCD997832E5";
shapes = (
{
closed = 1;
nodes = (
(442,-15,l),
(455,-15,l),
(702,644,l),
(702,95,ls),
(702,37,o),
(675,8,o),
(595,8,c),
(595,0,l),
(810,0,l),
(810,676,l),
(702,676,l),
(507,149,ls),
(502,137,o),
(497,146,o),
(494,155,c),
(260,676,l),
(0,676,l),
(0,668,l),
(78,668,o),
(119,663,o),
(148,638,c),
(148,296,ls),
(148,162,o),
(151,8,o),
(0,8,c),
(0,0,l),
(198,0,l),
(162,32,o),
(158,212,o),
(158,364,cs),
(158,628,l),
(177,607,o),
(192,576,o),
(211,530,cs)
);
}
);
width = 1028;
}
);
unicode = 109;
},
{
glyphname = n;
layers = (
{
hints = (
{
horizontal = 1;
place = (0,8);
type = Stem;
},
{
horizontal = 1;
place = (668,8);
type = Stem;
},
{
place = (-20,672);
type = Stem;
}
);
layerId = "2CB89E61-3CCE-4A23-82C8-7DCD997832E5";
shapes = (
{
closed = 1;
nodes = (
(510,0,l),
(638,0,l),
(638,26,l),
(180,676,l),
(-20,676,l),
(-20,668,l),
(66,668,o),
(111,594,o),
(152,530,c)
);
},
{
closed = 1;
nodes = (
(467,676,l),
(467,668,l),
(605,668,o),
(628,468,o),
(628,316,c),
(628,338,o),
(629,358,o),
(629,377,c),
(632,564,o),
(644,643,o),
(652,676,c)
);
},
{
closed = 1;
nodes = (
(138,227,o),
(141,8,o),
(-10,8,c),
(-10,0,l),
(159,0,l),
(141,33,o),
(143,220,o),
(138,361,c)
);
}
);
width = 754;
}
);
unicode = 110;
},
{
glyphname = o;
layers = (
{
hints = (
{
horizontal = 1;
place = (-4,21);
target = up;
type = BottomGhost;
},
{
horizontal = 1;
place = (-3,21);
target = up;
type = BottomGhost;
},
{
horizontal = 1;
place = (679,-20);
target = down;
type = TopGhost;
},
{
horizontal = 1;
place = (682,-20);
target = down;
type = TopGhost;
},
{
place = (15,124);
type = Stem;
},
{
place = (538,124);
type = Stem;
}
);
layerId = "2CB89E61-3CCE-4A23-82C8-7DCD997832E5";
shapes = (
{
closed = 1;
nodes = (
(139,523,o),
(200,638,o),
(320,682,c),
(168,656,o),
(15,550,o),
(15,339,cs),
(15,130,o),
(164,24,o),
(314,-4,c),
(179,49,o),
(139,186,o),
(139,339,cs)
);
},
{
closed = 1;
nodes = (
(538,159,o),
(509,2,o),
(407,-3,c),
(523,-4,o),
(662,92,o),
(662,339,cs),
(662,584,o),
(520,680,o),
(404,679,c),
(492,677,o),
(538,560,o),
(538,339,cs)
);
}
);
width = 800;
}
);
leftKerningGroup = C;
rightKerningGroup = B;
unicode = 111;
},
{
glyphname = p;
layers = (
{
hints = (
{
horizontal = 1;
place = (0,8);
type = Stem;
},
{
horizontal = 1;
place = (262,15);
type = Stem;
},
{
horizontal = 1;
place = (668,8);
type = Stem;
},
{
place = (109,108);
type = Stem;
},
{
place = (471,118);
type = Stem;
}
);
layerId = "2CB89E61-3CCE-4A23-82C8-7DCD997832E5";
shapes = (
{
closed = 1;
nodes = (
(109,95,ls),
(109,37,o),
(82,8,o),
(2,8,c),
(2,0,l),
(217,0,l),
(217,676,l),
(2,676,l),
(2,668,l),
(82,668,o),
(109,639,o),
(109,581,cs)
);
},
{
closed = 1;
nodes = (
(422,668,o),
(471,592,o),
(471,482,cs),
(471,382,o),
(431,268,o),
(360,277,c),
(360,267,l),
(381,264,o),
(402,262,o),
(425,262,cs),
(507,262,o),
(589,334,o),
(589,474,cs),
(589,581,o),
(531,680,o),
(345,668,c)
);
}
);
width = 681;
}
);
rightKerningGroup = B;
unicode = 112;
},
{
glyphname = q;
layers = (
{
hints = (
{
horizontal = 1;
place = (-254,53);
type = Stem;
},
{
horizontal = 1;
place = (-4,21);
target = up;
type = BottomGhost;
},
{
horizontal = 1;
place = (-3,21);
target = up;
type = BottomGhost;
},
{
horizontal = 1;
place = (105,13);
type = Stem;
},
{
horizontal = 1;
place = (679,-20);
target = down;
type = TopGhost;
},
{
horizontal = 1;
place = (682,-20);
target = down;
type = TopGhost;
},
{
place = (15,124);
type = Stem;
},
{
place = (309,9);
type = Stem;
},
{
place = (538,124);
type = Stem;
}
);
layerId = "2CB89E61-3CCE-4A23-82C8-7DCD997832E5";
shapes = (
{
closed = 1;
nodes = (
(139,493,o),
(180,631,o),
(320,682,c),
(168,656,o),
(15,550,o),
(15,339,cs),
(15,130,o),
(164,24,o),
(314,-4,c),
(179,49,o),
(139,186,o),
(139,339,cs)
);
},
{
closed = 1;
nodes = (
(315,45,o),
(318,41,o),
(326,31,c),
(322,37,o),
(318,48,o),
(318,57,cs),
(318,72,o),
(326,105,o),
(383,105,cs),
(430,105,o),
(456,75,o),
(476,33,c),
(458,11,o),
(435,-2,o),
(407,-3,c),
(433,-3,o),
(459,2,o),
(485,12,c),
(499,-21,o),
(510,-58,o),
(526,-92,c),
(564,-180,o),
(629,-254,o),
(726,-254,cs),
(821,-254,o),
(897,-185,o),
(897,-100,c),
(895,-115,o),
(891,-130,o),
(886,-143,cs),
(871,-179,o),
(839,-205,o),
(774,-201,cs),
(658,-194,o),
(593,-61,o),
(526,32,c),
(601,79,o),
(662,175,o),
(662,339,cs),
(662,584,o),
(520,679,o),
(404,679,c),
(508,677,o),
(538,520,o),
(538,339,cs),
(538,231,o),
(528,132,o),
(497,68,c),
(466,98,o),
(433,118,o),
(394,118,cs),
(331,118,o),
(309,83,o),
(309,56,c)
);
}
);
width = 800;
}
);
leftKerningGroup = C;
rightKerningGroup = B;
unicode = 113;
},
{
glyphname = r;
layers = (
{
hints = (
{
horizontal = 1;
place = (0,8);
type = Stem;
},
{
horizontal = 1;
place = (307,10);
type = Stem;
},
{
horizontal = 1;
place = (668,8);
type = Stem;
},
{
place = (109,108);
type = Stem;
},
{
place = (353,46);
type = Stem;
},
{
place = (474,113);
type = Stem;
}
);
layerId = "2CB89E61-3CCE-4A23-82C8-7DCD997832E5";
shapes = (
{
closed = 1;
nodes = (
(217,676,l),
(2,676,l),
(2,668,l),
(82,668,o),
(109,639,o),
(109,581,cs),
(109,95,ls),
(109,37,o),
(82,8,o),
(2,8,c),
(2,0,l),
(217,0,l)
);
},
{
closed = 1;
nodes = (
(434,668,o),
(474,585,o),
(474,501,cs),
(474,410,o),
(428,318,o),
(353,317,c),
(353,307,l),
(434,307,o),
(436,99,o),
(504,0,c),
(713,0,l),
(615,10,o),
(588,111,o),
(544,187,cs),
(504,257,o),
(453,311,o),
(413,311,cs),
(391,311,o),
(397,312,o),
(412,314,cs),
(503,326,o),
(587,410,o),
(587,502,cs),
(587,652,o),
(420,673,o),
(344,668,c)
);
}
);
width = 733;
}
);
rightKerningGroup = r;
unicode = 114;
},
{
glyphname = s;
layers = (
{
hints = (
{
horizontal = 1;
place = (1,21);
target = up;
type = BottomGhost;
},
{
horizontal = 1;
place = (679,-20);
target = down;
type = TopGhost;
},
{
place = (35,9);
type = Stem;
},
{
place = (47,64);
type = Stem;
},
{
place = (412,89);
type = Stem;
},
{
place = (508,9);
type = Stem;
}
);
layerId = "2CB89E61-3CCE-4A23-82C8-7DCD997832E5";
shapes = (
{
closed = 1;
nodes = (
(405,672,o),
(481,576,o),
(508,461,c),
(517,461,l),
(517,532,ls),
(517,629,o),
(383,680,o),
(301,679,c)
);
},
{
closed = 1;
nodes = (
(444,13,o),
(501,74,o),
(501,157,cs),
(501,256,o),
(442,281,o),
(286,367,cs),
(214,407,o),
(111,457,o),
(111,547,cs),
(111,604,o),
(148,650,o),
(196,672,c),
(102,642,o),
(47,571,o),
(47,480,cs),
(47,358,o),
(130,315,o),
(272,238,cs),
(332,205,o),
(412,161,o),
(412,89,cs),
(412,45,o),
(389,14,o),
(343,3,c)
);
},
{
closed = 1;
nodes = (
(151,15,o),
(56,171,o),
(44,287,c),
(35,287,l),
(41,168,ls),
(46,78,o),
(169,2,o),
(278,1,c)
);
}
);
width = 568;
}
);
leftKerningGroup = S2;
rightKerningGroup = S;
unicode = 115;
},
{
glyphname = t;
layers = (
{
hints = (
{
horizontal = 1;
place = (0,8);
type = Stem;
},
{
horizontal = 1;
place = (676,-20);
target = down;
type = TopGhost;
},
{
place = (241,108);
type = Stem;
},
{
place = (659,10);
type = Stem;
}
);
layerId = "2CB89E61-3CCE-4A23-82C8-7DCD997832E5";
shapes = (
{
closed = 1;
nodes = (
(349,0,l),
(349,676,l),
(241,676,l),
(241,95,l),
(240,37,o),
(214,8,o),
(134,8,c),
(134,0,l)
);
},
{
closed = 1;
nodes = (
(30,676,l),
(30,443,l),
(30,462,o),
(33,480,o),
(36,497,cs),
(51,598,o),
(106,670,o),
(182,676,c)
);
},
{
closed = 1;
nodes = (
(669,373,l),
(669,487,ls),
(669,581,o),
(594,667,o),
(458,667,c),
(546,641,o),
(659,469,o),
(659,373,c)
);
}
);
width = 699;
}
);
rightKerningGroup = t;
unicode = 116;
},
{
glyphname = u;
layers = (
{
hints = (
{
horizontal = 1;
place = (-14,14);
type = Stem;
},
{
horizontal = 1;
place = (668,8);
type = Stem;
},
{
place = (84,110);
type = Stem;
},
{
place = (493,161);
type = Stem;
}
);
layerId = "2CB89E61-3CCE-4A23-82C8-7DCD997832E5";
shapes = (
{
closed = 1;
nodes = (
(654,676,l),
(493,676,l),
(493,668,l),
(631,668,o),
(654,468,o),
(654,316,c),
(655,414,l)
);
},
{
closed = 1;
nodes = (
(194,676,l),
(0,676,l),
(0,668,l),
(25,668,ls),
(54,668,o),
(84,647,o),
(84,597,cs),
(84,242,ls),
(84,84,o),
(175,-14,o),
(390,-14,cs),
(465,-14,o),
(526,2,o),
(571,34,c),
(538,12,o),
(492,0,o),
(443,0,cs),
(326,0,o),
(194,58,o),
(194,222,cs)
);
}
);
width = 736;
}
);
rightKerningGroup = u;
unicode = 117;
},
{
glyphname = v;
layers = (
{
hints = (
{
horizontal = 1;
place = (-7,21);
target = up;
type = BottomGhost;
},
{
horizontal = 1;
place = (668,8);
type = Stem;
},
{
place = (568,37);
type = Stem;
}
);
layerId = "2CB89E61-3CCE-4A23-82C8-7DCD997832E5";
shapes = (
{
closed = 1;
nodes = (
(482,676,l),
(482,668,l),
(578,668,o),
(590,555,o),
(537,410,c),
(590,546,o),
(616,631,o),
(601,676,c)
);
},
{
closed = 1;
nodes = (
(400,63,l),
(180,676,l),
(-15,676,l),
(-15,668,l),
(39,668,o),
(70,634,o),
(88,588,cs),
(312,-7,l),
(370,-7,l)
);
}
);
width = 696;
}
);
leftKerningGroup = V2;
rightKerningGroup = V;
unicode = 118;
},
{
glyphname = w;
layers = (
{
hints = (
{
horizontal = 1;
place = (-7,21);
target = up;
type = BottomGhost;
},
{
horizontal = 1;
place = (668,8);
type = Stem;
},
{
place = (981,37);
type = Stem;
}
);
layerId = "2CB89E61-3CCE-4A23-82C8-7DCD997832E5";
shapes = (
{
closed = 1;
nodes = (
(400,63,l),
(180,676,l),
(-15,676,l),
(-15,668,l),
(39,668,o),
(70,634,o),
(88,588,cs),
(312,-7,l),
(370,-7,l)
);
},
{
closed = 1;
nodes = (
(895,676,l),
(895,668,l),
(991,668,o),
(1003,555,o),
(950,410,c),
(1005,546,o),
(1029,631,o),
(1014,676,c)
);
},
{
closed = 1;
nodes = (
(813,63,l),
(593,676,l),
(398,676,l),
(398,668,l),
(452,668,o),
(484,634,o),
(501,588,cs),
(725,-7,l),
(783,-7,l)
);
}
);
width = 1109;
}
);
leftKerningGroup = V2;
rightKerningGroup = V;
unicode = 119;
},
{
glyphname = x;
layers = (
{
hints = (
{
horizontal = 1;
place = (0,8);
type = Stem;
},
{
horizontal = 1;
place = (668,8);
type = Stem;
},
{
place = (-24,116);
type = Stem;
},
{
place = (490,50);
type = Stem;
}
);
layerId = "2CB89E61-3CCE-4A23-82C8-7DCD997832E5";
shapes = (
{
closed = 1;
nodes = (
(411,676,l),
(411,668,l),
(523,668,o),
(496,528,o),
(450,453,cs),
(423,409,l),
(452,449,o),
(556,613,o),
(540,676,c)
);
},
{
closed = 1;
nodes = (
(-35,668,l),
(5,668,o),
(36,641,o),
(55,609,cs),
(358,92,ls),
(381,53,o),
(385,8,o),
(328,8,c),
(328,0,l),
(538,0,l),
(142,676,l),
(-35,676,l)
);
},
{
closed = 1;
nodes = (
(-24,0,l),
(97,0,l),
(69,65,o),
(176,184,o),
(205,244,c),
(176,196,o),
(43,8,o),
(-24,8,c)
);
}
);
width = 692;
}
);
unicode = 120;
},
{
glyphname = y;
layers = (
{
hints = (
{
horizontal = 1;
place = (0,8);
type = Stem;
},
{
horizontal = 1;
place = (668,8);
type = Stem;
},
{
place = (243,108);
type = Stem;
},
{
place = (547,58);
type = Stem;
}
);
layerId = "2CB89E61-3CCE-4A23-82C8-7DCD997832E5";
shapes = (
{
closed = 1;
nodes = (
(175,676,l),
(-21,676,l),
(-21,668,l),
(37,668,o),
(64,644,o),
(82,609,cs),
(243,307,l),
(243,95,ls),
(243,37,o),
(216,8,o),
(136,8,c),
(136,0,l),
(351,0,l),
(351,327,l)
);
},
{
closed = 1;
nodes = (
(457,676,l),
(457,668,l),
(629,668,o),
(512,439,o),
(454,356,c),
(503,416,o),
(601,595,o),
(605,676,c)
);
}
);
width = 684;
}
);
rightKerningGroup = y;
unicode = 121;
},
{
glyphname = z;
layers = (
{
hints = (
{
horizontal = 1;
place = (0,21);
target = up;
type = BottomGhost;
},
{
horizontal = 1;
place = (676,-20);
target = down;
type = TopGhost;
},
{
place = (589,10);
type = Stem;
}
);
layerId = "2CB89E61-3CCE-4A23-82C8-7DCD997832E5";
shapes = (
{
closed = 1;
nodes = (
(137,0,l),
(506,676,l),
(390,676,l),
(21,0,l)
);
},
{
closed = 1;
nodes = (
(59,676,l),
(59,473,l),
(59,491,o),
(63,507,o),
(65,524,cs),
(77,608,o),
(116,672,o),
(202,676,c)
);
},
{
closed = 1;
nodes = (
(293,9,l),
(458,0,o),
(599,39,o),
(599,191,cs),
(599,272,l),
(589,272,l),
(589,173,o),
(466,9,o),
(308,9,cs)
);
}
);
width = 657;
}
);
unicode = 122;
},
{
glyphname = exclamdown;
layers = (
{
hints = (
{
horizontal = 1;
place = (490,62);
type = Stem;
},
{
place = (40,106);
type = Stem;
}
);
layerId = "2CB89E61-3CCE-4A23-82C8-7DCD997832E5";
shapes = (
{
closed = 1;
nodes = (
(256,609,o),
(239,625,o),
(220,625,cs),
(168,625,o),
(158,552,o),
(87,552,cs),
(64,552,o),
(39,560,o),
(36,588,c),
(36,533,o),
(84,490,o),
(146,490,cs),
(208,490,o),
(256,533,o),
(256,588,cs)
);
},
{
closed = 1;
nodes = (
(40,-16,o),
(87,-63,o),
(146,-63,c),
(146,460,l),
(142,460,l),
(142,288,o),
(40,178,o),
(40,43,cs)
);
}
);
width = 292;
}
);
unicode = 161;
},
{
glyphname = Thorn;
layers = (
{
hints = (
{
horizontal = 1;
place = (0,8);
type = Stem;
},
{
horizontal = 1;
place = (172,10);
type = Stem;
},
{
horizontal = 1;
place = (668,8);
type = Stem;
},
{
place = (109,107);
type = Stem;
},
{
place = (458,110);
type = Stem;
}
);
layerId = "2CB89E61-3CCE-4A23-82C8-7DCD997832E5";
shapes = (
{
closed = 1;
nodes = (
(216,676,l),
(2,676,l),
(2,668,l),
(82,668,o),
(109,639,o),
(109,581,cs),
(109,95,ls),
(109,37,o),
(82,8,o),
(2,8,c),
(2,0,l),
(216,0,l)
);
},
{
closed = 1;
nodes = (
(326,572,l),
(422,569,o),
(458,480,o),
(458,386,cs),
(458,287,o),
(418,183,o),
(343,182,c),
(343,172,l),
(446,172,o),
(568,225,o),
(568,389,cs),
(568,485,o),
(519,583,o),
(380,583,cs),
(362,583,o),
(346,582,o),
(326,581,c)
);
}
);
width = 671;
}
);
rightKerningGroup = B;
unicode = 222;
},
{
glyphname = germandbls;
layers = (
{
hints = (
{
horizontal = 1;
place = (0,21);
target = up;
type = BottomGhost;
},
{
horizontal = 1;
place = (448,8);
type = Stem;
},
{
horizontal = 1;
place = (729,8);
type = Stem;
},
{
place = (58,103);
type = Stem;
},
{
place = (383,107);
type = Stem;
},
{
place = (387,56);
type = Stem;
}
);
layerId = "2CB89E61-3CCE-4A23-82C8-7DCD997832E5";
shapes = (
{
closed = 1;
nodes = (
(122,737,o),
(58,639,o),
(58,505,cs),
(58,0,l),
(161,0,l),
(161,591,ls),
(161,716,o),
(258,735,o),
(310,737,c)
);
},
{
closed = 1;
nodes = (
(490,347,o),
(441,444,o),
(343,454,c),
(407,473,o),
(443,533,o),
(443,595,cs),
(443,668,o),
(405,731,o),
(322,729,c),
(375,729,o),
(387,664,o),
(387,605,cs),
(387,524,o),
(365,456,o),
(299,456,c),
(299,448,l),
(354,448,o),
(383,400,o),
(383,258,cs),
(383,47,o),
(354,17,o),
(312,17,cs),
(307,17,o),
(302,17,o),
(298,18,c),
(311,13,o),
(323,11,o),
(335,11,cs),
(419,11,o),
(490,120,o),
(490,255,cs)
);
}
);
width = 609;
}
);
unicode = 223;
},
{
glyphname = thorn;
layers = (
{
hints = (
{
horizontal = 1;
place = (0,8);
type = Stem;
},
{
horizontal = 1;
place = (172,10);
type = Stem;
},
{
horizontal = 1;
place = (668,8);
type = Stem;
},
{
place = (109,107);
type = Stem;
},
{
place = (458,110);
type = Stem;
}
);
layerId = "2CB89E61-3CCE-4A23-82C8-7DCD997832E5";
shapes = (
{
closed = 1;
nodes = (
(216,676,l),
(2,676,l),
(2,668,l),
(82,668,o),
(109,639,o),
(109,581,cs),
(109,95,ls),
(109,37,o),
(82,8,o),
(2,8,c),
(2,0,l),
(216,0,l)
);
},
{
closed = 1;
nodes = (
(326,572,l),
(422,569,o),
(458,480,o),
(458,386,cs),
(458,287,o),
(418,183,o),
(343,182,c),
(343,172,l),
(446,172,o),
(568,225,o),
(568,389,cs),
(568,485,o),
(519,583,o),
(380,583,cs),
(362,583,o),
(346,582,o),
(326,581,c)
);
}
);
width = 671;
}
);
rightKerningGroup = B;
unicode = 254;
},
{
glyphname = ccedilla;
layers = (
{
hints = (
{
horizontal = 1;
place = (-259,11);
type = Stem;
},
{
horizontal = 1;
place = (-85,8);
type = Stem;
},
{
horizontal = 1;
place = (-17,32);
type = Stem;
},
{
horizontal = 1;
place = (-16,31);
type = Stem;
},
{
horizontal = 1;
place = (679,-20);
target = down;
type = TopGhost;
},
{
horizontal = 1;
place = (687,-20);
target = down;
type = TopGhost;
},
{
place = (15,128);
type = Stem;
},
{
place = (295,11);
type = Stem;
},
{
place = (396,32);
type = Stem;
},
{
place = (630,9);
type = Stem;
}
);
layerId = "2CB89E61-3CCE-4A23-82C8-7DCD997832E5";
shapes = (
{
closed = 1;
nodes = (
(428,-107,o),
(401,-77,o),
(359,-77,cs),
(334,-77,o),
(312,-82,o),
(310,-84,c),
(362,-17,l),
(368,-17,o),
(375,-17,o),
(381,-17,cs),
(506,-17,o),
(596,40,o),
(645,124,c),
(640,131,l),
(590,61,o),
(514,15,o),
(422,15,cs),
(277,15,o),
(143,111,o),
(143,354,cs),
(143,501,o),
(196,657,o),
(370,687,c),
(177,674,o),
(15,555,o),
(15,339,cs),
(15,125,o),
(173,-3,o),
(350,-16,c),
(295,-88,l),
(295,-101,l),
(306,-101,l),
(313,-93,o),
(325,-85,o),
(342,-85,cs),
(378,-85,o),
(396,-121,o),
(396,-157,cs),
(396,-198,o),
(373,-248,o),
(332,-248,cs),
(319,-248,o),
(306,-243,o),
(302,-235,c),
(297,-242,l),
(308,-254,o),
(326,-259,o),
(348,-259,cs),
(392,-259,o),
(428,-220,o),
(428,-157,cs)
);
},
{
closed = 1;
nodes = (
(639,373,l),
(639,496,l),
(607,614,o),
(504,677,o),
(412,679,c),
(524,671,o),
(601,509,o),
(630,373,c)
);
}
);
width = 675;
}
);
leftKerningGroup = C;
unicode = 231;
},
{
glyphname = Ccedilla;
layers = (
{
hints = (
{
horizontal = 1;
place = (-259,11);
type = Stem;
},
{
horizontal = 1;
place = (-85,8);
type = Stem;
},
{
horizontal = 1;
place = (-17,32);
type = Stem;
},
{
horizontal = 1;
place = (-16,31);
type = Stem;
},
{
horizontal = 1;
place = (679,-20);
target = down;
type = TopGhost;
},
{
horizontal = 1;
place = (687,-20);
target = down;
type = TopGhost;
},
{
place = (15,128);
type = Stem;
},
{
place = (295,11);
type = Stem;
},
{
place = (396,32);
type = Stem;
},
{
place = (630,9);
type = Stem;
}
);
layerId = "2CB89E61-3CCE-4A23-82C8-7DCD997832E5";
shapes = (
{
closed = 1;
nodes = (
(334,-77,o),
(312,-82,o),
(310,-84,c),
(362,-17,l),
(368,-17,o),
(375,-17,o),
(381,-17,cs),
(506,-17,o),
(596,40,o),
(645,124,c),
(640,131,l),
(590,61,o),
(514,15,o),
(422,15,cs),
(277,15,o),
(143,111,o),
(143,354,cs),
(143,501,o),
(196,657,o),
(370,687,c),
(177,674,o),
(15,555,o),
(15,339,cs),
(15,125,o),
(173,-3,o),
(350,-16,c),
(295,-88,l),
(295,-101,l),
(306,-101,l),
(313,-93,o),
(325,-85,o),
(342,-85,cs),
(378,-85,o),
(396,-121,o),
(396,-157,cs),
(396,-198,o),
(373,-248,o),
(332,-248,cs),
(319,-248,o),
(306,-243,o),
(302,-235,c),
(297,-242,l),
(308,-254,o),
(326,-259,o),
(348,-259,cs),
(392,-259,o),
(428,-220,o),
(428,-157,cs),
(428,-107,o),
(401,-77,o),
(359,-77,cs)
);
},
{
closed = 1;
nodes = (
(639,373,l),
(639,496,l),
(607,614,o),
(504,677,o),
(412,679,c),
(524,671,o),
(601,509,o),
(630,373,c)
);
}
);
width = 675;
}
);
leftKerningGroup = C;
unicode = 199;
},
{
glyphname = Agrave;
layers = (
{
hints = (
{
horizontal = 1;
place = (0,8);
type = Stem;
},
{
horizontal = 1;
place = (301,10);
type = Stem;
},
{
horizontal = 1;
place = (668,8);
type = Stem;
},
{
place = (-60,141);
type = Stem;
}
);
layerId = "2CB89E61-3CCE-4A23-82C8-7DCD997832E5";
shapes = (
{
closed = 1;
nodes = (
(322,855,ls),
(291,878,o),
(248,911,o),
(220,911,cs),
(200,911,o),
(188,902,o),
(188,883,cs),
(188,868,o),
(199,855,o),
(214,844,cs),
(269,805,o),
(369,788,o),
(420,772,c),
(433,772,l)
);
},
{
closed = 1;
nodes = (
(119,676,l),
(119,668,l),
(199,668,o),
(219,636,o),
(238,580,cs),
(329,311,l),
(155,311,l),
(152,301,l),
(333,301,l),
(391,129,ls),
(426,25,o),
(394,8,o),
(317,8,c),
(317,0,l),
(603,0,l),
(571,8,o),
(541,28,o),
(511,114,cs),
(317,676,l)
);
},
{
closed = 1;
nodes = (
(112,211,o),
(36,8,o),
(-60,8,c),
(-60,0,l),
(84,0,l),
(72,41,o),
(92,141,o),
(134,278,c)
);
}
);
width = 671;
}
);
leftKerningGroup = A2;
rightKerningGroup = A;
unicode = 192;
},
{
glyphname = Aacute;
layers = (
{
hints = (
{
horizontal = 1;
place = (0,8);
type = Stem;
},
{
horizontal = 1;
place = (301,10);
type = Stem;
},
{
horizontal = 1;
place = (668,8);
type = Stem;
},
{
place = (-60,141);
type = Stem;
}
);
layerId = "2CB89E61-3CCE-4A23-82C8-7DCD997832E5";
shapes = (
{
closed = 1;
nodes = (
(208,773,l),
(221,773,l),
(240,778,o),
(348,846,o),
(404,894,cs),
(442,926,o),
(440,953,o),
(403,953,cs),
(365,953,o),
(332,922,o),
(304,888,cs)
);
},
{
closed = 1;
nodes = (
(119,676,l),
(119,668,l),
(199,668,o),
(219,636,o),
(238,580,cs),
(329,311,l),
(155,311,l),
(152,301,l),
(333,301,l),
(391,129,ls),
(426,25,o),
(394,8,o),
(317,8,c),
(317,0,l),
(603,0,l),
(571,8,o),
(541,28,o),
(511,114,cs),
(317,676,l)
);
},
{
closed = 1;
nodes = (
(112,211,o),
(36,8,o),
(-60,8,c),
(-60,0,l),
(84,0,l),
(72,41,o),
(92,141,o),
(134,278,c)
);
}
);
width = 671;
}
);
leftKerningGroup = A2;
rightKerningGroup = A;
unicode = 193;
},
{
glyphname = Acircumflex;
layers = (
{
hints = (
{
horizontal = 1;
place = (0,8);
type = Stem;
},
{
horizontal = 1;
place = (301,10);
type = Stem;
},
{
horizontal = 1;
place = (668,8);
type = Stem;
},
{
place = (-60,141);
type = Stem;
}
);
layerId = "2CB89E61-3CCE-4A23-82C8-7DCD997832E5";
shapes = (
{
closed = 1;
nodes = (
(322,855,l),
(461,772,l),
(469,766,o),
(476,769,o),
(474,774,c),
(333,896,l),
(314,896,l),
(170,775,l),
(166,768,o),
(175,766,o),
(184,773,c)
);
},
{
closed = 1;
nodes = (
(119,676,l),
(119,668,l),
(199,668,o),
(219,636,o),
(238,580,cs),
(329,311,l),
(155,311,l),
(152,301,l),
(333,301,l),
(391,129,ls),
(426,25,o),
(394,8,o),
(317,8,c),
(317,0,l),
(603,0,l),
(571,8,o),
(541,28,o),
(511,114,cs),
(317,676,l)
);
},
{
closed = 1;
nodes = (
(112,211,o),
(36,8,o),
(-60,8,c),
(-60,0,l),
(84,0,l),
(72,41,o),
(92,141,o),
(134,278,c)
);
}
);
width = 671;
}
);
leftKerningGroup = A2;
rightKerningGroup = A;
unicode = 194;
},
{
glyphname = Atilde;
layers = (
{
hints = (
{
horizontal = 1;
place = (0,8);
type = Stem;
},
{
horizontal = 1;
place = (301,10);
type = Stem;
},
{
horizontal = 1;
place = (668,8);
type = Stem;
},
{
horizontal = 1;
place = (758,55);
type = Stem;
},
{
horizontal = 1;
place = (796,59);
type = Stem;
},
{
place = (-60,141);
type = Stem;
}
);
layerId = "2CB89E61-3CCE-4A23-82C8-7DCD997832E5";
shapes = (
{
closed = 1;
nodes = (
(165,779,o),
(194,796,o),
(229,796,cs),
(281,796,o),
(329,758,o),
(384,758,cs),
(469,758,o),
(514,849,o),
(516,919,c),
(510,849,o),
(467,813,o),
(427,813,cs),
(370,813,o),
(308,855,o),
(249,855,cs),
(171,855,o),
(153,794,o),
(166,751,c)
);
},
{
closed = 1;
nodes = (
(119,676,l),
(119,668,l),
(199,668,o),
(219,636,o),
(238,580,cs),
(329,311,l),
(155,311,l),
(152,301,l),
(333,301,l),
(391,129,ls),
(426,25,o),
(394,8,o),
(317,8,c),
(317,0,l),
(603,0,l),
(571,8,o),
(541,28,o),
(511,114,cs),
(317,676,l)
);
},
{
closed = 1;
nodes = (
(112,211,o),
(36,8,o),
(-60,8,c),
(-60,0,l),
(84,0,l),
(72,41,o),
(92,141,o),
(134,278,c)
);
}
);
width = 671;
}
);
leftKerningGroup = A2;
rightKerningGroup = A;
unicode = 195;
},
{
glyphname = Adieresis;
layers = (
{
hints = (
{
horizontal = 1;
place = (0,8);
type = Stem;
},
{
horizontal = 1;
place = (301,10);
type = Stem;
},
{
horizontal = 1;
place = (668,8);
type = Stem;
},
{
horizontal = 1;
place = (772,52);
type = Stem;
},
{
place = (-60,141);
type = Stem;
}
);
layerId = "2CB89E61-3CCE-4A23-82C8-7DCD997832E5";
shapes = (
{
closed = 1;
nodes = (
(303,876,o),
(285,887,o),
(269,887,cs),
(223,887,o),
(215,824,o),
(153,824,cs),
(133,824,o),
(108,833,o),
(108,857,c),
(108,812,o),
(150,772,o),
(204,772,cs),
(263,772,o),
(303,811,o),
(303,858,cs)
);
},
{
closed = 1;
nodes = (
(535,876,o),
(517,887,o),
(501,887,cs),
(455,887,o),
(447,824,o),
(385,824,cs),
(365,824,o),
(340,833,o),
(340,857,c),
(340,812,o),
(381,772,o),
(436,772,cs),
(495,772,o),
(535,812,o),
(535,858,cs)
);
},
{
closed = 1;
nodes = (
(391,129,ls),
(426,25,o),
(394,8,o),
(317,8,c),
(317,0,l),
(603,0,l),
(571,8,o),
(541,28,o),
(511,114,cs),
(317,676,l),
(119,676,l),
(119,668,l),
(199,668,o),
(219,636,o),
(238,580,cs),
(329,311,l),
(155,311,l),
(152,301,l),
(333,301,l)
);
},
{
closed = 1;
nodes = (
(112,211,o),
(36,8,o),
(-60,8,c),
(-60,0,l),
(84,0,l),
(72,41,o),
(92,141,o),
(134,278,c)
);
}
);
width = 671;
}
);
leftKerningGroup = A2;
rightKerningGroup = A;
unicode = 196;
},
{
glyphname = Aring;
layers = (
{
hints = (
{
horizontal = 1;
place = (0,8);
type = Stem;
},
{
horizontal = 1;
place = (301,10);
type = Stem;
},
{
horizontal = 1;
place = (668,8);
type = Stem;
},
{
horizontal = 1;
place = (772,8);
type = Stem;
},
{
horizontal = 1;
place = (960,8);
type = Stem;
},
{
place = (-60,141);
type = Stem;
},
{
place = (226,35);
type = Stem;
},
{
place = (382,35);
type = Stem;
}
);
layerId = "2CB89E61-3CCE-4A23-82C8-7DCD997832E5";
shapes = (
{
closed = 1;
nodes = (
(226,815,o),
(275,772,o),
(336,772,cs),
(380,772,o),
(417,815,o),
(417,870,cs),
(417,924,o),
(380,968,o),
(336,968,cs),
(275,968,o),
(226,924,o),
(226,870,cs)
);
},
{
closed = 1;
nodes = (
(368,960,o),
(382,916,o),
(382,872,cs),
(382,826,o),
(366,780,o),
(336,780,cs),
(285,780,o),
(261,825,o),
(261,870,cs),
(261,915,o),
(285,960,o),
(336,960,cs)
);
},
{
closed = 1;
nodes = (
(119,676,l),
(119,668,l),
(199,668,o),
(219,636,o),
(238,580,cs),
(329,311,l),
(155,311,l),
(152,301,l),
(333,301,l),
(391,129,ls),
(426,25,o),
(394,8,o),
(317,8,c),
(317,0,l),
(603,0,l),
(571,8,o),
(541,28,o),
(511,114,cs),
(317,676,l)
);
},
{
closed = 1;
nodes = (
(112,211,o),
(36,8,o),
(-60,8,c),
(-60,0,l),
(84,0,l),
(72,41,o),
(92,141,o),
(134,278,c)
);
}
);
width = 671;
}
);
leftKerningGroup = A2;
rightKerningGroup = A;
unicode = 197;
},
{
glyphname = Egrave;
layers = (
{
hints = (
{
horizontal = 1;
place = (0,8);
type = Stem;
},
{
horizontal = 1;
place = (210,124);
type = Stem;
},
{
horizontal = 1;
place = (668,8);
type = Stem;
},
{
place = (109,108);
type = Stem;
},
{
place = (508,10);
type = Stem;
},
{
place = (602,10);
type = Stem;
},
{
place = (622,10);
type = Stem;
}
);
layerId = "2CB89E61-3CCE-4A23-82C8-7DCD997832E5";
shapes = (
{
closed = 1;
nodes = (
(369,855,ls),
(338,878,o),
(295,911,o),
(267,911,cs),
(247,911,o),
(235,902,o),
(235,883,cs),
(235,868,o),
(246,855,o),
(261,844,cs),
(316,805,o),
(416,788,o),
(467,772,c),
(480,772,l)
);
},
{
closed = 1;
nodes = (
(217,676,l),
(2,676,l),
(2,668,l),
(82,668,o),
(109,639,o),
(109,581,cs),
(109,95,ls),
(109,37,o),
(82,8,o),
(2,8,c),
(2,0,l),
(217,0,l)
);
},
{
closed = 1;
nodes = (
(341,667,ls),
(499,667,o),
(602,507,o),
(602,408,c),
(612,408,l),
(612,489,ls),
(612,641,o),
(500,670,o),
(326,667,c)
);
},
{
closed = 1;
nodes = (
(326,334,l),
(326,328,l),
(341,328,ls),
(412,328,o),
(508,288,o),
(508,218,cs),
(508,210,l),
(518,210,l),
(518,334,l)
);
},
{
closed = 1;
nodes = (
(326,9,l),
(500,6,o),
(632,39,o),
(632,191,cs),
(632,272,l),
(622,272,l),
(622,173,o),
(499,9,o),
(341,9,cs)
);
}
);
width = 664;
}
);
unicode = 200;
},
{
glyphname = Eacute;
layers = (
{
hints = (
{
horizontal = 1;
place = (0,8);
type = Stem;
},
{
horizontal = 1;
place = (210,124);
type = Stem;
},
{
horizontal = 1;
place = (668,8);
type = Stem;
},
{
place = (109,108);
type = Stem;
},
{
place = (508,10);
type = Stem;
},
{
place = (602,10);
type = Stem;
},
{
place = (622,10);
type = Stem;
}
);
layerId = "2CB89E61-3CCE-4A23-82C8-7DCD997832E5";
shapes = (
{
closed = 1;
nodes = (
(270,774,l),
(283,774,l),
(302,779,o),
(410,847,o),
(466,895,cs),
(504,927,o),
(502,954,o),
(465,954,cs),
(427,954,o),
(394,923,o),
(366,889,cs)
);
},
{
closed = 1;
nodes = (
(217,676,l),
(2,676,l),
(2,668,l),
(82,668,o),
(109,639,o),
(109,581,cs),
(109,95,ls),
(109,37,o),
(82,8,o),
(2,8,c),
(2,0,l),
(217,0,l)
);
},
{
closed = 1;
nodes = (
(341,667,ls),
(499,667,o),
(602,507,o),
(602,408,c),
(612,408,l),
(612,489,ls),
(612,641,o),
(500,670,o),
(326,667,c)
);
},
{
closed = 1;
nodes = (
(326,334,l),
(326,328,l),
(341,328,ls),
(412,328,o),
(508,288,o),
(508,218,cs),
(508,210,l),
(518,210,l),
(518,334,l)
);
},
{
closed = 1;
nodes = (
(326,9,l),
(500,6,o),
(632,39,o),
(632,191,cs),
(632,272,l),
(622,272,l),
(622,173,o),
(499,9,o),
(341,9,cs)
);
}
);
width = 664;
}
);
unicode = 201;
},
{
glyphname = Ecircumflex;
layers = (
{
hints = (
{
horizontal = 1;
place = (0,8);
type = Stem;
},
{
horizontal = 1;
place = (210,124);
type = Stem;
},
{
horizontal = 1;
place = (668,8);
type = Stem;
},
{
place = (109,108);
type = Stem;
},
{
place = (508,10);
type = Stem;
},
{
place = (602,10);
type = Stem;
},
{
place = (622,10);
type = Stem;
}
);
layerId = "2CB89E61-3CCE-4A23-82C8-7DCD997832E5";
shapes = (
{
closed = 1;
nodes = (
(352,854,l),
(491,771,l),
(499,765,o),
(506,768,o),
(504,773,c),
(363,895,l),
(344,895,l),
(200,774,l),
(196,767,o),
(205,765,o),
(214,772,c)
);
},
{
closed = 1;
nodes = (
(217,676,l),
(2,676,l),
(2,668,l),
(82,668,o),
(109,639,o),
(109,581,cs),
(109,95,ls),
(109,37,o),
(82,8,o),
(2,8,c),
(2,0,l),
(217,0,l)
);
},
{
closed = 1;
nodes = (
(341,667,ls),
(499,667,o),
(602,507,o),
(602,408,c),
(612,408,l),
(612,489,ls),
(612,641,o),
(500,670,o),
(326,667,c)
);
},
{
closed = 1;
nodes = (
(326,334,l),
(326,328,l),
(341,328,ls),
(412,328,o),
(508,288,o),
(508,218,cs),
(508,210,l),
(518,210,l),
(518,334,l)
);
},
{
closed = 1;
nodes = (
(326,9,l),
(500,6,o),
(632,39,o),
(632,191,cs),
(632,272,l),
(622,272,l),
(622,173,o),
(499,9,o),
(341,9,cs)
);
}
);
width = 664;
}
);
unicode = 202;
},
{
glyphname = Edieresis;
layers = (
{
hints = (
{
horizontal = 1;
place = (0,8);
type = Stem;
},
{
horizontal = 1;
place = (210,124);
type = Stem;
},
{
horizontal = 1;
place = (668,8);
type = Stem;
},
{
horizontal = 1;
place = (772,52);
type = Stem;
},
{
place = (109,108);
type = Stem;
},
{
place = (508,10);
type = Stem;
},
{
place = (602,10);
type = Stem;
},
{
place = (622,10);
type = Stem;
}
);
layerId = "2CB89E61-3CCE-4A23-82C8-7DCD997832E5";
shapes = (
{
closed = 1;
nodes = (
(333,876,o),
(315,887,o),
(299,887,cs),
(253,887,o),
(245,824,o),
(183,824,cs),
(163,824,o),
(138,833,o),
(138,857,c),
(138,812,o),
(180,772,o),
(234,772,cs),
(293,772,o),
(333,811,o),
(333,858,cs)
);
},
{
closed = 1;
nodes = (
(565,876,o),
(547,887,o),
(531,887,cs),
(485,887,o),
(477,824,o),
(415,824,cs),
(395,824,o),
(370,833,o),
(370,857,c),
(370,812,o),
(411,772,o),
(466,772,cs),
(525,772,o),
(565,812,o),
(565,858,cs)
);
},
{
closed = 1;
nodes = (
(217,676,l),
(2,676,l),
(2,668,l),
(82,668,o),
(109,639,o),
(109,581,cs),
(109,95,ls),
(109,37,o),
(82,8,o),
(2,8,c),
(2,0,l),
(217,0,l)
);
},
{
closed = 1;
nodes = (
(341,667,ls),
(499,667,o),
(602,507,o),
(602,408,c),
(612,408,l),
(612,489,ls),
(612,641,o),
(500,670,o),
(326,667,c)
);
},
{
closed = 1;
nodes = (
(326,334,l),
(326,328,l),
(341,328,ls),
(412,328,o),
(508,288,o),
(508,218,cs),
(508,210,l),
(518,210,l),
(518,334,l)
);
},
{
closed = 1;
nodes = (
(326,9,l),
(500,6,o),
(632,39,o),
(632,191,cs),
(632,272,l),
(622,272,l),
(622,173,o),
(499,9,o),
(341,9,cs)
);
}
);
width = 664;
}
);
unicode = 203;
},
{
glyphname = Igrave;
layers = (
{
hints = (
{
horizontal = 1;
place = (0,8);
type = Stem;
},
{
horizontal = 1;
place = (668,8);
type = Stem;
},
{
place = (109,108);
type = Stem;
}
);
layerId = "2CB89E61-3CCE-4A23-82C8-7DCD997832E5";
shapes = (
{
closed = 1;
nodes = (
(229,855,ls),
(198,878,o),
(155,911,o),
(127,911,cs),
(107,911,o),
(95,902,o),
(95,883,cs),
(95,868,o),
(106,855,o),
(121,844,cs),
(176,805,o),
(276,788,o),
(327,772,c),
(340,772,l)
);
},
{
closed = 1;
nodes = (
(217,676,l),
(2,676,l),
(2,668,l),
(82,668,o),
(109,639,o),
(109,581,cs),
(109,95,ls),
(109,37,o),
(82,8,o),
(2,8,c),
(2,0,l),
(217,0,l)
);
}
);
width = 435;
}
);
unicode = 204;
},
{
glyphname = Iacute;
layers = (
{
hints = (
{
horizontal = 1;
place = (0,8);
type = Stem;
},
{
horizontal = 1;
place = (668,8);
type = Stem;
},
{
place = (109,108);
type = Stem;
}
);
layerId = "2CB89E61-3CCE-4A23-82C8-7DCD997832E5";
shapes = (
{
closed = 1;
nodes = (
(106,773,l),
(119,773,l),
(138,778,o),
(246,846,o),
(302,894,cs),
(340,926,o),
(338,953,o),
(301,953,cs),
(263,953,o),
(230,922,o),
(202,888,cs)
);
},
{
closed = 1;
nodes = (
(217,676,l),
(2,676,l),
(2,668,l),
(82,668,o),
(109,639,o),
(109,581,cs),
(109,95,ls),
(109,37,o),
(82,8,o),
(2,8,c),
(2,0,l),
(217,0,l)
);
}
);
width = 435;
}
);
unicode = 205;
},
{
glyphname = Icircumflex;
layers = (
{
hints = (
{
horizontal = 1;
place = (0,8);
type = Stem;
},
{
horizontal = 1;
place = (668,8);
type = Stem;
},
{
place = (109,108);
type = Stem;
}
);
layerId = "2CB89E61-3CCE-4A23-82C8-7DCD997832E5";
shapes = (
{
closed = 1;
nodes = (
(218,855,l),
(357,772,l),
(365,766,o),
(372,769,o),
(370,774,c),
(229,896,l),
(210,896,l),
(66,775,l),
(62,768,o),
(71,766,o),
(80,773,c)
);
},
{
closed = 1;
nodes = (
(217,676,l),
(2,676,l),
(2,668,l),
(82,668,o),
(109,639,o),
(109,581,cs),
(109,95,ls),
(109,37,o),
(82,8,o),
(2,8,c),
(2,0,l),
(217,0,l)
);
}
);
width = 435;
}
);
unicode = 206;
},
{
glyphname = Idieresis;
layers = (
{
hints = (
{
horizontal = 1;
place = (0,8);
type = Stem;
},
{
horizontal = 1;
place = (668,8);
type = Stem;
},
{
horizontal = 1;
place = (772,52);
type = Stem;
},
{
place = (109,108);
type = Stem;
}
);
layerId = "2CB89E61-3CCE-4A23-82C8-7DCD997832E5";
shapes = (
{
closed = 1;
nodes = (
(199,876,o),
(181,887,o),
(165,887,cs),
(119,887,o),
(111,824,o),
(49,824,cs),
(29,824,o),
(4,833,o),
(4,857,c),
(4,812,o),
(46,772,o),
(100,772,cs),
(159,772,o),
(199,811,o),
(199,858,cs)
);
},
{
closed = 1;
nodes = (
(431,876,o),
(413,887,o),
(397,887,cs),
(351,887,o),
(343,824,o),
(281,824,cs),
(261,824,o),
(236,833,o),
(236,857,c),
(236,812,o),
(277,772,o),
(332,772,cs),
(391,772,o),
(431,812,o),
(431,858,cs)
);
},
{
closed = 1;
nodes = (
(217,676,l),
(2,676,l),
(2,668,l),
(82,668,o),
(109,639,o),
(109,581,cs),
(109,95,ls),
(109,37,o),
(82,8,o),
(2,8,c),
(2,0,l),
(217,0,l)
);
}
);
width = 435;
}
);
unicode = 207;
},
{
glyphname = Ograve;
layers = (
{
hints = (
{
horizontal = 1;
place = (-4,21);
target = up;
type = BottomGhost;
},
{
horizontal = 1;
place = (-3,21);
target = up;
type = BottomGhost;
},
{
horizontal = 1;
place = (679,-20);
target = down;
type = TopGhost;
},
{
horizontal = 1;
place = (682,-20);
target = down;
type = TopGhost;
},
{
place = (15,124);
type = Stem;
},
{
place = (538,124);
type = Stem;
}
);
layerId = "2CB89E61-3CCE-4A23-82C8-7DCD997832E5";
shapes = (
{
closed = 1;
nodes = (
(412,855,ls),
(381,878,o),
(338,911,o),
(310,911,cs),
(290,911,o),
(278,902,o),
(278,883,cs),
(278,868,o),
(289,855,o),
(304,844,cs),
(359,805,o),
(459,788,o),
(510,772,c),
(523,772,l)
);
},
{
closed = 1;
nodes = (
(139,493,o),
(180,631,o),
(320,682,c),
(168,656,o),
(15,550,o),
(15,339,cs),
(15,130,o),
(164,24,o),
(314,-4,c),
(179,49,o),
(139,186,o),
(139,339,cs)
);
},
{
closed = 1;
nodes = (
(538,159,o),
(509,2,o),
(407,-3,c),
(523,-2,o),
(662,92,o),
(662,339,cs),
(662,584,o),
(520,678,o),
(404,679,c),
(508,677,o),
(538,520,o),
(538,339,cs)
);
}
);
width = 800;
}
);
leftKerningGroup = C;
rightKerningGroup = B;
unicode = 210;
},
{
glyphname = Oacute;
layers = (
{
hints = (
{
horizontal = 1;
place = (-4,21);
target = up;
type = BottomGhost;
},
{
horizontal = 1;
place = (-3,21);
target = up;
type = BottomGhost;
},
{
horizontal = 1;
place = (679,-20);
target = down;
type = TopGhost;
},
{
horizontal = 1;
place = (682,-20);
target = down;
type = TopGhost;
},
{
place = (15,124);
type = Stem;
},
{
place = (538,124);
type = Stem;
}
);
layerId = "2CB89E61-3CCE-4A23-82C8-7DCD997832E5";
shapes = (
{
closed = 1;
nodes = (
(288,773,l),
(301,773,l),
(320,778,o),
(428,846,o),
(484,894,cs),
(522,926,o),
(520,953,o),
(483,953,cs),
(445,953,o),
(412,922,o),
(384,888,cs)
);
},
{
closed = 1;
nodes = (
(139,493,o),
(180,631,o),
(320,682,c),
(168,656,o),
(15,550,o),
(15,339,cs),
(15,130,o),
(164,24,o),
(314,-4,c),
(179,49,o),
(139,186,o),
(139,339,cs)
);
},
{
closed = 1;
nodes = (
(538,159,o),
(509,2,o),
(407,-3,c),
(523,-2,o),
(662,92,o),
(662,339,cs),
(662,584,o),
(520,678,o),
(404,679,c),
(508,677,o),
(538,520,o),
(538,339,cs)
);
}
);
width = 800;
}
);
leftKerningGroup = C;
rightKerningGroup = B;
unicode = 211;
},
{
glyphname = Ocircumflex;
layers = (
{
hints = (
{
horizontal = 1;
place = (-4,21);
target = up;
type = BottomGhost;
},
{
horizontal = 1;
place = (-3,21);
target = up;
type = BottomGhost;
},
{
horizontal = 1;
place = (679,-20);
target = down;
type = TopGhost;
},
{
horizontal = 1;
place = (682,-20);
target = down;
type = TopGhost;
},
{
place = (15,124);
type = Stem;
},
{
place = (538,124);
type = Stem;
}
);
layerId = "2CB89E61-3CCE-4A23-82C8-7DCD997832E5";
shapes = (
{
closed = 1;
nodes = (
(400,855,l),
(539,772,l),
(547,766,o),
(554,769,o),
(552,774,c),
(411,896,l),
(392,896,l),
(248,775,l),
(244,768,o),
(253,766,o),
(262,773,c)
);
},
{
closed = 1;
nodes = (
(139,493,o),
(180,631,o),
(320,682,c),
(168,656,o),
(15,550,o),
(15,339,cs),
(15,130,o),
(164,24,o),
(314,-4,c),
(179,49,o),
(139,186,o),
(139,339,cs)
);
},
{
closed = 1;
nodes = (
(538,159,o),
(509,2,o),
(407,-3,c),
(523,-2,o),
(662,92,o),
(662,339,cs),
(662,584,o),
(520,678,o),
(404,679,c),
(508,677,o),
(538,520,o),
(538,339,cs)
);
}
);
width = 800;
}
);
leftKerningGroup = C;
rightKerningGroup = B;
unicode = 212;
},
{
glyphname = Otilde;
layers = (
{
hints = (
{
horizontal = 1;
place = (-4,21);
target = up;
type = BottomGhost;
},
{
horizontal = 1;
place = (-3,21);
target = up;
type = BottomGhost;
},
{
horizontal = 1;
place = (679,-20);
target = down;
type = TopGhost;
},
{
horizontal = 1;
place = (682,-20);
target = down;
type = TopGhost;
},
{
horizontal = 1;
place = (758,55);
type = Stem;
},
{
horizontal = 1;
place = (796,59);
type = Stem;
},
{
place = (15,124);
type = Stem;
},
{
place = (538,124);
type = Stem;
}
);
layerId = "2CB89E61-3CCE-4A23-82C8-7DCD997832E5";
shapes = (
{
closed = 1;
nodes = (
(226,779,o),
(255,796,o),
(290,796,cs),
(342,796,o),
(390,758,o),
(445,758,cs),
(530,758,o),
(575,849,o),
(577,919,c),
(571,849,o),
(528,813,o),
(488,813,cs),
(431,813,o),
(369,855,o),
(310,855,cs),
(232,855,o),
(214,794,o),
(227,751,c)
);
},
{
closed = 1;
nodes = (
(139,493,o),
(180,631,o),
(320,682,c),
(168,656,o),
(15,550,o),
(15,339,cs),
(15,130,o),
(164,24,o),
(314,-4,c),
(179,49,o),
(139,186,o),
(139,339,cs)
);
},
{
closed = 1;
nodes = (
(538,159,o),
(509,2,o),
(407,-3,c),
(523,-2,o),
(662,92,o),
(662,339,cs),
(662,584,o),
(520,678,o),
(404,679,c),
(508,677,o),
(538,520,o),
(538,339,cs)
);
}
);
width = 800;
}
);
leftKerningGroup = C;
rightKerningGroup = B;
unicode = 213;
},
{
glyphname = Odieresis;
layers = (
{
hints = (
{
horizontal = 1;
place = (-4,21);
target = up;
type = BottomGhost;
},
{
horizontal = 1;
place = (-3,21);
target = up;
type = BottomGhost;
},
{
horizontal = 1;
place = (679,-20);
target = down;
type = TopGhost;
},
{
horizontal = 1;
place = (682,-20);
target = down;
type = TopGhost;
},
{
horizontal = 1;
place = (772,52);
type = Stem;
},
{
place = (15,124);
type = Stem;
},
{
place = (538,124);
type = Stem;
}
);
layerId = "2CB89E61-3CCE-4A23-82C8-7DCD997832E5";
shapes = (
{
closed = 1;
nodes = (
(382,876,o),
(364,887,o),
(348,887,cs),
(302,887,o),
(294,824,o),
(232,824,cs),
(212,824,o),
(187,833,o),
(187,857,c),
(187,812,o),
(229,772,o),
(283,772,cs),
(342,772,o),
(382,811,o),
(382,858,cs)
);
},
{
closed = 1;
nodes = (
(614,876,o),
(596,887,o),
(580,887,cs),
(534,887,o),
(526,824,o),
(464,824,cs),
(444,824,o),
(419,833,o),
(419,857,c),
(419,812,o),
(460,772,o),
(515,772,cs),
(574,772,o),
(614,812,o),
(614,858,cs)
);
},
{
closed = 1;
nodes = (
(139,493,o),
(180,631,o),
(320,682,c),
(168,656,o),
(15,550,o),
(15,339,cs),
(15,130,o),
(164,24,o),
(314,-4,c),
(179,49,o),
(139,186,o),
(139,339,cs)
);
},
{
closed = 1;
nodes = (
(538,159,o),
(509,2,o),
(407,-3,c),
(523,-2,o),
(662,92,o),
(662,339,cs),
(662,584,o),
(520,678,o),
(404,679,c),
(508,677,o),
(538,520,o),
(538,339,cs)
);
}
);
width = 800;
}
);
leftKerningGroup = C;
rightKerningGroup = B;
unicode = 214;
},
{
glyphname = Ugrave;
layers = (
{
hints = (
{
horizontal = 1;
place = (-14,14);
type = Stem;
},
{
horizontal = 1;
place = (668,8);
type = Stem;
},
{
place = (84,110);
type = Stem;
},
{
place = (493,161);
type = Stem;
}
);
layerId = "2CB89E61-3CCE-4A23-82C8-7DCD997832E5";
shapes = (
{
closed = 1;
nodes = (
(451,855,ls),
(420,878,o),
(377,911,o),
(349,911,cs),
(329,911,o),
(317,902,o),
(317,883,cs),
(317,868,o),
(328,855,o),
(343,844,cs),
(398,805,o),
(498,788,o),
(549,772,c),
(562,772,l)
);
},
{
closed = 1;
nodes = (
(654,676,l),
(493,676,l),
(493,668,l),
(631,668,o),
(654,468,o),
(654,316,c)
);
},
{
closed = 1;
nodes = (
(194,676,l),
(0,676,l),
(0,668,l),
(25,668,ls),
(54,668,o),
(84,647,o),
(84,597,cs),
(84,242,ls),
(84,84,o),
(175,-14,o),
(390,-14,cs),
(465,-14,o),
(526,2,o),
(571,34,c),
(538,12,o),
(492,0,o),
(443,0,cs),
(326,0,o),
(194,58,o),
(194,222,cs)
);
}
);
width = 736;
}
);
unicode = 217;
},
{
glyphname = Uacute;
layers = (
{
hints = (
{
horizontal = 1;
place = (-14,14);
type = Stem;
},
{
horizontal = 1;
place = (668,8);
type = Stem;
},
{
place = (84,110);
type = Stem;
},
{
place = (493,161);
type = Stem;
}
);
layerId = "2CB89E61-3CCE-4A23-82C8-7DCD997832E5";
shapes = (
{
closed = 1;
nodes = (
(352,774,l),
(365,774,l),
(384,779,o),
(492,847,o),
(548,895,cs),
(586,927,o),
(584,954,o),
(547,954,cs),
(509,954,o),
(476,923,o),
(448,889,cs)
);
},
{
closed = 1;
nodes = (
(654,676,l),
(493,676,l),
(493,668,l),
(631,668,o),
(654,468,o),
(654,316,c)
);
},
{
closed = 1;
nodes = (
(194,676,l),
(0,676,l),
(0,668,l),
(25,668,ls),
(54,668,o),
(84,647,o),
(84,597,cs),
(84,242,ls),
(84,84,o),
(175,-14,o),
(390,-14,cs),
(465,-14,o),
(526,2,o),
(571,34,c),
(538,12,o),
(492,0,o),
(443,0,cs),
(326,0,o),
(194,58,o),
(194,222,cs)
);
}
);
width = 736;
}
);
unicode = 218;
},
{
glyphname = Ucircumflex;
layers = (
{
hints = (
{
horizontal = 1;
place = (-14,14);
type = Stem;
},
{
horizontal = 1;
place = (668,8);
type = Stem;
},
{
place = (84,110);
type = Stem;
},
{
place = (493,161);
type = Stem;
}
);
layerId = "2CB89E61-3CCE-4A23-82C8-7DCD997832E5";
shapes = (
{
closed = 1;
nodes = (
(434,854,l),
(573,771,l),
(581,765,o),
(588,768,o),
(586,773,c),
(445,895,l),
(426,895,l),
(282,774,l),
(278,767,o),
(287,765,o),
(296,772,c)
);
},
{
closed = 1;
nodes = (
(654,676,l),
(493,676,l),
(493,668,l),
(631,668,o),
(654,468,o),
(654,316,c)
);
},
{
closed = 1;
nodes = (
(194,676,l),
(0,676,l),
(0,668,l),
(25,668,ls),
(54,668,o),
(84,647,o),
(84,597,cs),
(84,242,ls),
(84,84,o),
(175,-14,o),
(390,-14,cs),
(465,-14,o),
(526,2,o),
(571,34,c),
(538,12,o),
(492,0,o),
(443,0,cs),
(326,0,o),
(194,58,o),
(194,222,cs)
);
}
);
width = 736;
}
);
unicode = 219;
},
{
glyphname = Udieresis;
layers = (
{
hints = (
{
horizontal = 1;
place = (-14,14);
type = Stem;
},
{
horizontal = 1;
place = (668,8);
type = Stem;
},
{
horizontal = 1;
place = (772,52);
type = Stem;
},
{
place = (84,110);
type = Stem;
},
{
place = (493,161);
type = Stem;
}
);
layerId = "2CB89E61-3CCE-4A23-82C8-7DCD997832E5";
shapes = (
{
closed = 1;
nodes = (
(415,876,o),
(397,887,o),
(381,887,cs),
(335,887,o),
(327,824,o),
(265,824,cs),
(245,824,o),
(220,833,o),
(220,857,c),
(220,812,o),
(262,772,o),
(316,772,cs),
(375,772,o),
(415,811,o),
(415,858,cs)
);
},
{
closed = 1;
nodes = (
(647,876,o),
(629,887,o),
(613,887,cs),
(567,887,o),
(559,824,o),
(497,824,cs),
(477,824,o),
(452,833,o),
(452,857,c),
(452,812,o),
(493,772,o),
(548,772,cs),
(607,772,o),
(647,812,o),
(647,858,cs)
);
},
{
closed = 1;
nodes = (
(654,676,l),
(493,676,l),
(493,668,l),
(631,668,o),
(654,468,o),
(654,316,c)
);
},
{
closed = 1;
nodes = (
(194,676,l),
(0,676,l),
(0,668,l),
(25,668,ls),
(54,668,o),
(84,647,o),
(84,597,cs),
(84,242,ls),
(84,84,o),
(175,-14,o),
(390,-14,cs),
(465,-14,o),
(526,2,o),
(571,34,c),
(538,12,o),
(492,0,o),
(443,0,cs),
(326,0,o),
(194,58,o),
(194,222,cs)
);
}
);
width = 736;
}
);
unicode = 220;
},
{
glyphname = Ydieresis;
layers = (
{
hints = (
{
horizontal = 1;
place = (0,8);
type = Stem;
},
{
horizontal = 1;
place = (668,8);
type = Stem;
},
{
horizontal = 1;
place = (772,52);
type = Stem;
},
{
place = (243,108);
type = Stem;
},
{
place = (547,58);
type = Stem;
}
);
layerId = "2CB89E61-3CCE-4A23-82C8-7DCD997832E5";
shapes = (
{
closed = 1;
nodes = (
(404,876,o),
(386,887,o),
(370,887,cs),
(324,887,o),
(316,824,o),
(254,824,cs),
(234,824,o),
(209,833,o),
(209,857,c),
(209,812,o),
(251,772,o),
(305,772,cs),
(364,772,o),
(404,811,o),
(404,858,cs)
);
},
{
closed = 1;
nodes = (
(636,876,o),
(618,887,o),
(602,887,cs),
(556,887,o),
(548,824,o),
(486,824,cs),
(466,824,o),
(441,833,o),
(441,857,c),
(441,812,o),
(482,772,o),
(537,772,cs),
(596,772,o),
(636,812,o),
(636,858,cs)
);
},
{
closed = 1;
nodes = (
(175,676,l),
(-21,676,l),
(-21,668,l),
(37,668,o),
(64,644,o),
(82,609,cs),
(243,307,l),
(243,95,ls),
(243,37,o),
(216,8,o),
(136,8,c),
(136,0,l),
(351,0,l),
(351,327,l)
);
},
{
closed = 1;
nodes = (
(457,676,l),
(457,668,l),
(629,668,o),
(512,439,o),
(454,356,c),
(503,416,o),
(601,595,o),
(605,676,c)
);
}
);
width = 684;
}
);
unicode = 376;
},
{
glyphname = Yacute;
layers = (
{
hints = (
{
horizontal = 1;
place = (0,8);
type = Stem;
},
{
horizontal = 1;
place = (668,8);
type = Stem;
},
{
place = (243,108);
type = Stem;
},
{
place = (547,58);
type = Stem;
}
);
layerId = "2CB89E61-3CCE-4A23-82C8-7DCD997832E5";
shapes = (
{
closed = 1;
nodes = (
(341,774,l),
(354,774,l),
(373,779,o),
(481,847,o),
(537,895,cs),
(575,927,o),
(573,954,o),
(536,954,cs),
(498,954,o),
(465,923,o),
(437,889,cs)
);
},
{
closed = 1;
nodes = (
(175,676,l),
(-21,676,l),
(-21,668,l),
(37,668,o),
(64,644,o),
(82,609,cs),
(243,307,l),
(243,95,ls),
(243,37,o),
(216,8,o),
(136,8,c),
(136,0,l),
(351,0,l),
(351,327,l)
);
},
{
closed = 1;
nodes = (
(457,676,l),
(457,668,l),
(629,668,o),
(512,439,o),
(454,356,c),
(503,416,o),
(601,595,o),
(605,676,c)
);
}
);
width = 684;
}
);
unicode = 221;
},
{
glyphname = Scaron;
layers = (
{
hints = (
{
horizontal = 1;
place = (1,21);
target = up;
type = BottomGhost;
},
{
horizontal = 1;
place = (679,-20);
target = down;
type = TopGhost;
},
{
horizontal = 1;
place = (816,39);
type = Stem;
},
{
place = (35,9);
type = Stem;
},
{
place = (47,64);
type = Stem;
},
{
place = (412,89);
type = Stem;
},
{
place = (508,9);
type = Stem;
}
);
layerId = "2CB89E61-3CCE-4A23-82C8-7DCD997832E5";
shapes = (
{
closed = 1;
nodes = (
(146,937,l),
(137,944,o),
(128,942,o),
(132,935,c),
(273,816,l),
(298,816,l),
(436,936,l),
(438,941,o),
(431,944,o),
(423,938,c),
(284,855,l)
);
},
{
closed = 1;
nodes = (
(405,672,o),
(481,576,o),
(508,461,c),
(517,461,l),
(517,532,ls),
(517,629,o),
(383,679,o),
(301,679,c)
);
},
{
closed = 1;
nodes = (
(444,16,o),
(501,74,o),
(501,157,cs),
(501,256,o),
(442,281,o),
(286,367,cs),
(214,407,o),
(111,457,o),
(111,547,cs),
(111,604,o),
(148,650,o),
(196,672,c),
(102,642,o),
(47,571,o),
(47,480,cs),
(47,358,o),
(130,315,o),
(272,238,cs),
(332,205,o),
(412,161,o),
(412,89,cs),
(412,45,o),
(389,14,o),
(343,3,c)
);
},
{
closed = 1;
nodes = (
(151,15,o),
(56,171,o),
(44,287,c),
(35,287,l),
(41,168,ls),
(46,78,o),
(169,4,o),
(278,1,c)
);
}
);
width = 568;
}
);
leftKerningGroup = S2;
rightKerningGroup = S;
unicode = 352;
},
{
glyphname = Zcaron;
layers = (
{
hints = (
{
horizontal = 1;
place = (0,21);
target = up;
type = BottomGhost;
},
{
horizontal = 1;
place = (676,-20);
target = down;
type = TopGhost;
},
{
horizontal = 1;
place = (816,39);
type = Stem;
},
{
place = (589,10);
type = Stem;
}
);
layerId = "2CB89E61-3CCE-4A23-82C8-7DCD997832E5";
shapes = (
{
closed = 1;
nodes = (
(191,937,l),
(182,944,o),
(173,942,o),
(177,935,c),
(318,816,l),
(343,816,l),
(481,936,l),
(483,941,o),
(476,944,o),
(468,938,c),
(329,855,l)
);
},
{
closed = 1;
nodes = (
(137,0,l),
(506,676,l),
(390,676,l),
(21,0,l)
);
},
{
closed = 1;
nodes = (
(59,676,l),
(59,473,l),
(59,581,o),
(99,671,o),
(202,676,c)
);
},
{
closed = 1;
nodes = (
(293,9,l),
(467,6,o),
(599,39,o),
(599,191,cs),
(599,272,l),
(589,272,l),
(589,173,o),
(466,9,o),
(308,9,cs)
);
}
);
width = 657;
}
);
unicode = 381;
},
{
glyphname = agrave;
layers = (
{
hints = (
{
horizontal = 1;
place = (0,8);
type = Stem;
},
{
horizontal = 1;
place = (301,10);
type = Stem;
},
{
horizontal = 1;
place = (668,8);
type = Stem;
},
{
place = (-60,141);
type = Stem;
}
);
layerId = "2CB89E61-3CCE-4A23-82C8-7DCD997832E5";
shapes = (
{
closed = 1;
nodes = (
(322,855,ls),
(291,878,o),
(248,911,o),
(220,911,cs),
(200,911,o),
(188,902,o),
(188,883,cs),
(188,868,o),
(199,855,o),
(214,844,cs),
(269,805,o),
(369,788,o),
(420,772,c),
(433,772,l)
);
},
{
closed = 1;
nodes = (
(119,676,l),
(119,668,l),
(199,668,o),
(219,636,o),
(238,580,cs),
(329,311,l),
(155,311,l),
(152,301,l),
(333,301,l),
(391,129,ls),
(426,25,o),
(394,8,o),
(317,8,c),
(317,0,l),
(603,0,l),
(571,8,o),
(541,28,o),
(511,114,cs),
(317,676,l)
);
},
{
closed = 1;
nodes = (
(112,211,o),
(36,8,o),
(-60,8,c),
(-60,0,l),
(84,0,l),
(72,41,o),
(92,141,o),
(134,278,c)
);
}
);
width = 671;
}
);
leftKerningGroup = A2;
rightKerningGroup = A;
unicode = 224;
},
{
glyphname = aacute;
layers = (
{
hints = (
{
horizontal = 1;
place = (0,8);
type = Stem;
},
{
horizontal = 1;
place = (301,10);
type = Stem;
},
{
horizontal = 1;
place = (668,8);
type = Stem;
},
{
place = (-60,141);
type = Stem;
}
);
layerId = "2CB89E61-3CCE-4A23-82C8-7DCD997832E5";
shapes = (
{
closed = 1;
nodes = (
(208,773,l),
(221,773,l),
(240,778,o),
(348,846,o),
(404,894,cs),
(442,926,o),
(440,953,o),
(403,953,cs),
(365,953,o),
(332,922,o),
(304,888,cs)
);
},
{
closed = 1;
nodes = (
(119,676,l),
(119,668,l),
(199,668,o),
(219,636,o),
(238,580,cs),
(329,311,l),
(155,311,l),
(152,301,l),
(333,301,l),
(391,129,ls),
(426,25,o),
(394,8,o),
(317,8,c),
(317,0,l),
(603,0,l),
(571,8,o),
(541,28,o),
(511,114,cs),
(317,676,l)
);
},
{
closed = 1;
nodes = (
(112,211,o),
(36,8,o),
(-60,8,c),
(-60,0,l),
(84,0,l),
(72,41,o),
(92,141,o),
(134,278,c)
);
}
);
width = 671;
}
);
leftKerningGroup = A2;
rightKerningGroup = A;
unicode = 225;
},
{
glyphname = acircumflex;
layers = (
{
hints = (
{
horizontal = 1;
place = (0,8);
type = Stem;
},
{
horizontal = 1;
place = (301,10);
type = Stem;
},
{
horizontal = 1;
place = (668,8);
type = Stem;
},
{
place = (-60,141);
type = Stem;
}
);
layerId = "2CB89E61-3CCE-4A23-82C8-7DCD997832E5";
shapes = (
{
closed = 1;
nodes = (
(322,855,l),
(461,772,l),
(469,766,o),
(476,769,o),
(474,774,c),
(333,896,l),
(314,896,l),
(170,775,l),
(166,768,o),
(175,766,o),
(184,773,c)
);
},
{
closed = 1;
nodes = (
(119,676,l),
(119,668,l),
(199,668,o),
(219,636,o),
(238,580,cs),
(329,311,l),
(155,311,l),
(152,301,l),
(333,301,l),
(391,129,ls),
(426,25,o),
(394,8,o),
(317,8,c),
(317,0,l),
(603,0,l),
(571,8,o),
(541,28,o),
(511,114,cs),
(317,676,l)
);
},
{
closed = 1;
nodes = (
(112,211,o),
(36,8,o),
(-60,8,c),
(-60,0,l),
(84,0,l),
(72,41,o),
(92,141,o),
(134,278,c)
);
}
);
width = 671;
}
);
leftKerningGroup = A2;
rightKerningGroup = A;
unicode = 226;
},
{
glyphname = atilde;
layers = (
{
hints = (
{
horizontal = 1;
place = (0,8);
type = Stem;
},
{
horizontal = 1;
place = (301,10);
type = Stem;
},
{
horizontal = 1;
place = (668,8);
type = Stem;
},
{
horizontal = 1;
place = (758,55);
type = Stem;
},
{
horizontal = 1;
place = (796,59);
type = Stem;
},
{
place = (-60,141);
type = Stem;
}
);
layerId = "2CB89E61-3CCE-4A23-82C8-7DCD997832E5";
shapes = (
{
closed = 1;
nodes = (
(165,779,o),
(194,796,o),
(229,796,cs),
(281,796,o),
(329,758,o),
(384,758,cs),
(469,758,o),
(514,849,o),
(516,919,c),
(510,849,o),
(467,813,o),
(427,813,cs),
(370,813,o),
(308,855,o),
(249,855,cs),
(171,855,o),
(153,794,o),
(166,751,c)
);
},
{
closed = 1;
nodes = (
(119,676,l),
(119,668,l),
(199,668,o),
(219,636,o),
(238,580,cs),
(329,311,l),
(155,311,l),
(152,301,l),
(333,301,l),
(391,129,ls),
(426,25,o),
(394,8,o),
(317,8,c),
(317,0,l),
(603,0,l),
(571,8,o),
(541,28,o),
(511,114,cs),
(317,676,l)
);
},
{
closed = 1;
nodes = (
(112,211,o),
(36,8,o),
(-60,8,c),
(-60,0,l),
(84,0,l),
(72,41,o),
(92,141,o),
(134,278,c)
);
}
);
width = 671;
}
);
leftKerningGroup = A2;
rightKerningGroup = A;
unicode = 227;
},
{
glyphname = adieresis;
layers = (
{
hints = (
{
horizontal = 1;
place = (0,8);
type = Stem;
},
{
horizontal = 1;
place = (301,10);
type = Stem;
},
{
horizontal = 1;
place = (668,8);
type = Stem;
},
{
horizontal = 1;
place = (772,52);
type = Stem;
},
{
place = (-60,141);
type = Stem;
}
);
layerId = "2CB89E61-3CCE-4A23-82C8-7DCD997832E5";
shapes = (
{
closed = 1;
nodes = (
(303,876,o),
(285,887,o),
(269,887,cs),
(223,887,o),
(215,824,o),
(153,824,cs),
(133,824,o),
(108,833,o),
(108,857,c),
(108,812,o),
(150,772,o),
(204,772,cs),
(263,772,o),
(303,811,o),
(303,858,cs)
);
},
{
closed = 1;
nodes = (
(535,876,o),
(517,887,o),
(501,887,cs),
(455,887,o),
(447,824,o),
(385,824,cs),
(365,824,o),
(340,833,o),
(340,857,c),
(340,812,o),
(381,772,o),
(436,772,cs),
(495,772,o),
(535,812,o),
(535,858,cs)
);
},
{
closed = 1;
nodes = (
(329,311,l),
(155,311,l),
(152,301,l),
(333,301,l),
(391,129,ls),
(426,25,o),
(394,8,o),
(317,8,c),
(317,0,l),
(603,0,l),
(571,8,o),
(541,28,o),
(511,114,cs),
(317,676,l),
(119,676,l),
(119,668,l),
(199,668,o),
(219,636,o),
(238,580,cs)
);
},
{
closed = 1;
nodes = (
(84,0,l),
(72,41,o),
(92,141,o),
(134,278,c),
(112,211,o),
(36,8,o),
(-60,8,c),
(-60,0,l)
);
}
);
width = 671;
}
);
leftKerningGroup = A2;
rightKerningGroup = A;
unicode = 228;
},
{
glyphname = aring;
layers = (
{
hints = (
{
horizontal = 1;
place = (0,8);
type = Stem;
},
{
horizontal = 1;
place = (301,10);
type = Stem;
},
{
horizontal = 1;
place = (668,8);
type = Stem;
},
{
horizontal = 1;
place = (772,8);
type = Stem;
},
{
horizontal = 1;
place = (960,8);
type = Stem;
},
{
place = (-60,141);
type = Stem;
},
{
place = (226,35);
type = Stem;
},
{
place = (382,35);
type = Stem;
}
);
layerId = "2CB89E61-3CCE-4A23-82C8-7DCD997832E5";
shapes = (
{
closed = 1;
nodes = (
(226,815,o),
(275,772,o),
(336,772,cs),
(380,772,o),
(417,815,o),
(417,870,cs),
(417,924,o),
(380,968,o),
(336,968,cs),
(275,968,o),
(226,924,o),
(226,870,cs)
);
},
{
closed = 1;
nodes = (
(368,960,o),
(382,916,o),
(382,872,cs),
(382,826,o),
(366,780,o),
(336,780,cs),
(285,780,o),
(261,825,o),
(261,870,cs),
(261,915,o),
(285,960,o),
(336,960,cs)
);
},
{
closed = 1;
nodes = (
(119,676,l),
(119,668,l),
(199,668,o),
(219,636,o),
(238,580,cs),
(329,311,l),
(155,311,l),
(152,301,l),
(333,301,l),
(391,129,ls),
(426,25,o),
(394,8,o),
(317,8,c),
(317,0,l),
(603,0,l),
(571,8,o),
(541,28,o),
(511,114,cs),
(317,676,l)
);
},
{
closed = 1;
nodes = (
(112,211,o),
(36,8,o),
(-60,8,c),
(-60,0,l),
(84,0,l),
(72,41,o),
(92,141,o),
(134,278,c)
);
}
);
width = 671;
}
);
leftKerningGroup = A2;
rightKerningGroup = A;
unicode = 229;
},
{
glyphname = egrave;
layers = (
{
hints = (
{
horizontal = 1;
place = (0,8);
type = Stem;
},
{
horizontal = 1;
place = (210,124);
type = Stem;
},
{
horizontal = 1;
place = (668,8);
type = Stem;
},
{
place = (109,108);
type = Stem;
},
{
place = (508,10);
type = Stem;
},
{
place = (602,10);
type = Stem;
},
{
place = (622,10);
type = Stem;
}
);
layerId = "2CB89E61-3CCE-4A23-82C8-7DCD997832E5";
shapes = (
{
closed = 1;
nodes = (
(344,855,ls),
(313,878,o),
(270,911,o),
(242,911,cs),
(222,911,o),
(210,902,o),
(210,883,cs),
(210,868,o),
(221,855,o),
(236,844,cs),
(291,805,o),
(391,788,o),
(442,772,c),
(455,772,l)
);
},
{
closed = 1;
nodes = (
(217,676,l),
(2,676,l),
(2,668,l),
(82,668,o),
(109,639,o),
(109,581,cs),
(109,95,ls),
(109,37,o),
(82,8,o),
(2,8,c),
(2,0,l),
(217,0,l)
);
},
{
closed = 1;
nodes = (
(341,667,ls),
(499,667,o),
(602,507,o),
(602,408,c),
(612,408,l),
(612,489,ls),
(612,641,o),
(500,672,o),
(326,667,c)
);
},
{
closed = 1;
nodes = (
(326,334,l),
(326,328,l),
(341,328,ls),
(412,328,o),
(508,288,o),
(508,218,cs),
(508,210,l),
(518,210,l),
(518,334,l)
);
},
{
closed = 1;
nodes = (
(326,9,l),
(500,5,o),
(632,39,o),
(632,191,cs),
(632,272,l),
(622,272,l),
(622,173,o),
(499,9,o),
(341,9,cs)
);
}
);
width = 664;
}
);
unicode = 232;
},
{
glyphname = eacute;
layers = (
{
hints = (
{
horizontal = 1;
place = (0,8);
type = Stem;
},
{
horizontal = 1;
place = (210,124);
type = Stem;
},
{
horizontal = 1;
place = (668,8);
type = Stem;
},
{
place = (109,108);
type = Stem;
},
{
place = (508,10);
type = Stem;
},
{
place = (602,10);
type = Stem;
},
{
place = (622,10);
type = Stem;
}
);
layerId = "2CB89E61-3CCE-4A23-82C8-7DCD997832E5";
shapes = (
{
closed = 1;
nodes = (
(205,773,l),
(218,773,l),
(237,778,o),
(345,846,o),
(401,894,cs),
(439,926,o),
(437,953,o),
(400,953,cs),
(362,953,o),
(329,922,o),
(301,888,cs)
);
},
{
closed = 1;
nodes = (
(217,676,l),
(2,676,l),
(2,668,l),
(82,668,o),
(109,639,o),
(109,581,cs),
(109,95,ls),
(109,37,o),
(82,8,o),
(2,8,c),
(2,0,l),
(217,0,l)
);
},
{
closed = 1;
nodes = (
(341,667,ls),
(499,667,o),
(602,507,o),
(602,408,c),
(612,408,l),
(612,489,ls),
(612,641,o),
(500,672,o),
(326,667,c)
);
},
{
closed = 1;
nodes = (
(326,334,l),
(326,328,l),
(341,328,ls),
(412,328,o),
(508,288,o),
(508,218,cs),
(508,210,l),
(518,210,l),
(518,334,l)
);
},
{
closed = 1;
nodes = (
(326,9,l),
(500,5,o),
(632,39,o),
(632,191,cs),
(632,272,l),
(622,272,l),
(622,173,o),
(499,9,o),
(341,9,cs)
);
}
);
width = 664;
}
);
unicode = 233;
},
{
glyphname = ecircumflex;
layers = (
{
hints = (
{
horizontal = 1;
place = (0,8);
type = Stem;
},
{
horizontal = 1;
place = (210,124);
type = Stem;
},
{
horizontal = 1;
place = (668,8);
type = Stem;
},
{
place = (109,108);
type = Stem;
},
{
place = (508,10);
type = Stem;
},
{
place = (602,10);
type = Stem;
},
{
place = (622,10);
type = Stem;
}
);
layerId = "2CB89E61-3CCE-4A23-82C8-7DCD997832E5";
shapes = (
{
closed = 1;
nodes = (
(332,855,l),
(471,772,l),
(479,766,o),
(486,769,o),
(484,774,c),
(343,896,l),
(324,896,l),
(180,775,l),
(176,768,o),
(185,766,o),
(194,773,c)
);
},
{
closed = 1;
nodes = (
(217,676,l),
(2,676,l),
(2,668,l),
(82,668,o),
(109,639,o),
(109,581,cs),
(109,95,ls),
(109,37,o),
(82,8,o),
(2,8,c),
(2,0,l),
(217,0,l)
);
},
{
closed = 1;
nodes = (
(341,667,ls),
(499,667,o),
(602,507,o),
(602,408,c),
(612,408,l),
(612,489,ls),
(612,641,o),
(500,672,o),
(326,667,c)
);
},
{
closed = 1;
nodes = (
(326,334,l),
(326,328,l),
(341,328,ls),
(412,328,o),
(508,288,o),
(508,218,cs),
(508,210,l),
(518,210,l),
(518,334,l)
);
},
{
closed = 1;
nodes = (
(326,9,l),
(500,5,o),
(632,39,o),
(632,191,cs),
(632,272,l),
(622,272,l),
(622,173,o),
(499,9,o),
(341,9,cs)
);
}
);
width = 664;
}
);
unicode = 234;
},
{
glyphname = edieresis;
layers = (
{
hints = (
{
horizontal = 1;
place = (0,8);
type = Stem;
},
{
horizontal = 1;
place = (210,124);
type = Stem;
},
{
horizontal = 1;
place = (668,8);
type = Stem;
},
{
horizontal = 1;
place = (772,52);
type = Stem;
},
{
place = (109,108);
type = Stem;
},
{
place = (508,10);
type = Stem;
},
{
place = (602,10);
type = Stem;
},
{
place = (622,10);
type = Stem;
}
);
layerId = "2CB89E61-3CCE-4A23-82C8-7DCD997832E5";
shapes = (
{
closed = 1;
nodes = (
(314,876,o),
(296,887,o),
(280,887,cs),
(234,887,o),
(226,824,o),
(164,824,cs),
(144,824,o),
(119,833,o),
(119,857,c),
(119,812,o),
(161,772,o),
(215,772,cs),
(274,772,o),
(314,811,o),
(314,858,cs)
);
},
{
closed = 1;
nodes = (
(546,876,o),
(528,887,o),
(512,887,cs),
(466,887,o),
(458,824,o),
(396,824,cs),
(376,824,o),
(351,833,o),
(351,857,c),
(351,812,o),
(392,772,o),
(447,772,cs),
(506,772,o),
(546,812,o),
(546,858,cs)
);
},
{
closed = 1;
nodes = (
(217,676,l),
(2,676,l),
(2,668,l),
(82,668,o),
(109,639,o),
(109,581,cs),
(109,95,ls),
(109,37,o),
(82,8,o),
(2,8,c),
(2,0,l),
(217,0,l)
);
},
{
closed = 1;
nodes = (
(341,667,ls),
(499,667,o),
(602,507,o),
(602,408,c),
(612,408,l),
(612,489,ls),
(612,641,o),
(500,672,o),
(326,667,c)
);
},
{
closed = 1;
nodes = (
(326,334,l),
(326,328,l),
(341,328,ls),
(412,328,o),
(508,288,o),
(508,218,cs),
(508,210,l),
(518,210,l),
(518,334,l)
);
},
{
closed = 1;
nodes = (
(326,9,l),
(500,5,o),
(632,39,o),
(632,191,cs),
(632,272,l),
(622,272,l),
(622,173,o),
(499,9,o),
(341,9,cs)
);
}
);
width = 664;
}
);
unicode = 235;
},
{
glyphname = dotlessi;
layers = (
{
hints = (
{
horizontal = 1;
place = (0,8);
type = Stem;
},
{
horizontal = 1;
place = (668,8);
type = Stem;
},
{
place = (109,108);
type = Stem;
}
);
layerId = "2CB89E61-3CCE-4A23-82C8-7DCD997832E5";
shapes = (
{
closed = 1;
nodes = (
(217,676,l),
(2,676,l),
(2,668,l),
(82,668,o),
(109,639,o),
(109,581,cs),
(109,95,ls),
(109,37,o),
(82,8,o),
(2,8,c),
(2,0,l),
(217,0,l)
);
}
);
width = 435;
}
);
unicode = 305;
},
{
glyphname = igrave;
layers = (
{
hints = (
{
horizontal = 1;
place = (0,8);
type = Stem;
},
{
horizontal = 1;
place = (668,8);
type = Stem;
},
{
place = (109,108);
type = Stem;
}
);
layerId = "2CB89E61-3CCE-4A23-82C8-7DCD997832E5";
shapes = (
{
closed = 1;
nodes = (
(229,855,ls),
(198,878,o),
(155,911,o),
(127,911,cs),
(107,911,o),
(95,902,o),
(95,883,cs),
(95,868,o),
(106,855,o),
(121,844,cs),
(176,805,o),
(276,788,o),
(327,772,c),
(340,772,l)
);
},
{
closed = 1;
nodes = (
(217,676,l),
(2,676,l),
(2,668,l),
(82,668,o),
(109,639,o),
(109,581,cs),
(109,95,ls),
(109,37,o),
(82,8,o),
(2,8,c),
(2,0,l),
(217,0,l)
);
}
);
width = 435;
}
);
unicode = 236;
},
{
glyphname = iacute;
layers = (
{
hints = (
{
horizontal = 1;
place = (0,8);
type = Stem;
},
{
horizontal = 1;
place = (668,8);
type = Stem;
},
{
place = (109,108);
type = Stem;
}
);
layerId = "2CB89E61-3CCE-4A23-82C8-7DCD997832E5";
shapes = (
{
closed = 1;
nodes = (
(94,773,l),
(107,773,l),
(126,778,o),
(234,846,o),
(290,894,cs),
(328,926,o),
(326,953,o),
(289,953,cs),
(251,953,o),
(218,922,o),
(190,888,cs)
);
},
{
closed = 1;
nodes = (
(217,676,l),
(2,676,l),
(2,668,l),
(82,668,o),
(109,639,o),
(109,581,cs),
(109,95,ls),
(109,37,o),
(82,8,o),
(2,8,c),
(2,0,l),
(217,0,l)
);
}
);
width = 435;
}
);
unicode = 237;
},
{
glyphname = icircumflex;
layers = (
{
hints = (
{
horizontal = 1;
place = (0,8);
type = Stem;
},
{
horizontal = 1;
place = (668,8);
type = Stem;
},
{
place = (109,108);
type = Stem;
}
);
layerId = "2CB89E61-3CCE-4A23-82C8-7DCD997832E5";
shapes = (
{
closed = 1;
nodes = (
(218,855,l),
(357,772,l),
(365,766,o),
(372,769,o),
(370,774,c),
(229,896,l),
(210,896,l),
(66,775,l),
(62,768,o),
(71,766,o),
(80,773,c)
);
},
{
closed = 1;
nodes = (
(217,676,l),
(2,676,l),
(2,668,l),
(82,668,o),
(109,639,o),
(109,581,cs),
(109,95,ls),
(109,37,o),
(82,8,o),
(2,8,c),
(2,0,l),
(217,0,l)
);
}
);
width = 435;
}
);
unicode = 238;
},
{
glyphname = idieresis;
layers = (
{
hints = (
{
horizontal = 1;
place = (0,8);
type = Stem;
},
{
horizontal = 1;
place = (668,8);
type = Stem;
},
{
horizontal = 1;
place = (772,52);
type = Stem;
},
{
place = (109,108);
type = Stem;
}
);
layerId = "2CB89E61-3CCE-4A23-82C8-7DCD997832E5";
shapes = (
{
closed = 1;
nodes = (
(199,876,o),
(181,887,o),
(165,887,cs),
(119,887,o),
(111,824,o),
(49,824,cs),
(29,824,o),
(4,833,o),
(4,857,c),
(4,812,o),
(46,772,o),
(100,772,cs),
(159,772,o),
(199,811,o),
(199,858,cs)
);
},
{
closed = 1;
nodes = (
(431,876,o),
(413,887,o),
(397,887,cs),
(351,887,o),
(343,824,o),
(281,824,cs),
(261,824,o),
(236,833,o),
(236,857,c),
(236,812,o),
(277,772,o),
(332,772,cs),
(391,772,o),
(431,812,o),
(431,858,cs)
);
},
{
closed = 1;
nodes = (
(217,676,l),
(2,676,l),
(2,668,l),
(82,668,o),
(109,639,o),
(109,581,cs),
(109,95,ls),
(109,37,o),
(82,8,o),
(2,8,c),
(2,0,l),
(217,0,l)
);
}
);
width = 435;
}
);
unicode = 239;
},
{
glyphname = ntilde;
layers = (
{
hints = (
{
horizontal = 1;
place = (0,8);
type = Stem;
},
{
horizontal = 1;
place = (668,8);
type = Stem;
},
{
horizontal = 1;
place = (757,55);
type = Stem;
},
{
horizontal = 1;
place = (795,59);
type = Stem;
},
{
place = (-20,660);
type = Stem;
},
{
place = (467,161);
type = Stem;
}
);
layerId = "2CB89E61-3CCE-4A23-82C8-7DCD997832E5";
shapes = (
{
closed = 1;
nodes = (
(241,778,o),
(270,795,o),
(305,795,cs),
(357,795,o),
(405,757,o),
(460,757,cs),
(545,757,o),
(590,848,o),
(592,918,c),
(586,848,o),
(543,812,o),
(503,812,cs),
(446,812,o),
(384,854,o),
(325,854,cs),
(247,854,o),
(229,793,o),
(242,750,c)
);
},
{
closed = 1;
nodes = (
(510,0,l),
(638,0,l),
(638,26,l),
(180,676,l),
(-20,676,l),
(-20,668,l),
(66,668,o),
(111,594,o),
(152,530,c)
);
},
{
closed = 1;
nodes = (
(467,676,l),
(467,668,l),
(605,668,o),
(628,468,o),
(628,316,c),
(628,548,o),
(640,668,o),
(640,676,c)
);
},
{
closed = 1;
nodes = (
(138,227,o),
(141,8,o),
(-10,8,c),
(-10,0,l),
(159,0,l),
(141,33,o),
(143,220,o),
(138,361,c)
);
}
);
width = 754;
}
);
unicode = 241;
},
{
glyphname = ograve;
layers = (
{
hints = (
{
horizontal = 1;
place = (-4,21);
target = up;
type = BottomGhost;
},
{
horizontal = 1;
place = (-3,21);
target = up;
type = BottomGhost;
},
{
horizontal = 1;
place = (679,-20);
target = down;
type = TopGhost;
},
{
horizontal = 1;
place = (682,-20);
target = down;
type = TopGhost;
},
{
place = (15,124);
type = Stem;
},
{
place = (538,124);
type = Stem;
}
);
layerId = "2CB89E61-3CCE-4A23-82C8-7DCD997832E5";
shapes = (
{
closed = 1;
nodes = (
(412,855,ls),
(381,878,o),
(338,911,o),
(310,911,cs),
(290,911,o),
(278,902,o),
(278,883,cs),
(278,868,o),
(289,855,o),
(304,844,cs),
(359,805,o),
(459,788,o),
(510,772,c),
(523,772,l)
);
},
{
closed = 1;
nodes = (
(139,493,o),
(180,631,o),
(320,682,c),
(168,656,o),
(15,550,o),
(15,339,cs),
(15,130,o),
(164,24,o),
(314,-4,c),
(179,49,o),
(139,186,o),
(139,339,cs)
);
},
{
closed = 1;
nodes = (
(538,159,o),
(509,2,o),
(407,-3,c),
(523,-4,o),
(662,92,o),
(662,339,cs),
(662,584,o),
(520,680,o),
(404,679,c),
(508,677,o),
(538,520,o),
(538,339,cs)
);
}
);
width = 800;
}
);
leftKerningGroup = C;
rightKerningGroup = B;
unicode = 242;
},
{
glyphname = oacute;
layers = (
{
hints = (
{
horizontal = 1;
place = (-4,21);
target = up;
type = BottomGhost;
},
{
horizontal = 1;
place = (-3,21);
target = up;
type = BottomGhost;
},
{
horizontal = 1;
place = (679,-20);
target = down;
type = TopGhost;
},
{
horizontal = 1;
place = (682,-20);
target = down;
type = TopGhost;
},
{
place = (15,124);
type = Stem;
},
{
place = (538,124);
type = Stem;
}
);
layerId = "2CB89E61-3CCE-4A23-82C8-7DCD997832E5";
shapes = (
{
closed = 1;
nodes = (
(273,773,l),
(286,773,l),
(305,778,o),
(413,846,o),
(469,894,cs),
(507,926,o),
(505,953,o),
(468,953,cs),
(430,953,o),
(397,922,o),
(369,888,cs)
);
},
{
closed = 1;
nodes = (
(139,493,o),
(180,631,o),
(320,682,c),
(168,656,o),
(15,550,o),
(15,339,cs),
(15,130,o),
(164,24,o),
(314,-4,c),
(179,49,o),
(139,186,o),
(139,339,cs)
);
},
{
closed = 1;
nodes = (
(538,159,o),
(509,2,o),
(407,-3,c),
(523,-4,o),
(662,92,o),
(662,339,cs),
(662,584,o),
(520,680,o),
(404,679,c),
(508,677,o),
(538,520,o),
(538,339,cs)
);
}
);
width = 800;
}
);
leftKerningGroup = C;
rightKerningGroup = B;
unicode = 243;
},
{
glyphname = ocircumflex;
layers = (
{
hints = (
{
horizontal = 1;
place = (-4,21);
target = up;
type = BottomGhost;
},
{
horizontal = 1;
place = (-3,21);
target = up;
type = BottomGhost;
},
{
horizontal = 1;
place = (679,-20);
target = down;
type = TopGhost;
},
{
horizontal = 1;
place = (682,-20);
target = down;
type = TopGhost;
},
{
place = (15,124);
type = Stem;
},
{
place = (538,124);
type = Stem;
}
);
layerId = "2CB89E61-3CCE-4A23-82C8-7DCD997832E5";
shapes = (
{
closed = 1;
nodes = (
(400,855,l),
(539,772,l),
(547,766,o),
(554,769,o),
(552,774,c),
(411,896,l),
(392,896,l),
(248,775,l),
(244,768,o),
(253,766,o),
(262,773,c)
);
},
{
closed = 1;
nodes = (
(139,493,o),
(180,631,o),
(320,682,c),
(168,656,o),
(15,550,o),
(15,339,cs),
(15,130,o),
(164,24,o),
(314,-4,c),
(179,49,o),
(139,186,o),
(139,339,cs)
);
},
{
closed = 1;
nodes = (
(538,159,o),
(509,2,o),
(407,-3,c),
(523,-4,o),
(662,92,o),
(662,339,cs),
(662,584,o),
(520,680,o),
(404,679,c),
(508,677,o),
(538,520,o),
(538,339,cs)
);
}
);
width = 800;
}
);
leftKerningGroup = C;
rightKerningGroup = B;
unicode = 244;
},
{
glyphname = otilde;
layers = (
{
hints = (
{
horizontal = 1;
place = (-4,21);
target = up;
type = BottomGhost;
},
{
horizontal = 1;
place = (-3,21);
target = up;
type = BottomGhost;
},
{
horizontal = 1;
place = (679,-20);
target = down;
type = TopGhost;
},
{
horizontal = 1;
place = (682,-20);
target = down;
type = TopGhost;
},
{
horizontal = 1;
place = (758,55);
type = Stem;
},
{
horizontal = 1;
place = (796,59);
type = Stem;
},
{
place = (15,124);
type = Stem;
},
{
place = (538,124);
type = Stem;
}
);
layerId = "2CB89E61-3CCE-4A23-82C8-7DCD997832E5";
shapes = (
{
closed = 1;
nodes = (
(226,779,o),
(255,796,o),
(290,796,cs),
(342,796,o),
(390,758,o),
(445,758,cs),
(530,758,o),
(575,849,o),
(577,919,c),
(571,849,o),
(528,813,o),
(488,813,cs),
(431,813,o),
(369,855,o),
(310,855,cs),
(232,855,o),
(214,794,o),
(227,751,c)
);
},
{
closed = 1;
nodes = (
(139,493,o),
(180,631,o),
(320,682,c),
(168,656,o),
(15,550,o),
(15,339,cs),
(15,130,o),
(164,24,o),
(314,-4,c),
(179,49,o),
(139,186,o),
(139,339,cs)
);
},
{
closed = 1;
nodes = (
(538,159,o),
(509,2,o),
(407,-3,c),
(523,-4,o),
(662,92,o),
(662,339,cs),
(662,584,o),
(520,680,o),
(404,679,c),
(508,677,o),
(538,520,o),
(538,339,cs)
);
}
);
width = 800;
}
);
leftKerningGroup = C;
rightKerningGroup = B;
unicode = 245;
},
{
glyphname = odieresis;
layers = (
{
hints = (
{
horizontal = 1;
place = (-4,21);
target = up;
type = BottomGhost;
},
{
horizontal = 1;
place = (-3,21);
target = up;
type = BottomGhost;
},
{
horizontal = 1;
place = (679,-20);
target = down;
type = TopGhost;
},
{
horizontal = 1;
place = (682,-20);
target = down;
type = TopGhost;
},
{
horizontal = 1;
place = (772,52);
type = Stem;
},
{
place = (15,124);
type = Stem;
},
{
place = (538,124);
type = Stem;
}
);
layerId = "2CB89E61-3CCE-4A23-82C8-7DCD997832E5";
shapes = (
{
closed = 1;
nodes = (
(382,876,o),
(364,887,o),
(348,887,cs),
(302,887,o),
(294,824,o),
(232,824,cs),
(212,824,o),
(187,833,o),
(187,857,c),
(187,812,o),
(229,772,o),
(283,772,cs),
(342,772,o),
(382,811,o),
(382,858,cs)
);
},
{
closed = 1;
nodes = (
(614,876,o),
(596,887,o),
(580,887,cs),
(534,887,o),
(526,824,o),
(464,824,cs),
(444,824,o),
(419,833,o),
(419,857,c),
(419,812,o),
(460,772,o),
(515,772,cs),
(574,772,o),
(614,812,o),
(614,858,cs)
);
},
{
closed = 1;
nodes = (
(139,493,o),
(180,631,o),
(320,682,c),
(168,656,o),
(15,550,o),
(15,339,cs),
(15,130,o),
(164,24,o),
(314,-4,c),
(179,49,o),
(139,186,o),
(139,339,cs)
);
},
{
closed = 1;
nodes = (
(538,159,o),
(509,2,o),
(407,-3,c),
(523,-4,o),
(662,92,o),
(662,339,cs),
(662,584,o),
(520,680,o),
(404,679,c),
(508,677,o),
(538,520,o),
(538,339,cs)
);
}
);
width = 800;
}
);
leftKerningGroup = C;
rightKerningGroup = B;
unicode = 246;
},
{
glyphname = yacute;
layers = (
{
hints = (
{
horizontal = 1;
place = (0,8);
type = Stem;
},
{
horizontal = 1;
place = (668,8);
type = Stem;
},
{
place = (243,108);
type = Stem;
},
{
place = (547,58);
type = Stem;
}
);
layerId = "2CB89E61-3CCE-4A23-82C8-7DCD997832E5";
shapes = (
{
closed = 1;
nodes = (
(339,774,l),
(352,774,l),
(371,779,o),
(479,847,o),
(535,895,cs),
(573,927,o),
(571,954,o),
(534,954,cs),
(496,954,o),
(463,923,o),
(435,889,cs)
);
},
{
closed = 1;
nodes = (
(175,676,l),
(-21,676,l),
(-21,668,l),
(37,668,o),
(64,644,o),
(82,609,cs),
(243,307,l),
(243,95,ls),
(243,37,o),
(216,8,o),
(136,8,c),
(136,0,l),
(351,0,l),
(351,327,l)
);
},
{
closed = 1;
nodes = (
(457,676,l),
(457,668,l),
(629,668,o),
(512,439,o),
(454,356,c),
(503,416,o),
(601,595,o),
(605,676,c)
);
}
);
width = 684;
}
);
unicode = 253;
},
{
glyphname = ydieresis;
layers = (
{
hints = (
{
horizontal = 1;
place = (0,8);
type = Stem;
},
{
horizontal = 1;
place = (668,8);
type = Stem;
},
{
horizontal = 1;
place = (772,52);
type = Stem;
},
{
place = (243,108);
type = Stem;
},
{
place = (547,58);
type = Stem;
}
);
layerId = "2CB89E61-3CCE-4A23-82C8-7DCD997832E5";
shapes = (
{
closed = 1;
nodes = (
(402,876,o),
(384,887,o),
(368,887,cs),
(322,887,o),
(314,824,o),
(252,824,cs),
(232,824,o),
(207,833,o),
(207,857,c),
(207,812,o),
(249,772,o),
(303,772,cs),
(362,772,o),
(402,811,o),
(402,858,cs)
);
},
{
closed = 1;
nodes = (
(634,876,o),
(616,887,o),
(600,887,cs),
(554,887,o),
(546,824,o),
(484,824,cs),
(464,824,o),
(439,833,o),
(439,857,c),
(439,812,o),
(480,772,o),
(535,772,cs),
(594,772,o),
(634,812,o),
(634,858,cs)
);
},
{
closed = 1;
nodes = (
(175,676,l),
(-21,676,l),
(-21,668,l),
(37,668,o),
(64,644,o),
(82,609,cs),
(243,307,l),
(243,95,ls),
(243,37,o),
(216,8,o),
(136,8,c),
(136,0,l),
(351,0,l),
(351,327,l)
);
},
{
closed = 1;
nodes = (
(457,676,l),
(457,668,l),
(629,668,o),
(512,439,o),
(454,356,c),
(503,416,o),
(601,595,o),
(605,676,c)
);
}
);
width = 684;
}
);
unicode = 255;
},
{
glyphname = Eth;
layers = (
{
hints = (
{
horizontal = 1;
place = (0,8);
type = Stem;
},
{
horizontal = 1;
place = (333,13);
type = Stem;
},
{
horizontal = 1;
place = (668,8);
type = Stem;
},
{
place = (109,108);
type = Stem;
},
{
place = (522,123);
type = Stem;
}
);
layerId = "2CB89E61-3CCE-4A23-82C8-7DCD997832E5";
shapes = (
{
closed = 1;
nodes = (
(60,333,l),
(109,333,l),
(109,95,ls),
(109,37,o),
(82,8,o),
(2,8,c),
(2,0,l),
(217,0,l),
(217,333,l),
(426,333,l),
(426,346,l),
(217,346,l),
(217,676,l),
(2,676,l),
(2,668,l),
(82,668,o),
(109,639,o),
(109,581,cs),
(109,346,l),
(60,346,l)
);
},
{
closed = 1;
nodes = (
(522,186,o),
(495,8,o),
(376,8,c),
(555,8,o),
(645,152,o),
(645,349,cs),
(645,581,o),
(505,673,o),
(377,668,c),
(495,668,o),
(522,519,o),
(522,349,cs)
);
}
);
width = 770;
}
);
rightKerningGroup = B;
unicode = 208;
},
{
glyphname = Dcroat;
layers = (
{
hints = (
{
horizontal = 1;
place = (0,8);
type = Stem;
},
{
horizontal = 1;
place = (333,13);
type = Stem;
},
{
horizontal = 1;
place = (668,8);
type = Stem;
},
{
place = (109,108);
type = Stem;
},
{
place = (522,123);
type = Stem;
}
);
layerId = "2CB89E61-3CCE-4A23-82C8-7DCD997832E5";
shapes = (
{
closed = 1;
nodes = (
(60,333,l),
(109,333,l),
(109,95,ls),
(109,37,o),
(82,8,o),
(2,8,c),
(2,0,l),
(217,0,l),
(217,333,l),
(426,333,l),
(426,346,l),
(217,346,l),
(217,676,l),
(2,676,l),
(2,668,l),
(82,668,o),
(109,639,o),
(109,581,cs),
(109,346,l),
(60,346,l)
);
},
{
closed = 1;
nodes = (
(522,186,o),
(495,8,o),
(376,8,c),
(555,8,o),
(645,152,o),
(645,349,cs),
(645,581,o),
(505,673,o),
(377,668,c),
(495,668,o),
(522,519,o),
(522,349,cs)
);
}
);
width = 770;
}
);
rightKerningGroup = B;
unicode = 272;
},
{
glyphname = scaron;
layers = (
{
hints = (
{
horizontal = 1;
place = (1,21);
target = up;
type = BottomGhost;
},
{
horizontal = 1;
place = (679,-20);
target = down;
type = TopGhost;
},
{
horizontal = 1;
place = (816,39);
type = Stem;
},
{
place = (35,9);
type = Stem;
},
{
place = (47,64);
type = Stem;
},
{
place = (412,89);
type = Stem;
},
{
place = (508,9);
type = Stem;
}
);
layerId = "2CB89E61-3CCE-4A23-82C8-7DCD997832E5";
shapes = (
{
closed = 1;
nodes = (
(146,937,l),
(137,944,o),
(128,942,o),
(132,935,c),
(273,816,l),
(298,816,l),
(436,936,l),
(438,941,o),
(431,944,o),
(423,938,c),
(284,855,l)
);
},
{
closed = 1;
nodes = (
(405,672,o),
(481,576,o),
(508,461,c),
(517,461,l),
(517,532,ls),
(517,629,o),
(383,680,o),
(301,679,c)
);
},
{
closed = 1;
nodes = (
(444,13,o),
(501,74,o),
(501,157,cs),
(501,256,o),
(442,281,o),
(286,367,cs),
(214,407,o),
(111,457,o),
(111,547,cs),
(111,604,o),
(148,650,o),
(196,672,c),
(102,642,o),
(47,571,o),
(47,480,cs),
(47,358,o),
(130,315,o),
(272,238,cs),
(332,205,o),
(412,161,o),
(412,89,cs),
(412,45,o),
(389,14,o),
(343,3,c)
);
},
{
closed = 1;
nodes = (
(151,15,o),
(56,171,o),
(44,287,c),
(35,287,l),
(41,168,ls),
(46,78,o),
(169,2,o),
(278,1,c)
);
}
);
width = 568;
}
);
leftKerningGroup = S2;
rightKerningGroup = S;
unicode = 353;
},
{
glyphname = ugrave;
layers = (
{
hints = (
{
horizontal = 1;
place = (-14,14);
type = Stem;
},
{
horizontal = 1;
place = (668,8);
type = Stem;
},
{
place = (84,110);
type = Stem;
},
{
place = (493,161);
type = Stem;
}
);
layerId = "2CB89E61-3CCE-4A23-82C8-7DCD997832E5";
shapes = (
{
closed = 1;
nodes = (
(435,855,ls),
(404,878,o),
(361,911,o),
(333,911,cs),
(313,911,o),
(301,902,o),
(301,883,cs),
(301,868,o),
(312,855,o),
(327,844,cs),
(382,805,o),
(482,788,o),
(533,772,c),
(546,772,l)
);
},
{
closed = 1;
nodes = (
(654,676,l),
(493,676,l),
(493,668,l),
(631,668,o),
(654,468,o),
(654,316,c),
(655,414,l)
);
},
{
closed = 1;
nodes = (
(194,676,l),
(0,676,l),
(0,668,l),
(25,668,ls),
(54,668,o),
(84,647,o),
(84,597,cs),
(84,242,ls),
(84,84,o),
(175,-14,o),
(390,-14,cs),
(465,-14,o),
(526,2,o),
(571,34,c),
(538,12,o),
(492,0,o),
(443,0,cs),
(326,0,o),
(194,58,o),
(194,222,cs)
);
}
);
width = 736;
}
);
unicode = 249;
},
{
glyphname = uacute;
layers = (
{
hints = (
{
horizontal = 1;
place = (-14,14);
type = Stem;
},
{
horizontal = 1;
place = (668,8);
type = Stem;
},
{
place = (84,110);
type = Stem;
},
{
place = (493,161);
type = Stem;
}
);
layerId = "2CB89E61-3CCE-4A23-82C8-7DCD997832E5";
shapes = (
{
closed = 1;
nodes = (
(336,774,l),
(349,774,l),
(368,779,o),
(476,847,o),
(532,895,cs),
(570,927,o),
(568,954,o),
(531,954,cs),
(493,954,o),
(460,923,o),
(432,889,cs)
);
},
{
closed = 1;
nodes = (
(654,676,l),
(493,676,l),
(493,668,l),
(631,668,o),
(654,468,o),
(654,316,c),
(655,414,l)
);
},
{
closed = 1;
nodes = (
(194,676,l),
(0,676,l),
(0,668,l),
(25,668,ls),
(54,668,o),
(84,647,o),
(84,597,cs),
(84,242,ls),
(84,84,o),
(175,-14,o),
(390,-14,cs),
(465,-14,o),
(526,2,o),
(571,34,c),
(538,12,o),
(492,0,o),
(443,0,cs),
(326,0,o),
(194,58,o),
(194,222,cs)
);
}
);
width = 736;
}
);
unicode = 250;
},
{
glyphname = ucircumflex;
layers = (
{
hints = (
{
horizontal = 1;
place = (-14,14);
type = Stem;
},
{
horizontal = 1;
place = (668,8);
type = Stem;
},
{
place = (84,110);
type = Stem;
},
{
place = (493,161);
type = Stem;
}
);
layerId = "2CB89E61-3CCE-4A23-82C8-7DCD997832E5";
shapes = (
{
closed = 1;
nodes = (
(418,854,l),
(557,771,l),
(565,765,o),
(572,768,o),
(570,773,c),
(429,895,l),
(410,895,l),
(266,774,l),
(262,767,o),
(271,765,o),
(280,772,c)
);
},
{
closed = 1;
nodes = (
(654,676,l),
(493,676,l),
(493,668,l),
(631,668,o),
(654,468,o),
(654,316,c),
(655,414,l)
);
},
{
closed = 1;
nodes = (
(194,676,l),
(0,676,l),
(0,668,l),
(25,668,ls),
(54,668,o),
(84,647,o),
(84,597,cs),
(84,242,ls),
(84,84,o),
(175,-14,o),
(390,-14,cs),
(465,-14,o),
(526,2,o),
(571,34,c),
(538,12,o),
(492,0,o),
(443,0,cs),
(326,0,o),
(194,58,o),
(194,222,cs)
);
}
);
width = 736;
}
);
unicode = 251;
},
{
glyphname = udieresis;
layers = (
{
hints = (
{
horizontal = 1;
place = (-14,14);
type = Stem;
},
{
horizontal = 1;
place = (668,8);
type = Stem;
},
{
horizontal = 1;
place = (772,52);
type = Stem;
},
{
place = (84,110);
type = Stem;
},
{
place = (493,161);
type = Stem;
}
);
layerId = "2CB89E61-3CCE-4A23-82C8-7DCD997832E5";
shapes = (
{
closed = 1;
nodes = (
(399,876,o),
(381,887,o),
(365,887,cs),
(319,887,o),
(311,824,o),
(249,824,cs),
(229,824,o),
(204,833,o),
(204,857,c),
(204,812,o),
(246,772,o),
(300,772,cs),
(359,772,o),
(399,811,o),
(399,858,cs)
);
},
{
closed = 1;
nodes = (
(631,876,o),
(613,887,o),
(597,887,cs),
(551,887,o),
(543,824,o),
(481,824,cs),
(461,824,o),
(436,833,o),
(436,857,c),
(436,812,o),
(477,772,o),
(532,772,cs),
(591,772,o),
(631,812,o),
(631,858,cs)
);
},
{
closed = 1;
nodes = (
(654,676,l),
(493,676,l),
(493,668,l),
(631,668,o),
(654,468,o),
(654,316,c),
(655,414,l)
);
},
{
closed = 1;
nodes = (
(194,676,l),
(0,676,l),
(0,668,l),
(25,668,ls),
(54,668,o),
(84,647,o),
(84,597,cs),
(84,242,ls),
(84,84,o),
(175,-14,o),
(390,-14,cs),
(465,-14,o),
(526,2,o),
(571,34,c),
(538,12,o),
(492,0,o),
(443,0,cs),
(326,0,o),
(194,58,o),
(194,222,cs)
);
}
);
width = 736;
}
);
unicode = 252;
},
{
glyphname = AE;
layers = (
{
hints = (
{
horizontal = 1;
place = (0,8);
type = Stem;
},
{
horizontal = 1;
place = (188,124);
type = Stem;
},
{
horizontal = 1;
place = (307,10);
type = Stem;
},
{
horizontal = 1;
place = (655,21);
type = Stem;
},
{
horizontal = 1;
place = (665,11);
type = Stem;
},
{
place = (-42,148);
type = Stem;
},
{
place = (415,116);
type = Stem;
},
{
place = (814,10);
type = Stem;
},
{
place = (906,12);
type = Stem;
},
{
place = (926,12);
type = Stem;
}
);
layerId = "2CB89E61-3CCE-4A23-82C8-7DCD997832E5";
shapes = (
{
closed = 1;
nodes = (
(256,665,l),
(349,664,o),
(383,636,o),
(355,564,c),
(174,227,ls),
(123,132,o),
(29,8,o),
(-27,8,cs),
(-42,8,l),
(-42,0,l),
(106,0,l),
(111,78,o),
(147,157,o),
(199,253,cs),
(228,307,l),
(415,307,l),
(415,95,ls),
(415,37,o),
(388,8,o),
(308,8,c),
(308,0,l),
(531,0,l),
(531,676,l),
(256,676,l)
);
},
{
closed = 1;
nodes = (
(647,667,ls),
(805,667,o),
(906,525,o),
(906,426,c),
(918,426,l),
(918,489,ls),
(918,641,o),
(806,670,o),
(632,667,c)
);
},
{
closed = 1;
nodes = (
(233,317,l),
(415,655,l),
(415,317,l)
);
},
{
closed = 1;
nodes = (
(632,312,l),
(632,306,l),
(647,306,ls),
(718,306,o),
(814,266,o),
(814,196,cs),
(814,188,l),
(824,188,l),
(824,312,l)
);
},
{
closed = 1;
nodes = (
(632,9,l),
(806,6,o),
(938,39,o),
(938,191,cs),
(938,250,l),
(926,250,l),
(926,151,o),
(805,9,o),
(647,9,cs)
);
}
);
width = 970;
}
);
unicode = 198;
},
{
glyphname = eth;
layers = (
{
hints = (
{
horizontal = 1;
place = (0,8);
type = Stem;
},
{
horizontal = 1;
place = (333,13);
type = Stem;
},
{
horizontal = 1;
place = (668,8);
type = Stem;
},
{
place = (109,108);
type = Stem;
},
{
place = (522,123);
type = Stem;
}
);
layerId = "2CB89E61-3CCE-4A23-82C8-7DCD997832E5";
shapes = (
{
closed = 1;
nodes = (
(60,333,l),
(109,333,l),
(109,95,ls),
(109,37,o),
(82,8,o),
(2,8,c),
(2,0,l),
(217,0,l),
(217,333,l),
(426,333,l),
(426,346,l),
(217,346,l),
(217,676,l),
(2,676,l),
(2,668,l),
(82,668,o),
(109,639,o),
(109,581,cs),
(109,346,l),
(60,346,l)
);
},
{
closed = 1;
nodes = (
(522,186,o),
(495,8,o),
(376,8,c),
(555,8,o),
(645,152,o),
(645,349,cs),
(645,581,o),
(505,673,o),
(377,668,c),
(495,668,o),
(522,519,o),
(522,349,cs)
);
}
);
width = 770;
}
);
rightKerningGroup = B;
unicode = 240;
},
{
glyphname = dcroat;
layers = (
{
hints = (
{
horizontal = 1;
place = (0,8);
type = Stem;
},
{
horizontal = 1;
place = (333,13);
type = Stem;
},
{
horizontal = 1;
place = (668,8);
type = Stem;
},
{
place = (109,108);
type = Stem;
},
{
place = (522,123);
type = Stem;
}
);
layerId = "2CB89E61-3CCE-4A23-82C8-7DCD997832E5";
shapes = (
{
closed = 1;
nodes = (
(60,333,l),
(109,333,l),
(109,95,ls),
(109,37,o),
(82,8,o),
(2,8,c),
(2,0,l),
(217,0,l),
(217,333,l),
(426,333,l),
(426,346,l),
(217,346,l),
(217,676,l),
(2,676,l),
(2,668,l),
(82,668,o),
(109,639,o),
(109,581,cs),
(109,346,l),
(60,346,l)
);
},
{
closed = 1;
nodes = (
(522,186,o),
(495,8,o),
(376,8,c),
(555,8,o),
(645,152,o),
(645,349,cs),
(645,581,o),
(505,673,o),
(377,668,c),
(495,668,o),
(522,519,o),
(522,349,cs)
);
}
);
width = 770;
}
);
rightKerningGroup = B;
unicode = 273;
},
{
glyphname = ae;
layers = (
{
hints = (
{
horizontal = 1;
place = (0,8);
type = Stem;
},
{
horizontal = 1;
place = (188,124);
type = Stem;
},
{
horizontal = 1;
place = (307,10);
type = Stem;
},
{
horizontal = 1;
place = (655,21);
type = Stem;
},
{
horizontal = 1;
place = (665,11);
type = Stem;
},
{
place = (-42,148);
type = Stem;
},
{
place = (415,116);
type = Stem;
},
{
place = (814,10);
type = Stem;
},
{
place = (906,12);
type = Stem;
},
{
place = (926,12);
type = Stem;
}
);
layerId = "2CB89E61-3CCE-4A23-82C8-7DCD997832E5";
shapes = (
{
closed = 1;
nodes = (
(256,665,l),
(349,664,o),
(383,636,o),
(355,564,c),
(174,227,ls),
(123,132,o),
(29,8,o),
(-27,8,cs),
(-42,8,l),
(-42,0,l),
(106,0,l),
(111,78,o),
(147,157,o),
(199,253,cs),
(228,307,l),
(415,307,l),
(415,95,ls),
(415,37,o),
(388,8,o),
(308,8,c),
(308,0,l),
(531,0,l),
(531,676,l),
(256,676,l)
);
},
{
closed = 1;
nodes = (
(647,667,ls),
(805,667,o),
(906,525,o),
(906,426,c),
(918,426,l),
(918,489,ls),
(918,641,o),
(806,670,o),
(632,667,c)
);
},
{
closed = 1;
nodes = (
(233,317,l),
(415,655,l),
(415,317,l)
);
},
{
closed = 1;
nodes = (
(632,312,l),
(632,306,l),
(647,306,ls),
(718,306,o),
(814,266,o),
(814,196,cs),
(814,188,l),
(824,188,l),
(824,312,l)
);
},
{
closed = 1;
nodes = (
(632,9,l),
(806,6,o),
(938,39,o),
(938,191,cs),
(938,250,l),
(926,250,l),
(926,151,o),
(805,9,o),
(647,9,cs)
);
}
);
width = 970;
}
);
unicode = 230;
},
{
glyphname = Lslash;
layers = (
{
hints = (
{
horizontal = 1;
place = (0,8);
type = Stem;
},
{
horizontal = 1;
place = (668,8);
type = Stem;
},
{
place = (109,106);
type = Stem;
},
{
place = (608,10);
type = Stem;
}
);
layerId = "2CB89E61-3CCE-4A23-82C8-7DCD997832E5";
shapes = (
{
closed = 1;
nodes = (
(42,201,l),
(109,248,l),
(109,95,ls),
(109,37,o),
(82,8,o),
(2,8,c),
(2,0,l),
(215,0,l),
(215,323,l),
(398,453,l),
(398,465,l),
(215,335,l),
(215,676,l),
(2,676,l),
(2,668,l),
(82,668,o),
(109,639,o),
(109,581,cs),
(109,260,l),
(42,213,l)
);
},
{
closed = 1;
nodes = (
(504,9,o),
(618,75,o),
(618,227,cs),
(618,308,l),
(608,308,l),
(608,212,o),
(492,9,o),
(326,9,c)
);
}
);
width = 643;
}
);
rightKerningGroup = L;
unicode = 321;
},
{
glyphname = OE;
layers = (
{
hints = (
{
horizontal = 1;
place = (-16,9);
type = Stem;
},
{
horizontal = 1;
place = (188,124);
type = Stem;
},
{
horizontal = 1;
place = (683,9);
type = Stem;
},
{
place = (15,135);
type = Stem;
},
{
place = (538,110);
type = Stem;
},
{
place = (944,10);
type = Stem;
},
{
place = (1045,12);
type = Stem;
},
{
place = (1065,12);
type = Stem;
}
);
layerId = "2CB89E61-3CCE-4A23-82C8-7DCD997832E5";
shapes = (
{
closed = 1;
nodes = (
(396,692,ls),
(224,692,o),
(15,590,o),
(15,339,cs),
(15,87,o),
(224,-16,o),
(396,-16,cs),
(404,-16,ls),
(591,-16,o),
(648,39,o),
(648,338,cs),
(648,637,o),
(591,692,o),
(404,692,cs)
);
},
{
closed = 1;
nodes = (
(402,683,ls),
(479,683,o),
(516,600,o),
(530,484,cs),
(536,440,o),
(538,390,o),
(538,339,cs),
(538,292,o),
(536,246,o),
(531,204,cs),
(518,82,o),
(481,-7,o),
(402,-7,cs),
(398,-7,ls),
(205,-7,o),
(150,153,o),
(150,339,cs),
(150,524,o),
(205,683,o),
(398,683,cs)
);
},
{
closed = 1;
nodes = (
(786,667,ls),
(944,667,o),
(1045,525,o),
(1045,426,c),
(1057,426,l),
(1057,507,ls),
(1057,659,o),
(945,670,o),
(771,667,c)
);
},
{
closed = 1;
nodes = (
(762,312,l),
(762,306,l),
(777,306,ls),
(848,306,o),
(944,262,o),
(944,196,cs),
(944,188,l),
(954,188,l),
(954,312,l)
);
},
{
closed = 1;
nodes = (
(771,9,l),
(945,6,o),
(1077,17,o),
(1077,169,cs),
(1077,250,l),
(1065,250,l),
(1065,151,o),
(944,9,o),
(786,9,cs)
);
}
);
width = 1109;
}
);
leftKerningGroup = C;
unicode = 338;
},
{
glyphname = oe;
layers = (
{
hints = (
{
horizontal = 1;
place = (-16,9);
type = Stem;
},
{
horizontal = 1;
place = (188,124);
type = Stem;
},
{
horizontal = 1;
place = (683,9);
type = Stem;
},
{
place = (15,135);
type = Stem;
},
{
place = (538,110);
type = Stem;
},
{
place = (944,10);
type = Stem;
},
{
place = (1045,12);
type = Stem;
},
{
place = (1065,12);
type = Stem;
}
);
layerId = "2CB89E61-3CCE-4A23-82C8-7DCD997832E5";
shapes = (
{
closed = 1;
nodes = (
(396,692,ls),
(224,692,o),
(15,590,o),
(15,339,cs),
(15,87,o),
(224,-16,o),
(396,-16,cs),
(404,-16,ls),
(591,-16,o),
(648,39,o),
(648,338,cs),
(648,637,o),
(591,692,o),
(404,692,cs)
);
},
{
closed = 1;
nodes = (
(402,683,ls),
(479,683,o),
(516,600,o),
(530,484,cs),
(536,440,o),
(538,390,o),
(538,339,cs),
(538,292,o),
(536,246,o),
(531,204,cs),
(518,82,o),
(481,-7,o),
(402,-7,cs),
(398,-7,ls),
(205,-7,o),
(150,153,o),
(150,339,cs),
(150,524,o),
(205,683,o),
(398,683,cs)
);
},
{
closed = 1;
nodes = (
(786,667,ls),
(944,667,o),
(1045,525,o),
(1045,426,c),
(1057,426,l),
(1057,507,ls),
(1057,659,o),
(945,670,o),
(771,667,c)
);
},
{
closed = 1;
nodes = (
(762,312,l),
(762,306,l),
(777,306,ls),
(848,306,o),
(944,262,o),
(944,196,cs),
(944,188,l),
(954,188,l),
(954,312,l)
);
},
{
closed = 1;
nodes = (
(771,9,l),
(945,6,o),
(1077,17,o),
(1077,169,cs),
(1077,250,l),
(1065,250,l),
(1065,151,o),
(944,9,o),
(786,9,cs)
);
}
);
width = 1109;
}
);
leftKerningGroup = C;
unicode = 339;
},
